<svg width="3922" height="1660" viewBox="0 0 3922 1660" fill="none" xmlns="http://www.w3.org/2000/svg" xmlns:xlink="http://www.w3.org/1999/xlink">
<path d="M3316.093,749.928C3342.525,763.182 3343.637,766.402 3330.694,802.778C3330.637,802.937 3330.918,803.051 3330.989,802.898C3347.14,767.829 3350.185,766.301 3378.356,775.283C3378.54,775.342 3378.627,775.128 3378.454,775.042C3352.022,761.788 3350.911,758.568 3363.854,722.192C3363.91,722.034 3363.629,721.919 3363.559,722.072C3347.408,757.142 3344.363,758.669 3316.192,749.687C3316.007,749.628 3315.921,749.842 3316.093,749.928Z" fill="#FFFFFF"/>
<path d="M2347,981.126C2723.38,1009.396 2865.12,1299.052 3237,1249.6C3709.5,1186.764 3922,534 3922,534L3922,1660L0,1660L0,1071.316C0,1071.316 520.97,1349.408 916,1384.536C1513.744,1437.69 1747.888,936.128 2347,981.126Z" fill="#FFFFFF" fill-opacity="0.35"/>
<path d="M2347,659.174C2723.38,700.848 2865.12,1127.876 3237,1054.968C3709.5,962.334 3922,0 3922,0L3922,1660L0,1660L0,792.136C0,792.136 520.97,1202.11 916,1253.898C1513.744,1332.26 1747.888,592.834 2347,659.174Z" transform="rotate(360 1961 830)" fill="#FFFFFF" fill-opacity="0.2"/>
</svg>
