<svg width="86" height="88" viewBox="0 0 86 88" fill="none" xmlns="http://www.w3.org/2000/svg" xmlns:xlink="http://www.w3.org/1999/xlink">
<path d="M58.159,85.059C58.083,85.049 58.011,85.024 57.945,84.986C57.88,84.948 57.822,84.897 57.777,84.837C56.437,83.058 46.691,69.14 59.661,56.418C71.974,44.34 77.555,41.861 78.297,34.765C78.384,33.936 79.521,33.737 79.896,34.484C82.693,40.067 87.052,53.096 72.628,61.647C56.716,71.08 58.02,81.42 58.789,84.359C58.813,84.448 58.814,84.542 58.792,84.632C58.77,84.722 58.726,84.805 58.664,84.875C58.601,84.944 58.523,84.997 58.435,85.029C58.347,85.061 58.252,85.071 58.159,85.059Z" fill="#91B3FA"/>
<path d="M60.132,85.323C59.956,85.3 59.792,85.221 59.665,85.099C59.538,84.977 59.455,84.817 59.428,84.644C59.048,82.224 58.115,73.18 64.882,70.782C72.331,68.142 78.344,74.973 83.82,69.626C84.108,69.345 84.592,69.59 84.524,69.984C84.036,72.777 81.866,79.245 72.208,80.547C61.87,81.94 60.707,83.108 60.916,84.556C60.98,85.003 60.586,85.384 60.132,85.323Z" fill="#91B3FA"/>
<g opacity="0.47">
<path d="M77.937,41.999C77.811,42.515 77.646,43.02 77.442,43.51C77.244,43.999 77.02,44.478 76.772,44.945C76.283,45.883 75.696,46.77 75.054,47.615C73.76,49.301 72.195,50.783 70.469,52.039C69.605,52.659 68.707,53.232 67.78,53.756C66.894,54.264 66.041,54.826 65.226,55.44C63.594,56.671 62.111,58.081 60.805,59.645C58.2,62.765 56.351,66.53 55.742,70.538C55.436,72.547 55.424,74.589 55.708,76.602C55.984,78.62 56.569,80.597 57.339,82.504C57.359,82.551 57.359,82.605 57.339,82.653C57.319,82.701 57.281,82.739 57.233,82.76C57.185,82.78 57.131,82.782 57.082,82.764C57.033,82.745 56.993,82.709 56.97,82.662C56.069,80.779 55.396,78.776 55.023,76.708C54.636,74.632 54.575,72.51 54.842,70.416C55.101,68.318 55.702,66.264 56.567,64.33C57.435,62.395 58.581,60.587 59.921,58.939C61.26,57.288 62.813,55.811 64.511,54.52C65.362,53.874 66.254,53.281 67.181,52.746C68.09,52.232 68.953,51.71 69.789,51.116C71.458,49.942 73,48.588 74.326,47.041C74.996,46.272 75.61,45.456 76.162,44.6C76.706,43.743 77.215,42.839 77.581,41.905L77.586,41.892C77.603,41.85 77.636,41.815 77.678,41.795C77.72,41.775 77.768,41.771 77.812,41.785C77.857,41.798 77.894,41.828 77.918,41.868C77.941,41.908 77.948,41.955 77.937,41.999Z" fill="#FFFFFF"/>
</g>
<g opacity="0.47">
<path d="M59.703,83.682C59.735,83.594 59.725,83.513 59.722,83.429L59.714,83.18L59.708,82.681C59.709,82.349 59.716,82.016 59.731,81.684C59.761,81.02 59.818,80.357 59.909,79.697C60.093,78.379 60.396,77.065 60.936,75.828C61.47,74.599 62.279,73.424 63.453,72.657C64.04,72.279 64.695,72.014 65.382,71.876C66.065,71.734 66.767,71.713 67.454,71.772C70.145,72.08 72.782,72.588 75.427,73C76.744,73.194 78.08,73.366 79.373,73.192C79.694,73.147 80.01,73.076 80.318,72.979C80.625,72.878 80.921,72.748 81.201,72.591C81.764,72.275 82.258,71.843 82.7,71.363L82.701,71.362C82.73,71.33 82.771,71.311 82.814,71.309C82.857,71.306 82.9,71.321 82.932,71.349C82.964,71.377 82.984,71.417 82.987,71.46C82.99,71.502 82.975,71.544 82.947,71.576C82.499,72.084 81.987,72.553 81.389,72.906C81.09,73.083 80.774,73.23 80.445,73.345C80.116,73.456 79.778,73.54 79.435,73.596C78.058,73.794 76.692,73.625 75.36,73.445C74.024,73.258 72.704,73.014 71.38,72.803C70.06,72.592 68.725,72.387 67.411,72.236C66.762,72.174 66.106,72.189 65.473,72.314C64.839,72.436 64.235,72.674 63.692,73.017C62.599,73.702 61.806,74.793 61.268,75.972C60.724,77.158 60.4,78.442 60.195,79.738C60.094,80.387 60.025,81.041 59.983,81.697C59.962,82.026 59.948,82.354 59.942,82.683L59.939,83.176L59.942,83.423C59.944,83.504 59.94,83.588 59.981,83.665C59.993,83.687 59.999,83.712 59.998,83.737C59.998,83.762 59.991,83.786 59.979,83.808C59.966,83.829 59.949,83.848 59.927,83.861C59.906,83.874 59.882,83.882 59.856,83.884C59.831,83.886 59.806,83.881 59.783,83.871C59.76,83.861 59.74,83.845 59.725,83.825C59.709,83.805 59.699,83.782 59.695,83.758C59.691,83.733 59.694,83.708 59.702,83.685L59.703,83.682Z" fill="#FFFFFF"/>
</g>
<path d="M45.643,0.999C41.589,0.968 37.5,1.601 33.882,3.079C25.459,6.52 18.312,15.624 21.109,24.924C22.017,27.945 21.54,31.278 24.597,32.591C26.25,33.301 30.754,33.724 32.466,33.164C37.018,31.676 40.009,27.604 37.534,23.088C36.741,21.642 35.715,20.321 35.031,18.823C34.346,17.324 34.034,15.545 34.732,14.052C36.102,11.122 40.653,10.19 43.604,10.278C47.087,10.382 50.243,12.078 52.117,14.988C54.453,18.615 55.045,23.026 54.703,27.236C54.337,31.741 52.408,35.181 49.518,38.637C47.029,41.612 44.288,44.468 42.633,47.961C41.115,51.168 40.619,54.722 40.55,58.231C40.537,58.911 37.102,65.32 37.117,67.278C37.119,67.554 41.012,68.471 41.293,68.474C42.759,68.49 46.911,68.536 48.44,68.553C48.591,68.554 48.736,68.497 48.844,68.393C48.953,68.29 49.014,68.148 49.016,67.999C49.125,58.473 52.101,49.392 59.634,42.994C62.375,40.666 65.327,38.77 67.458,35.832C70.496,31.644 71.995,27.523 71.562,22.354C71.167,17.634 69.588,12.911 66.463,9.248C63.105,5.312 58.189,2.854 53.08,1.793C50.634,1.286 48.143,1.02 45.643,0.999Z" fill="url(#pf_0_14_235)"/>
<path d="M41.791,0.001C37.737,-0.03 33.647,0.603 30.029,2.081C21.607,5.522 14.459,14.626 17.256,23.926C18.165,26.947 20.266,30.75 23.323,32.062C24.976,32.773 26.902,32.726 28.614,32.166C33.165,30.678 36.157,26.606 33.682,22.09C32.889,20.644 31.863,19.323 31.178,17.824C30.494,16.326 30.182,14.547 30.88,13.054C32.25,10.124 36.8,9.192 39.751,9.28C43.234,9.384 46.391,11.08 48.265,13.99C50.601,17.617 51.193,22.028 50.851,26.238C50.485,30.743 48.556,34.183 45.665,37.638C43.176,40.614 40.435,43.47 38.781,46.963C37.262,50.17 36.766,53.724 36.698,57.233C36.684,57.913 36.917,65.015 36.932,66.973C36.932,67.105 36.986,67.233 37.082,67.327C37.177,67.421 37.306,67.474 37.441,67.476C38.907,67.492 43.059,67.538 44.587,67.554C44.738,67.556 44.884,67.499 44.992,67.395C45.1,67.291 45.162,67.15 45.164,67.001C45.273,57.475 48.249,48.393 55.782,41.996C58.523,39.668 61.474,37.772 63.606,34.834C66.643,30.646 68.142,26.525 67.71,21.356C67.315,16.636 65.736,11.913 62.611,8.25C59.252,4.314 54.336,1.856 49.227,0.795C46.781,0.288 44.29,0.022 41.791,0.001Z" fill="url(#pf_0_14_237)"/>
<path d="M53.12,79.231C53.12,83.611 50.654,87.487 46.205,87.487C45.244,87.487 41.975,87.496 41.121,87.192C38.02,86.088 38.008,83.742 38.008,80.308C38.008,75.928 39.511,71.62 43.959,71.62C48.408,71.62 53.12,74.851 53.12,79.231Z" fill="url(#pf_0_14_236)"/>
<path d="M42.211,87.242C46.66,87.242 50.266,83.691 50.266,79.31C50.266,74.93 46.66,71.379 42.211,71.379C37.763,71.379 34.156,74.93 34.156,79.31C34.156,83.691 37.763,87.242 42.211,87.242Z" fill="url(#pf_0_14_238)"/>
<g opacity="0.63">
<path d="M38.875,84.283C38.855,84.283 38.835,84.277 38.818,84.266C37.951,83.69 37.25,82.903 36.782,81.982C36.315,81.061 36.097,80.037 36.149,79.009C36.202,77.98 36.524,76.983 37.083,76.113C37.642,75.243 38.42,74.53 39.342,74.043C39.366,74.03 39.394,74.027 39.42,74.035C39.447,74.042 39.469,74.06 39.482,74.084C39.495,74.108 39.497,74.136 39.49,74.161C39.482,74.187 39.464,74.209 39.44,74.222C38.549,74.692 37.798,75.381 37.258,76.221C36.717,77.062 36.407,78.025 36.356,79.019C36.305,80.012 36.515,81.002 36.967,81.891C37.418,82.781 38.096,83.541 38.933,84.097C38.952,84.109 38.966,84.127 38.973,84.148C38.98,84.168 38.981,84.191 38.974,84.211C38.968,84.232 38.955,84.25 38.937,84.263C38.919,84.276 38.897,84.283 38.875,84.283Z" fill="#FFFFFF"/>
</g>
<g opacity="0.63">
<path d="M19.923,23.015C19.899,23.015 19.876,23.007 19.858,22.992C19.84,22.978 19.827,22.958 19.822,22.935C19.257,20.425 19.174,16.495 21.985,12.024C24.729,7.661 28.577,4.741 33.424,3.346C38.604,1.855 44.755,2.174 51.706,4.295C51.732,4.303 51.754,4.321 51.766,4.345C51.779,4.368 51.782,4.396 51.774,4.422C51.766,4.448 51.747,4.469 51.723,4.482C51.699,4.495 51.671,4.497 51.645,4.489C38.291,0.415 27.821,3.129 22.161,12.132C19.387,16.544 19.468,20.418 20.024,22.891C20.027,22.906 20.027,22.921 20.023,22.936C20.02,22.951 20.013,22.965 20.003,22.977C19.994,22.989 19.981,22.998 19.967,23.005C19.953,23.011 19.938,23.015 19.923,23.015Z" fill="#FFFFFF"/>
</g>
<g opacity="0.3">
<path d="M25.805,18.953C25.658,19.168 25.499,19.375 25.328,19.571C25.302,19.601 25.265,19.619 25.225,19.622C25.185,19.625 25.146,19.612 25.116,19.587C25.085,19.561 25.067,19.525 25.064,19.485C25.061,19.446 25.074,19.407 25.1,19.378C25.263,19.19 25.415,18.993 25.554,18.788C25.576,18.756 25.611,18.733 25.65,18.725C25.689,18.718 25.729,18.725 25.762,18.747C25.796,18.768 25.819,18.802 25.827,18.84C25.835,18.879 25.827,18.918 25.806,18.951L25.805,18.953ZM26,18.348C25.983,18.339 25.967,18.327 25.954,18.312C25.941,18.297 25.931,18.28 25.925,18.262C25.919,18.243 25.917,18.224 25.918,18.204C25.92,18.185 25.925,18.166 25.934,18.149C26.048,17.928 26.148,17.701 26.233,17.469C26.247,17.432 26.275,17.402 26.311,17.385C26.348,17.369 26.389,17.367 26.427,17.38C26.464,17.394 26.495,17.421 26.511,17.457C26.528,17.493 26.53,17.534 26.516,17.571C26.426,17.814 26.322,18.052 26.203,18.283C26.2,18.287 26.198,18.292 26.195,18.297C26.174,18.327 26.143,18.349 26.107,18.359C26.072,18.368 26.033,18.364 26,18.348ZM24.778,20.128C24.583,20.302 24.378,20.464 24.163,20.614C24.131,20.637 24.09,20.646 24.051,20.639C24.012,20.633 23.977,20.611 23.953,20.579C23.93,20.547 23.921,20.507 23.928,20.468C23.935,20.429 23.957,20.395 23.989,20.372C24.194,20.229 24.39,20.074 24.576,19.908C24.59,19.895 24.607,19.885 24.626,19.878C24.645,19.872 24.664,19.869 24.684,19.87C24.704,19.871 24.723,19.876 24.741,19.884C24.759,19.892 24.775,19.904 24.788,19.918C24.802,19.933 24.812,19.95 24.819,19.968C24.825,19.986 24.828,20.006 24.827,20.025C24.826,20.045 24.821,20.064 24.813,20.081C24.804,20.099 24.793,20.115 24.778,20.128ZM26.56,16.937C26.521,16.928 26.487,16.904 26.466,16.871C26.445,16.838 26.438,16.797 26.447,16.759C26.503,16.518 26.545,16.274 26.571,16.029C26.573,16.009 26.579,15.99 26.588,15.973C26.597,15.956 26.61,15.941 26.626,15.929C26.641,15.917 26.659,15.907 26.678,15.902C26.697,15.896 26.716,15.894 26.736,15.896C26.756,15.899 26.775,15.904 26.792,15.914C26.81,15.923 26.825,15.935 26.837,15.951C26.85,15.966 26.859,15.983 26.865,16.002C26.87,16.021 26.872,16.04 26.87,16.059C26.843,16.317 26.799,16.573 26.74,16.826C26.731,16.864 26.707,16.897 26.673,16.918C26.64,16.939 26.599,16.946 26.56,16.937ZM23.494,21.023C23.262,21.146 23.023,21.255 22.779,21.349C22.741,21.364 22.7,21.363 22.663,21.347C22.627,21.331 22.598,21.302 22.584,21.265C22.569,21.229 22.57,21.188 22.586,21.152C22.602,21.116 22.632,21.088 22.669,21.073C22.902,20.983 23.13,20.879 23.351,20.762C23.386,20.743 23.427,20.739 23.465,20.75C23.504,20.762 23.536,20.787 23.555,20.822C23.574,20.857 23.578,20.897 23.567,20.935C23.555,20.973 23.529,21.004 23.494,21.023ZM22.029,21.589C21.774,21.653 21.516,21.703 21.255,21.737C21.215,21.742 21.175,21.732 21.144,21.708C21.112,21.684 21.091,21.649 21.086,21.61C21.081,21.571 21.091,21.532 21.116,21.5C21.14,21.469 21.176,21.449 21.215,21.443C21.464,21.411 21.711,21.363 21.954,21.302C21.992,21.292 22.033,21.297 22.068,21.317C22.102,21.337 22.127,21.37 22.137,21.408C22.147,21.446 22.141,21.487 22.121,21.52C22.101,21.554 22.067,21.579 22.029,21.589ZM20.468,21.793C20.205,21.796 19.942,21.783 19.681,21.754C19.641,21.75 19.605,21.73 19.58,21.7C19.555,21.669 19.543,21.63 19.547,21.591C19.552,21.552 19.572,21.516 19.603,21.491C19.634,21.467 19.674,21.455 19.714,21.46C19.963,21.487 20.214,21.499 20.465,21.496C20.485,21.496 20.504,21.5 20.523,21.507C20.541,21.514 20.558,21.525 20.572,21.539C20.586,21.552 20.597,21.568 20.605,21.586C20.613,21.604 20.617,21.623 20.617,21.643C20.618,21.672 20.609,21.701 20.593,21.725C20.579,21.746 20.561,21.763 20.539,21.774C20.517,21.786 20.493,21.793 20.468,21.793Z" fill="#91B3FA"/>
<path d="M26.88,15.36C26.897,15.335 26.905,15.306 26.904,15.277C26.902,15.15 26.896,15.022 26.886,14.898C26.884,14.879 26.879,14.86 26.87,14.842C26.861,14.825 26.849,14.809 26.834,14.797C26.819,14.784 26.801,14.775 26.782,14.768C26.764,14.762 26.744,14.76 26.724,14.762C26.704,14.763 26.685,14.768 26.668,14.777C26.65,14.786 26.634,14.798 26.621,14.813C26.609,14.828 26.599,14.845 26.593,14.864C26.586,14.882 26.584,14.902 26.586,14.921C26.595,15.04 26.601,15.161 26.603,15.282C26.604,15.314 26.615,15.345 26.634,15.37C26.654,15.395 26.681,15.413 26.712,15.422C26.743,15.431 26.776,15.429 26.807,15.418C26.837,15.407 26.863,15.387 26.88,15.36Z" fill="#91B3FA"/>
</g>
<g opacity="0.63">
<path d="M21.617,27.053C21.601,27.053 21.585,27.049 21.57,27.042C21.556,27.035 21.543,27.024 21.534,27.011C21.509,26.978 20.929,26.188 20.389,24.798C20.379,24.772 20.38,24.744 20.391,24.72C20.402,24.695 20.423,24.676 20.449,24.666C20.474,24.657 20.503,24.657 20.528,24.668C20.553,24.679 20.572,24.7 20.582,24.725C21.111,26.088 21.695,26.883 21.701,26.891C21.712,26.906 21.719,26.924 21.72,26.943C21.722,26.962 21.718,26.98 21.709,26.997C21.701,27.014 21.687,27.028 21.671,27.038C21.655,27.048 21.636,27.053 21.617,27.053Z" fill="#FFFFFF"/>
</g>
<g opacity="0.63">
<path d="M44.907,74.17C44.89,74.17 44.874,74.166 44.86,74.158C44.04,73.747 43.132,73.535 42.211,73.537C42.184,73.537 42.158,73.527 42.138,73.507C42.119,73.488 42.108,73.462 42.108,73.435C42.108,73.408 42.119,73.383 42.138,73.363C42.158,73.344 42.184,73.334 42.211,73.334C43.164,73.331 44.104,73.551 44.953,73.977C44.974,73.987 44.991,74.004 45.001,74.025C45.01,74.046 45.013,74.069 45.007,74.091C45.002,74.114 44.989,74.134 44.971,74.148C44.952,74.162 44.93,74.17 44.907,74.17Z" fill="#FFFFFF"/>
</g>
<g opacity="0.3">
<path d="M15.416,14.839C15.396,14.863 15.371,14.883 15.343,14.898C15.315,14.913 15.284,14.923 15.252,14.926C15.22,14.93 15.188,14.927 15.157,14.918C15.126,14.909 15.098,14.894 15.073,14.874C14.87,14.712 14.656,14.556 14.438,14.411C14.386,14.376 14.349,14.321 14.336,14.26C14.324,14.198 14.336,14.134 14.371,14.082L14.373,14.078C14.391,14.052 14.414,14.029 14.441,14.012C14.468,13.994 14.498,13.983 14.529,13.977C14.561,13.971 14.593,13.971 14.624,13.977C14.656,13.984 14.685,13.996 14.712,14.014C14.941,14.166 15.166,14.33 15.38,14.501C15.427,14.538 15.458,14.591 15.467,14.65C15.477,14.708 15.464,14.768 15.431,14.818C15.426,14.825 15.421,14.832 15.416,14.839ZM13.33,13.776C13.094,13.661 12.851,13.556 12.607,13.462C12.578,13.45 12.55,13.433 12.527,13.411C12.504,13.389 12.486,13.363 12.473,13.334C12.46,13.305 12.453,13.274 12.452,13.243C12.452,13.211 12.458,13.18 12.469,13.15C12.481,13.121 12.498,13.094 12.521,13.072C12.543,13.049 12.569,13.031 12.599,13.018C12.628,13.005 12.66,12.999 12.692,12.998C12.724,12.998 12.756,13.003 12.785,13.015C13.042,13.114 13.297,13.225 13.545,13.345C13.603,13.374 13.647,13.423 13.668,13.484C13.689,13.544 13.685,13.61 13.656,13.667C13.652,13.675 13.647,13.684 13.642,13.692C13.609,13.741 13.559,13.777 13.502,13.792C13.444,13.808 13.383,13.802 13.33,13.776ZM11.384,13.084C11.129,13.024 10.868,12.974 10.609,12.936C10.577,12.932 10.547,12.921 10.519,12.905C10.492,12.888 10.468,12.867 10.449,12.842C10.43,12.816 10.416,12.788 10.408,12.757C10.401,12.726 10.399,12.695 10.404,12.663C10.408,12.632 10.419,12.602 10.436,12.575C10.452,12.548 10.474,12.525 10.5,12.506C10.526,12.487 10.555,12.473 10.586,12.466C10.617,12.458 10.649,12.457 10.681,12.461C10.954,12.502 11.229,12.554 11.497,12.617C11.528,12.624 11.558,12.637 11.584,12.656C11.609,12.674 11.631,12.698 11.648,12.725C11.665,12.751 11.676,12.781 11.681,12.812C11.686,12.844 11.685,12.875 11.678,12.906C11.67,12.937 11.657,12.966 11.638,12.991C11.619,13.017 11.596,13.038 11.568,13.055C11.541,13.071 11.511,13.082 11.479,13.087C11.447,13.092 11.415,13.091 11.384,13.084ZM9.33,12.838C9.068,12.835 8.802,12.844 8.541,12.864C8.476,12.869 8.413,12.848 8.364,12.807C8.315,12.766 8.284,12.707 8.279,12.643C8.274,12.58 8.295,12.517 8.337,12.469C8.379,12.42 8.439,12.39 8.503,12.386C8.779,12.365 9.058,12.355 9.334,12.357C9.399,12.358 9.46,12.384 9.506,12.429C9.551,12.475 9.576,12.536 9.575,12.6C9.575,12.663 9.549,12.724 9.503,12.768C9.457,12.813 9.395,12.838 9.33,12.838ZM7.272,13.048C7.016,13.103 6.759,13.17 6.508,13.246C6.478,13.255 6.445,13.259 6.413,13.256C6.382,13.253 6.351,13.244 6.322,13.229C6.294,13.214 6.269,13.194 6.248,13.17C6.228,13.146 6.212,13.118 6.203,13.088C6.194,13.058 6.19,13.026 6.193,12.995C6.196,12.963 6.205,12.933 6.22,12.905C6.235,12.877 6.256,12.852 6.28,12.832C6.305,12.812 6.334,12.797 6.364,12.787C6.628,12.707 6.899,12.637 7.168,12.579C7.199,12.572 7.231,12.572 7.263,12.577C7.294,12.583 7.325,12.594 7.352,12.611C7.378,12.628 7.402,12.65 7.42,12.676C7.438,12.702 7.451,12.731 7.458,12.762C7.465,12.793 7.466,12.825 7.46,12.856C7.454,12.887 7.442,12.917 7.425,12.943C7.408,12.97 7.385,12.993 7.359,13.011C7.333,13.029 7.303,13.041 7.272,13.048ZM5.312,13.702C5.075,13.811 4.839,13.932 4.612,14.061C4.556,14.093 4.489,14.101 4.427,14.085C4.365,14.068 4.311,14.028 4.279,13.973C4.247,13.918 4.238,13.852 4.255,13.791C4.272,13.729 4.312,13.677 4.368,13.645C4.607,13.509 4.855,13.382 5.105,13.267C5.164,13.24 5.231,13.237 5.292,13.259C5.352,13.28 5.402,13.325 5.429,13.382C5.457,13.44 5.46,13.506 5.438,13.566C5.416,13.626 5.371,13.675 5.312,13.702ZM-0.182,20.785C-0.214,20.781 -0.244,20.77 -0.271,20.754C-0.299,20.737 -0.323,20.716 -0.342,20.69C-0.361,20.665 -0.374,20.636 -0.382,20.606C-0.39,20.575 -0.391,20.543 -0.387,20.512C-0.345,20.244 -0.292,19.973 -0.227,19.709C-0.212,19.647 -0.173,19.593 -0.117,19.56C-0.062,19.527 0.004,19.516 0.067,19.531C0.13,19.546 0.184,19.585 0.218,19.639C0.251,19.694 0.262,19.759 0.247,19.821C0.185,20.072 0.135,20.329 0.096,20.584C0.091,20.615 0.08,20.645 0.063,20.672C0.047,20.699 0.025,20.722 -0.001,20.741C-0.027,20.76 -0.056,20.773 -0.087,20.781C-0.118,20.789 -0.15,20.79 -0.182,20.785ZM3.549,14.766C3.343,14.925 3.141,15.094 2.949,15.27C2.901,15.313 2.838,15.336 2.774,15.334C2.709,15.331 2.648,15.304 2.604,15.257C2.56,15.211 2.537,15.149 2.539,15.085C2.542,15.021 2.569,14.961 2.617,14.918C2.819,14.733 3.032,14.555 3.249,14.388C3.275,14.368 3.304,14.354 3.334,14.345C3.365,14.337 3.398,14.335 3.429,14.338C3.461,14.342 3.492,14.352 3.52,14.368C3.548,14.383 3.572,14.404 3.592,14.429C3.612,14.454 3.626,14.482 3.635,14.513C3.643,14.543 3.645,14.575 3.642,14.606C3.638,14.637 3.627,14.668 3.612,14.695C3.596,14.723 3.575,14.747 3.549,14.766ZM0.317,18.752C0.257,18.728 0.208,18.683 0.183,18.624C0.157,18.566 0.156,18.5 0.179,18.44C0.281,18.188 0.394,17.936 0.517,17.693C0.531,17.664 0.551,17.639 0.575,17.618C0.599,17.598 0.627,17.582 0.658,17.572C0.688,17.562 0.72,17.558 0.752,17.56C0.784,17.562 0.815,17.57 0.844,17.584C0.872,17.598 0.898,17.618 0.919,17.641C0.94,17.665 0.956,17.693 0.966,17.723C0.977,17.752 0.981,17.784 0.979,17.815C0.976,17.847 0.968,17.878 0.954,17.906C0.837,18.137 0.729,18.377 0.633,18.617C0.609,18.676 0.563,18.723 0.503,18.749C0.444,18.774 0.377,18.775 0.317,18.752ZM2.073,16.191C1.907,16.391 1.749,16.601 1.601,16.815C1.565,16.867 1.509,16.903 1.446,16.915C1.383,16.928 1.318,16.915 1.265,16.88C1.211,16.845 1.174,16.79 1.161,16.729C1.148,16.667 1.16,16.602 1.195,16.549C1.196,16.548 1.197,16.546 1.198,16.545C1.353,16.32 1.52,16.099 1.694,15.889C1.734,15.841 1.79,15.81 1.852,15.802C1.914,15.794 1.976,15.81 2.027,15.846C2.077,15.882 2.112,15.936 2.123,15.996C2.134,16.057 2.122,16.119 2.088,16.17C2.083,16.178 2.078,16.185 2.073,16.191Z" fill="#91B3FA"/>
<path d="M-0.042,22.361C-0.015,22.32 -0.001,22.272 -0.003,22.223C-0.007,22.099 -0.008,21.974 -0.007,21.849C-0.007,21.818 -0.013,21.786 -0.025,21.757C-0.037,21.728 -0.055,21.701 -0.077,21.679C-0.099,21.656 -0.126,21.638 -0.156,21.626C-0.185,21.614 -0.217,21.607 -0.249,21.607C-0.281,21.607 -0.312,21.612 -0.342,21.624C-0.372,21.636 -0.399,21.654 -0.422,21.676C-0.445,21.698 -0.463,21.724 -0.475,21.753C-0.488,21.782 -0.494,21.813 -0.495,21.845C-0.496,21.976 -0.494,22.108 -0.49,22.238C-0.489,22.289 -0.471,22.338 -0.439,22.379C-0.406,22.419 -0.362,22.448 -0.312,22.462C-0.262,22.476 -0.209,22.473 -0.16,22.455C-0.112,22.437 -0.07,22.404 -0.042,22.361Z" fill="#91B3FA"/>
</g>
<g opacity="0.3">
<path d="M3.073,29.005C3.105,28.957 3.118,28.9 3.11,28.843C3.103,28.787 3.075,28.735 3.032,28.696C2.939,28.613 2.846,28.527 2.756,28.44C2.71,28.395 2.647,28.37 2.583,28.371C2.518,28.372 2.456,28.397 2.411,28.443C2.366,28.488 2.341,28.55 2.341,28.613C2.342,28.677 2.368,28.738 2.414,28.782C2.509,28.874 2.607,28.965 2.705,29.052C2.731,29.076 2.762,29.093 2.796,29.103C2.83,29.114 2.865,29.117 2.9,29.112C2.935,29.108 2.969,29.096 2.999,29.077C3.029,29.059 3.054,29.034 3.073,29.005Z" fill="#91B3FA"/>
<path d="M17.131,27.567C17.112,27.593 17.088,27.615 17.061,27.631C17.034,27.648 17.003,27.659 16.972,27.664C16.94,27.669 16.908,27.668 16.877,27.661C16.845,27.653 16.816,27.64 16.79,27.622C16.764,27.603 16.742,27.58 16.725,27.553C16.708,27.526 16.697,27.496 16.692,27.465C16.687,27.434 16.688,27.402 16.696,27.371C16.703,27.341 16.716,27.312 16.735,27.286C16.885,27.082 17.029,26.867 17.163,26.648C17.18,26.621 17.202,26.597 17.228,26.578C17.253,26.56 17.283,26.546 17.314,26.538C17.345,26.531 17.377,26.529 17.409,26.534C17.44,26.539 17.471,26.55 17.498,26.566C17.526,26.582 17.549,26.604 17.568,26.629C17.587,26.654 17.601,26.683 17.609,26.714C17.617,26.744 17.618,26.776 17.613,26.807C17.609,26.839 17.598,26.868 17.581,26.895C17.523,26.991 17.463,27.085 17.402,27.177C17.315,27.309 17.223,27.441 17.131,27.567ZM17.868,25.857C17.809,25.832 17.762,25.785 17.738,25.726C17.714,25.667 17.715,25.601 17.741,25.542C17.843,25.308 17.936,25.068 18.018,24.827C18.028,24.797 18.044,24.77 18.065,24.746C18.086,24.722 18.112,24.703 18.14,24.689C18.169,24.675 18.2,24.666 18.232,24.664C18.264,24.662 18.296,24.666 18.327,24.676C18.357,24.686 18.385,24.702 18.409,24.722C18.433,24.743 18.453,24.768 18.467,24.796C18.482,24.825 18.49,24.855 18.492,24.887C18.495,24.918 18.491,24.95 18.48,24.98C18.394,25.233 18.296,25.486 18.188,25.732C18.176,25.761 18.157,25.787 18.134,25.809C18.111,25.831 18.084,25.849 18.055,25.86C18.025,25.872 17.993,25.878 17.961,25.877C17.929,25.877 17.897,25.87 17.868,25.857ZM16.281,28.573C16.094,28.766 15.896,28.954 15.692,29.131C15.643,29.173 15.58,29.195 15.515,29.191C15.451,29.187 15.39,29.158 15.348,29.11C15.305,29.063 15.283,29 15.287,28.937C15.291,28.873 15.32,28.814 15.369,28.771C15.562,28.603 15.751,28.425 15.928,28.241C15.973,28.195 16.035,28.169 16.099,28.167C16.164,28.166 16.226,28.189 16.273,28.233C16.32,28.277 16.347,28.338 16.348,28.401C16.35,28.465 16.326,28.527 16.281,28.573ZM18.53,23.905C18.499,23.899 18.469,23.887 18.442,23.87C18.415,23.853 18.392,23.831 18.374,23.805C18.356,23.779 18.343,23.749 18.337,23.718C18.33,23.688 18.33,23.656 18.336,23.625C18.383,23.375 18.421,23.12 18.447,22.868C18.453,22.804 18.485,22.746 18.535,22.706C18.585,22.666 18.649,22.647 18.714,22.653C18.778,22.66 18.837,22.691 18.878,22.74C18.919,22.789 18.938,22.853 18.932,22.916C18.904,23.182 18.865,23.45 18.815,23.713C18.809,23.744 18.797,23.774 18.779,23.8C18.762,23.827 18.739,23.849 18.713,23.867C18.686,23.885 18.657,23.898 18.625,23.904C18.594,23.91 18.562,23.911 18.53,23.905ZM14.639,29.927C14.413,30.075 14.178,30.215 13.94,30.344C13.912,30.36 13.881,30.369 13.849,30.373C13.817,30.376 13.785,30.373 13.754,30.364C13.723,30.356 13.695,30.341 13.67,30.321C13.645,30.302 13.624,30.277 13.609,30.25C13.593,30.222 13.583,30.192 13.58,30.16C13.576,30.129 13.579,30.097 13.588,30.067C13.597,30.037 13.612,30.008 13.632,29.984C13.652,29.959 13.677,29.939 13.705,29.924C13.931,29.801 14.155,29.668 14.369,29.528C14.396,29.51 14.426,29.498 14.457,29.492C14.489,29.486 14.521,29.486 14.552,29.492C14.584,29.498 14.614,29.511 14.64,29.528C14.667,29.546 14.69,29.568 14.707,29.595C14.725,29.621 14.737,29.65 14.743,29.681C14.75,29.712 14.75,29.744 14.743,29.775C14.737,29.806 14.724,29.835 14.707,29.861C14.689,29.887 14.666,29.91 14.639,29.927ZM12.735,30.895C12.481,30.99 12.221,31.077 11.96,31.151C11.929,31.16 11.897,31.163 11.865,31.16C11.834,31.156 11.803,31.146 11.775,31.131C11.747,31.116 11.722,31.096 11.702,31.071C11.682,31.046 11.667,31.018 11.658,30.988C11.649,30.958 11.646,30.926 11.65,30.895C11.653,30.863 11.663,30.833 11.678,30.805C11.694,30.778 11.715,30.753 11.74,30.733C11.765,30.714 11.793,30.699 11.824,30.69C12.072,30.619 12.319,30.537 12.561,30.446C12.59,30.435 12.622,30.43 12.654,30.431C12.686,30.431 12.718,30.438 12.747,30.451C12.776,30.464 12.803,30.482 12.825,30.505C12.847,30.528 12.864,30.555 12.875,30.585C12.887,30.614 12.892,30.645 12.892,30.677C12.891,30.708 12.884,30.739 12.87,30.768C12.857,30.797 12.839,30.823 12.816,30.845C12.792,30.866 12.765,30.883 12.735,30.895ZM10.662,31.43C10.393,31.469 10.12,31.498 9.849,31.515C9.817,31.517 9.785,31.512 9.755,31.502C9.724,31.492 9.696,31.476 9.672,31.455C9.648,31.434 9.629,31.409 9.615,31.381C9.601,31.353 9.592,31.322 9.59,31.29C9.588,31.259 9.593,31.227 9.603,31.198C9.613,31.168 9.629,31.14 9.651,31.117C9.672,31.093 9.697,31.074 9.726,31.06C9.755,31.046 9.786,31.038 9.818,31.036C10.075,31.02 10.335,30.993 10.591,30.955C10.655,30.946 10.72,30.962 10.772,31C10.824,31.038 10.858,31.095 10.868,31.158C10.877,31.221 10.861,31.285 10.822,31.336C10.784,31.387 10.726,31.421 10.662,31.43ZM8.52,31.508C8.249,31.488 7.976,31.457 7.707,31.415C7.676,31.41 7.645,31.399 7.618,31.382C7.591,31.366 7.567,31.344 7.548,31.319C7.53,31.293 7.516,31.264 7.509,31.234C7.501,31.203 7.5,31.171 7.505,31.14C7.51,31.109 7.521,31.079 7.538,31.052C7.555,31.025 7.577,31.002 7.603,30.983C7.629,30.965 7.658,30.952 7.689,30.944C7.72,30.937 7.753,30.936 7.784,30.941C8.039,30.981 8.298,31.011 8.556,31.029C8.588,31.032 8.619,31.04 8.648,31.054C8.676,31.068 8.702,31.088 8.723,31.112C8.744,31.136 8.76,31.163 8.77,31.193C8.78,31.223 8.784,31.255 8.781,31.286C8.779,31.318 8.77,31.348 8.756,31.377C8.741,31.405 8.722,31.43 8.697,31.45C8.673,31.471 8.645,31.487 8.615,31.496C8.584,31.506 8.552,31.51 8.52,31.508ZM6.412,31.12C6.153,31.042 5.893,30.952 5.641,30.853C5.581,30.829 5.533,30.783 5.507,30.725C5.482,30.666 5.481,30.6 5.505,30.541C5.529,30.482 5.576,30.435 5.635,30.41C5.694,30.384 5.761,30.384 5.822,30.407C6.061,30.502 6.308,30.587 6.554,30.661C6.585,30.67 6.613,30.685 6.638,30.705C6.663,30.725 6.683,30.75 6.698,30.778C6.713,30.805 6.723,30.836 6.726,30.867C6.729,30.899 6.726,30.93 6.716,30.96C6.707,30.991 6.692,31.019 6.671,31.043C6.651,31.067 6.626,31.087 6.598,31.102C6.569,31.117 6.538,31.126 6.507,31.129C6.475,31.132 6.443,31.129 6.412,31.12ZM4.444,30.287C4.27,30.19 4.097,30.086 3.93,29.979C3.869,29.94 3.809,29.901 3.75,29.861C3.723,29.844 3.7,29.821 3.682,29.795C3.664,29.769 3.652,29.739 3.646,29.708C3.64,29.677 3.641,29.645 3.647,29.614C3.654,29.583 3.667,29.554 3.685,29.528C3.703,29.502 3.727,29.479 3.753,29.462C3.78,29.445 3.81,29.433 3.841,29.427C3.873,29.421 3.905,29.422 3.937,29.428C3.968,29.434 3.998,29.447 4.024,29.465C4.081,29.502 4.138,29.54 4.195,29.577C4.354,29.679 4.519,29.777 4.684,29.869C4.712,29.885 4.736,29.905 4.756,29.93C4.776,29.955 4.79,29.983 4.799,30.014C4.807,30.044 4.81,30.076 4.806,30.107C4.802,30.138 4.792,30.169 4.776,30.196C4.773,30.2 4.771,30.205 4.768,30.209C4.734,30.26 4.682,30.297 4.622,30.311C4.561,30.326 4.498,30.317 4.444,30.287Z" fill="#91B3FA"/>
<path d="M18.935,21.742C18.962,21.7 18.976,21.652 18.974,21.602C18.969,21.472 18.962,21.34 18.951,21.209C18.949,21.178 18.94,21.147 18.926,21.119C18.911,21.091 18.891,21.066 18.867,21.045C18.843,21.025 18.814,21.009 18.784,21C18.754,20.99 18.721,20.986 18.69,20.988C18.658,20.991 18.626,21 18.598,21.014C18.569,21.028 18.544,21.048 18.523,21.072C18.502,21.096 18.487,21.123 18.477,21.153C18.467,21.183 18.463,21.215 18.465,21.246C18.475,21.371 18.482,21.496 18.487,21.62C18.489,21.671 18.507,21.72 18.539,21.76C18.572,21.8 18.616,21.829 18.666,21.842C18.716,21.856 18.769,21.853 18.817,21.835C18.866,21.817 18.907,21.784 18.935,21.742Z" fill="#91B3FA"/>
</g>
<path d="M15.878,18.937C15.87,18.914 15.856,18.895 15.837,18.881C15.818,18.867 15.795,18.859 15.772,18.859L14.385,18.829C14.048,18.274 13.621,17.777 13.121,17.358L13.319,16.007C13.322,15.984 13.318,15.961 13.307,15.94C13.296,15.919 13.279,15.902 13.258,15.892L11.779,15.142C11.758,15.132 11.734,15.128 11.711,15.131C11.687,15.134 11.665,15.145 11.648,15.161L10.647,16.104C10.01,15.947 9.351,15.894 8.697,15.946L7.866,14.853C7.852,14.834 7.832,14.82 7.81,14.813C7.787,14.806 7.763,14.806 7.74,14.813L6.156,15.313C6.134,15.32 6.114,15.334 6.1,15.352C6.085,15.371 6.078,15.394 6.077,15.417L6.047,16.782C5.483,17.114 4.979,17.535 4.553,18.027L3.181,17.832C3.158,17.829 3.134,17.833 3.113,17.844C3.092,17.854 3.075,17.871 3.064,17.892L2.303,19.348C2.292,19.369 2.288,19.392 2.291,19.416C2.295,19.439 2.305,19.46 2.322,19.477L3.28,20.463C3.12,21.09 3.066,21.739 3.119,22.383L2.008,23.201C1.989,23.215 1.975,23.234 1.968,23.257C1.961,23.279 1.961,23.303 1.968,23.325L2.476,24.885C2.483,24.907 2.497,24.926 2.516,24.94C2.535,24.954 2.558,24.962 2.582,24.963L3.968,24.993C4.305,25.547 4.733,26.044 5.232,26.463L5.035,27.814C5.031,27.837 5.035,27.86 5.046,27.881C5.057,27.902 5.074,27.919 5.095,27.93L6.574,28.679C6.595,28.69 6.619,28.694 6.643,28.69C6.666,28.687 6.688,28.676 6.705,28.66L7.706,27.717C8.343,27.874 9.002,27.927 9.657,27.875L10.487,28.969C10.501,28.987 10.521,29.001 10.544,29.008C10.566,29.015 10.591,29.015 10.613,29.008L12.197,28.509C12.22,28.501 12.239,28.488 12.254,28.469C12.268,28.45 12.276,28.428 12.276,28.404L12.307,27.039C12.87,26.707 13.375,26.286 13.8,25.794L15.172,25.989C15.195,25.992 15.219,25.988 15.24,25.978C15.261,25.967 15.279,25.95 15.29,25.929L16.051,24.473C16.061,24.452 16.065,24.429 16.062,24.406C16.059,24.383 16.048,24.361 16.032,24.344L15.074,23.358C15.233,22.731 15.287,22.082 15.234,21.438L16.345,20.62C16.364,20.606 16.378,20.587 16.385,20.565C16.392,20.542 16.392,20.518 16.385,20.496L15.878,18.937Z" fill="#91B3FA"/>
<path d="M10.431,22.999C10.144,23.319 9.744,23.516 9.313,23.55C8.881,23.585 8.454,23.453 8.119,23.183C7.784,22.913 7.569,22.526 7.519,22.103C7.468,21.68 7.586,21.254 7.847,20.915C8.109,20.576 8.494,20.35 8.921,20.285C9.349,20.219 9.785,20.32 10.139,20.565C10.493,20.81 10.736,21.18 10.819,21.598C10.901,22.016 10.815,22.45 10.579,22.807C10.535,22.874 10.485,22.939 10.431,22.999ZM7.897,21.99C7.916,22.281 8.037,22.557 8.239,22.771C8.441,22.985 8.712,23.123 9.006,23.162C9.3,23.2 9.598,23.138 9.851,22.984C10.103,22.831 10.293,22.596 10.389,22.319C10.485,22.043 10.481,21.743 10.378,21.469C10.274,21.196 10.077,20.966 9.82,20.819C9.564,20.673 9.264,20.618 8.971,20.665C8.678,20.712 8.411,20.857 8.215,21.076C8.173,21.123 8.135,21.173 8.1,21.225C7.95,21.452 7.879,21.72 7.897,21.99Z" fill="#BDD0FB"/>
<path d="M12.585,24.131C12.662,24.014 12.733,23.894 12.797,23.771C12.818,23.732 12.838,23.692 12.857,23.653C12.951,23.457 13.029,23.254 13.091,23.047C13.092,23.044 13.093,23.041 13.094,23.038C13.096,23.03 13.098,23.022 13.1,23.014C13.105,22.999 13.109,22.983 13.114,22.967C13.117,22.955 13.118,22.942 13.116,22.93C13.115,22.917 13.11,22.905 13.104,22.894C13.098,22.883 13.089,22.874 13.079,22.866C13.069,22.858 13.057,22.853 13.045,22.849C13.032,22.846 13.02,22.845 13.007,22.847C12.994,22.849 12.982,22.853 12.971,22.859C12.96,22.865 12.95,22.874 12.942,22.884C12.934,22.894 12.929,22.905 12.925,22.917C12.717,23.679 12.277,24.359 11.664,24.867C11.051,25.375 10.294,25.686 9.496,25.757C8.756,25.825 8.011,25.683 7.35,25.347C7.231,25.286 7.114,25.22 7.002,25.148C6.511,24.832 6.098,24.412 5.794,23.919C5.49,23.425 5.303,22.871 5.246,22.296C5.188,21.722 5.263,21.142 5.463,20.6C5.664,20.058 5.985,19.567 6.404,19.163C6.823,18.759 7.329,18.453 7.884,18.268C8.439,18.082 9.029,18.022 9.611,18.091C10.193,18.16 10.752,18.357 11.247,18.667C11.741,18.977 12.158,19.392 12.468,19.882C12.475,19.893 12.484,19.902 12.494,19.909C12.504,19.917 12.516,19.922 12.529,19.925C12.541,19.928 12.554,19.928 12.567,19.926C12.579,19.924 12.592,19.92 12.602,19.913C12.613,19.906 12.623,19.898 12.63,19.887C12.638,19.877 12.643,19.865 12.646,19.853C12.649,19.841 12.649,19.828 12.647,19.816C12.645,19.803 12.641,19.791 12.634,19.781C12.241,19.159 11.684,18.654 11.023,18.319C9.008,17.298 6.524,18.082 5.487,20.066C5.022,20.957 4.908,21.985 5.168,22.954C5.428,23.922 6.043,24.761 6.895,25.309C7.013,25.384 7.135,25.454 7.261,25.518C8.165,25.976 9.21,26.088 10.194,25.832C11.177,25.575 12.029,24.969 12.585,24.131Z" fill="#BDD0FB"/>
<g opacity="0.3">
<path d="M25.35,11.397C25.368,11.37 25.376,11.338 25.374,11.306C25.372,11.274 25.359,11.244 25.338,11.219C25.255,11.124 25.168,11.029 25.079,10.939C25.065,10.925 25.048,10.914 25.03,10.906C25.012,10.898 24.993,10.894 24.973,10.894C24.953,10.894 24.934,10.897 24.915,10.904C24.897,10.911 24.88,10.922 24.866,10.936C24.852,10.949 24.84,10.965 24.832,10.983C24.824,11.001 24.82,11.02 24.82,11.04C24.82,11.059 24.823,11.078 24.83,11.097C24.838,11.115 24.849,11.131 24.862,11.145C24.947,11.231 25.03,11.321 25.11,11.412C25.136,11.442 25.173,11.461 25.212,11.464C25.252,11.467 25.292,11.454 25.322,11.428C25.333,11.419 25.342,11.408 25.35,11.397Z" fill="#91B3FA"/>
<path d="M24.51,10.615C24.484,10.646 24.448,10.665 24.408,10.67C24.369,10.674 24.329,10.662 24.298,10.638C24.134,10.508 23.963,10.386 23.786,10.273C23.749,10.249 23.712,10.226 23.674,10.202C23.64,10.182 23.616,10.149 23.607,10.11C23.598,10.072 23.604,10.032 23.625,9.998C23.647,9.966 23.681,9.943 23.719,9.934C23.758,9.925 23.798,9.931 23.833,9.951C23.872,9.975 23.912,9.999 23.95,10.024C24.136,10.143 24.315,10.27 24.487,10.407C24.516,10.43 24.535,10.463 24.541,10.499C24.547,10.535 24.539,10.572 24.519,10.603C24.516,10.607 24.513,10.611 24.51,10.615ZM23.001,9.845C22.769,9.74 22.531,9.648 22.289,9.572C22.251,9.56 22.219,9.533 22.201,9.498C22.182,9.463 22.179,9.423 22.191,9.385C22.203,9.348 22.23,9.317 22.266,9.299C22.301,9.281 22.343,9.277 22.381,9.289C22.635,9.37 22.884,9.466 23.127,9.576C23.163,9.593 23.191,9.623 23.205,9.66C23.219,9.697 23.217,9.737 23.201,9.773C23.198,9.779 23.194,9.786 23.19,9.792C23.17,9.821 23.14,9.843 23.106,9.853C23.071,9.863 23.034,9.86 23.001,9.845ZM21.547,9.387C21.297,9.341 21.043,9.309 20.788,9.294C20.749,9.292 20.711,9.274 20.685,9.244C20.659,9.215 20.645,9.176 20.648,9.137C20.65,9.098 20.668,9.061 20.698,9.035C20.728,9.009 20.767,8.996 20.807,8.998C21.074,9.014 21.34,9.047 21.603,9.095C21.642,9.103 21.677,9.125 21.699,9.157C21.722,9.19 21.73,9.23 21.723,9.268C21.716,9.307 21.693,9.341 21.66,9.363C21.627,9.386 21.587,9.394 21.547,9.387ZM20.024,9.294C19.769,9.31 19.516,9.341 19.265,9.387C19.226,9.394 19.186,9.386 19.153,9.363C19.12,9.341 19.097,9.307 19.09,9.268C19.082,9.23 19.091,9.19 19.113,9.158C19.136,9.125 19.171,9.103 19.21,9.095C19.473,9.047 19.738,9.015 20.005,8.998C20.045,8.996 20.084,9.009 20.114,9.035C20.144,9.061 20.162,9.098 20.165,9.137C20.167,9.176 20.154,9.215 20.127,9.244C20.101,9.274 20.064,9.292 20.024,9.294ZM18.524,9.57C18.281,9.646 18.042,9.737 17.811,9.842C17.793,9.85 17.773,9.854 17.753,9.855C17.734,9.856 17.714,9.853 17.695,9.846C17.677,9.839 17.66,9.829 17.645,9.816C17.631,9.802 17.619,9.787 17.611,9.769C17.603,9.751 17.598,9.732 17.597,9.712C17.597,9.693 17.6,9.674 17.607,9.655C17.614,9.637 17.624,9.62 17.637,9.606C17.651,9.592 17.667,9.58 17.685,9.572C17.928,9.463 18.178,9.368 18.432,9.288C18.471,9.276 18.512,9.279 18.547,9.297C18.583,9.315 18.609,9.347 18.622,9.384C18.634,9.422 18.63,9.462 18.612,9.497C18.593,9.532 18.562,9.558 18.524,9.57ZM17.137,10.197C16.92,10.329 16.712,10.474 16.513,10.631C16.482,10.655 16.442,10.667 16.403,10.663C16.363,10.658 16.327,10.639 16.302,10.608C16.277,10.578 16.265,10.538 16.269,10.499C16.274,10.46 16.294,10.424 16.325,10.4C16.533,10.235 16.751,10.083 16.979,9.945C17.013,9.924 17.054,9.917 17.093,9.926C17.131,9.935 17.165,9.959 17.186,9.993C17.207,10.026 17.214,10.067 17.204,10.105C17.195,10.143 17.171,10.176 17.137,10.197ZM15.949,11.138C15.771,11.318 15.605,11.509 15.452,11.71C15.428,11.741 15.392,11.762 15.352,11.767C15.313,11.773 15.273,11.762 15.241,11.739C15.209,11.715 15.188,11.68 15.182,11.641C15.177,11.602 15.187,11.563 15.211,11.531C15.372,11.321 15.546,11.121 15.732,10.932C15.76,10.903 15.798,10.887 15.838,10.886C15.878,10.886 15.916,10.901 15.945,10.928C15.974,10.956 15.99,10.993 15.991,11.032C15.992,11.072 15.976,11.11 15.949,11.138ZM14.492,13.091C14.474,13.083 14.457,13.072 14.444,13.058C14.43,13.044 14.419,13.028 14.411,13.01C14.404,12.992 14.4,12.972 14.4,12.953C14.4,12.934 14.404,12.914 14.412,12.896C14.503,12.686 14.605,12.48 14.718,12.28C14.735,12.25 14.752,12.22 14.77,12.19C14.79,12.156 14.822,12.131 14.861,12.121C14.9,12.111 14.941,12.116 14.975,12.136C15.01,12.155 15.035,12.188 15.045,12.226C15.056,12.264 15.05,12.304 15.03,12.338C15.014,12.366 14.997,12.395 14.981,12.424C14.873,12.615 14.776,12.811 14.689,13.012C14.686,13.02 14.682,13.028 14.677,13.035C14.658,13.064 14.629,13.086 14.595,13.096C14.561,13.106 14.525,13.104 14.492,13.091Z" fill="#91B3FA"/>
</g>
<path d="M24.841,13.376C24.837,13.361 24.827,13.348 24.814,13.339C24.802,13.33 24.786,13.324 24.771,13.324L23.843,13.304C23.617,12.933 23.331,12.6 22.997,12.32L23.129,11.416C23.131,11.401 23.129,11.385 23.121,11.371C23.114,11.357 23.103,11.346 23.089,11.339L22.099,10.837C22.085,10.83 22.069,10.827 22.053,10.83C22.037,10.832 22.023,10.839 22.011,10.85L21.341,11.481C20.915,11.376 20.474,11.34 20.036,11.375L19.481,10.643C19.471,10.631 19.458,10.622 19.443,10.617C19.428,10.612 19.411,10.612 19.396,10.617L18.336,10.951C18.321,10.956 18.308,10.965 18.299,10.978C18.289,10.99 18.284,11.005 18.283,11.021L18.263,11.934C17.886,12.157 17.548,12.438 17.263,12.768L16.346,12.637C16.33,12.635 16.314,12.638 16.3,12.645C16.286,12.652 16.274,12.663 16.267,12.677L15.758,13.652C15.75,13.665 15.748,13.681 15.75,13.697C15.752,13.712 15.759,13.727 15.77,13.738L16.412,14.397C16.305,14.817 16.269,15.251 16.304,15.683L15.561,16.23C15.548,16.239 15.539,16.252 15.534,16.267C15.529,16.282 15.529,16.298 15.534,16.313L15.874,17.356C15.878,17.371 15.888,17.384 15.901,17.394C15.913,17.403 15.929,17.408 15.944,17.408L16.872,17.429C17.098,17.8 17.384,18.132 17.718,18.413L17.586,19.316C17.584,19.332 17.586,19.348 17.594,19.362C17.601,19.375 17.612,19.387 17.626,19.394L18.616,19.895C18.63,19.903 18.646,19.905 18.662,19.903C18.678,19.901 18.692,19.894 18.704,19.883L19.374,19.252C19.8,19.356 20.241,19.392 20.679,19.358L21.234,20.089C21.244,20.102 21.257,20.111 21.272,20.116C21.287,20.12 21.304,20.12 21.319,20.116L22.379,19.781C22.394,19.777 22.407,19.767 22.416,19.755C22.426,19.742 22.431,19.727 22.432,19.711L22.452,18.798C22.829,18.576 23.167,18.294 23.452,17.965L24.369,18.095C24.385,18.098 24.401,18.095 24.415,18.088C24.429,18.081 24.441,18.069 24.448,18.055L24.957,17.081C24.965,17.067 24.967,17.051 24.965,17.036C24.963,17.02 24.956,17.006 24.945,16.995L24.303,16.335C24.41,15.915 24.446,15.481 24.411,15.05L25.154,14.503C25.167,14.493 25.176,14.48 25.181,14.466C25.186,14.451 25.186,14.435 25.181,14.42L24.841,13.376Z" fill="#91B3FA"/>
<path d="M21.212,16.108C21.017,16.324 20.745,16.458 20.452,16.482C20.159,16.505 19.869,16.415 19.642,16.232C19.414,16.049 19.268,15.786 19.234,15.498C19.2,15.211 19.28,14.922 19.457,14.692C19.635,14.461 19.896,14.308 20.187,14.263C20.477,14.219 20.773,14.287 21.014,14.453C21.254,14.619 21.42,14.871 21.476,15.154C21.532,15.438 21.474,15.733 21.314,15.975C21.283,16.022 21.249,16.066 21.212,16.108ZM19.803,15.985C19.886,16.057 19.982,16.112 20.086,16.147C20.19,16.182 20.3,16.196 20.41,16.19C20.52,16.183 20.627,16.155 20.726,16.107C20.825,16.059 20.913,15.993 20.986,15.912C21.133,15.748 21.207,15.533 21.193,15.315C21.179,15.096 21.078,14.892 20.911,14.748C20.745,14.603 20.527,14.53 20.305,14.543C20.083,14.557 19.876,14.657 19.729,14.821C19.702,14.851 19.677,14.883 19.655,14.917C19.546,15.083 19.501,15.282 19.528,15.478C19.555,15.674 19.653,15.854 19.803,15.985Z" fill="#BDD0FB"/>
<path d="M22.711,16.895C22.763,16.816 22.812,16.735 22.856,16.649C22.945,16.48 23.015,16.303 23.067,16.12C23.07,16.112 23.072,16.103 23.074,16.095C23.079,16.076 23.081,16.057 23.078,16.037C23.076,16.018 23.069,15.999 23.06,15.982C23.05,15.965 23.037,15.951 23.021,15.939C23.005,15.927 22.987,15.918 22.968,15.913C22.949,15.908 22.929,15.907 22.909,15.909C22.89,15.912 22.871,15.918 22.854,15.928C22.837,15.938 22.822,15.951 22.809,15.966C22.797,15.982 22.789,15.999 22.784,16.018C22.737,16.19 22.671,16.356 22.589,16.514L22.588,16.514C22.584,16.522 22.579,16.531 22.575,16.54C22.379,16.906 22.094,17.218 21.744,17.448C21.553,17.572 21.347,17.671 21.13,17.742L21.124,17.743C21.119,17.745 21.113,17.747 21.108,17.749C20.791,17.849 20.457,17.888 20.125,17.86C19.793,17.833 19.47,17.742 19.174,17.591C19.097,17.552 19.022,17.509 18.949,17.462C18.631,17.258 18.364,16.986 18.167,16.666C17.97,16.347 17.849,15.988 17.812,15.616C17.775,15.244 17.823,14.869 17.953,14.518C18.083,14.167 18.291,13.849 18.562,13.588C18.833,13.326 19.161,13.128 19.52,13.008C19.879,12.888 20.261,12.849 20.638,12.894C21.015,12.938 21.377,13.066 21.697,13.266C22.017,13.467 22.287,13.736 22.488,14.053C22.509,14.086 22.542,14.11 22.581,14.119C22.62,14.128 22.661,14.122 22.695,14.101C22.729,14.08 22.753,14.047 22.762,14.009C22.771,13.97 22.764,13.93 22.743,13.897C22.519,13.542 22.217,13.241 21.859,13.016C21.5,12.792 21.096,12.649 20.674,12.599C20.253,12.549 19.825,12.593 19.423,12.727C19.021,12.862 18.655,13.083 18.351,13.375C18.048,13.668 17.815,14.024 17.67,14.416C17.524,14.809 17.471,15.229 17.512,15.645C17.554,16.061 17.689,16.463 17.91,16.82C18.13,17.178 18.429,17.482 18.784,17.71C18.866,17.763 18.95,17.811 19.036,17.855C19.661,18.17 20.382,18.247 21.061,18.07C21.74,17.892 22.328,17.474 22.711,16.895Z" fill="#BDD0FB"/>
<path d="M55.843,26.959L51.464,31.369L56.716,29.987L55.843,26.959Z" fill="#91B3FA"/>
<path d="M81.895,28.784L57.017,29.973C56.865,29.98 56.714,29.957 56.572,29.905C56.43,29.853 56.3,29.773 56.19,29.67C56.08,29.567 55.993,29.443 55.933,29.306C55.874,29.169 55.843,29.021 55.843,28.872L55.843,18.794C55.843,18.267 56.051,17.761 56.424,17.383C56.796,17.004 57.303,16.784 57.838,16.767L80.26,16.084C80.657,16.084 81.05,16.161 81.417,16.311C81.784,16.461 82.117,16.68 82.398,16.956C82.679,17.233 82.901,17.561 83.053,17.922C83.205,18.283 83.283,18.67 83.283,19.061L83.283,27.349C83.283,27.718 83.139,28.073 82.881,28.34C82.622,28.607 82.269,28.766 81.895,28.784Z" fill="#91B3FA"/>
<g opacity="0.85">
<path d="M57.761,29.568C57.353,29.568 56.962,29.408 56.675,29.124C56.387,28.84 56.225,28.455 56.225,28.053L56.225,18.971C56.225,17.9 57.096,17.036 58.209,17.003L79.918,16.357C81.564,16.357 82.901,17.643 82.901,19.223L82.901,27.054C82.901,27.807 82.288,28.426 81.505,28.463L57.836,29.566C57.811,29.568 57.786,29.568 57.761,29.568ZM79.92,16.463L58.212,17.109C57.158,17.14 56.333,17.958 56.333,18.971L56.333,28.053C56.333,28.244 56.372,28.433 56.448,28.608C56.524,28.783 56.636,28.941 56.776,29.073C56.916,29.204 57.082,29.306 57.263,29.373C57.444,29.44 57.637,29.469 57.831,29.46L81.5,28.356C82.225,28.323 82.793,27.751 82.793,27.054L82.793,19.223C82.793,17.701 81.504,16.463 79.92,16.463Z" fill="#FFFFFF"/>
</g>
<path d="M79.848,18.301L59.955,19.034C59.759,19.041 59.605,19.168 59.612,19.318L59.619,19.49C59.626,19.638 59.787,19.751 59.98,19.744L79.874,19.029C80.069,19.022 80.223,18.895 80.217,18.745L80.209,18.555C80.202,18.407 80.041,18.294 79.848,18.301Z" fill="url(#pf_0_14_265)"/>
<path d="M80.888,20.855L70.639,21.145C70.539,21.147 70.464,21.291 70.473,21.465L70.483,21.665C70.492,21.837 70.579,21.973 70.678,21.971L80.928,21.702C81.029,21.699 81.104,21.556 81.095,21.382L81.084,21.161C81.075,20.989 80.987,20.852 80.888,20.855Z" fill="url(#pf_0_14_269)"/>
<path d="M78.067,23.26L58.174,23.989C57.979,23.996 57.825,24.128 57.832,24.283L57.84,24.461C57.846,24.614 58.008,24.732 58.201,24.725L78.095,24.014C78.29,24.007 78.444,23.875 78.438,23.72L78.429,23.524C78.422,23.37 78.261,23.252 78.067,23.26Z" fill="url(#pf_0_14_266)"/>
<path d="M80.391,25.334L58.215,26.158C57.997,26.166 57.825,26.3 57.832,26.457L57.84,26.637C57.847,26.791 58.026,26.91 58.241,26.902L80.419,26.096C80.637,26.088 80.809,25.954 80.802,25.798L80.793,25.599C80.787,25.444 80.607,25.326 80.391,25.334Z" fill="url(#pf_0_14_267)"/>
<path d="M68.941,21.224L58.098,21.536C57.992,21.539 57.912,21.682 57.921,21.856L57.931,22.056C57.939,22.228 58.031,22.364 58.137,22.362L68.98,22.071C69.087,22.068 69.167,21.924 69.158,21.75L69.147,21.53C69.138,21.358 69.046,21.221 68.941,21.224Z" fill="url(#pf_0_14_268)"/>
<path d="M18.068,84.368C18.068,84.368 17.863,85.511 17.762,86.643C17.753,86.748 17.766,86.854 17.799,86.954C17.833,87.054 17.887,87.146 17.958,87.225C18.028,87.304 18.115,87.368 18.211,87.413C18.308,87.458 18.413,87.483 18.52,87.488C20.05,87.55 23.323,87.672 24.498,87.621C24.539,87.619 24.579,87.607 24.614,87.587C24.65,87.567 24.68,87.539 24.702,87.505C24.724,87.471 24.738,87.432 24.742,87.392C24.746,87.351 24.74,87.311 24.725,87.273C24.67,87.138 24.564,87.028 24.43,86.967L19.023,84.52L18.068,84.368Z" fill="url(#pf_0_14_270)"/>
<path d="M17.9,83.697L18.065,85.064C18.065,85.064 19.012,85.498 19.659,85.009L19.266,83.486L17.9,83.697Z" fill="url(#pf_0_14_271)"/>
<path d="M18.024,57.992C17.952,58.349 17.642,75.81 19.537,83.634C19.553,83.696 19.545,83.761 19.516,83.818C19.487,83.874 19.438,83.919 19.379,83.943C18.886,84.131 18.364,84.236 17.835,84.252C17.732,84.256 17.631,84.225 17.548,84.166C17.464,84.106 17.403,84.021 17.374,83.924C16.832,82.108 14.236,73.012 13.897,64.323C13.519,54.614 13.897,63.993 13.897,63.993L14.119,57.991L18.024,57.992Z" fill="url(#pf_0_14_272)"/>
<path d="M10.521,58.528C8.971,67.74 10.857,81.297 11.494,83.95C11.512,84.03 11.555,84.102 11.615,84.158C11.675,84.214 11.751,84.251 11.833,84.265C12.117,84.311 12.584,84.349 13.045,84.217C13.123,84.195 13.191,84.149 13.241,84.086C13.291,84.024 13.319,83.947 13.322,83.868C13.408,81.723 13.254,68.553 14.699,63.348C14.772,63.085 14.935,62.854 15.162,62.696L17.965,60.734L18.18,57.561L10.521,58.528Z" fill="url(#pf_0_14_275)"/>
<path d="M20.4,41.072C15.754,40.996 10.627,42.273 10.627,42.273C9.242,50.23 10.385,59.407 10.385,59.407C13.982,60.336 18.039,58.839 18.039,58.839C18.637,55.513 21.426,46.154 21.426,46.154C23.696,45.877 25.566,45.232 27.106,44.379C25.932,43.039 25.378,41.333 25.137,40.324C23.495,40.827 21.832,41.095 20.4,41.072Z" fill="url(#pf_0_14_276)"/>
<path d="M11.848,84.965C11.848,84.965 11.521,85.542 11.205,87.075C11.191,87.14 11.192,87.208 11.206,87.273C11.221,87.338 11.249,87.399 11.289,87.453C11.329,87.507 11.38,87.552 11.439,87.585C11.498,87.618 11.563,87.638 11.63,87.645C12.136,87.694 12.914,87.757 13.537,87.752C13.604,87.752 13.671,87.738 13.733,87.71C13.795,87.683 13.85,87.643 13.895,87.593C13.94,87.543 13.974,87.484 13.994,87.421C14.015,87.357 14.021,87.29 14.013,87.223C13.944,86.664 13.729,85.745 13.065,85.03L11.848,84.965Z" fill="url(#pf_0_14_273)"/>
<path d="M11.561,83.206L11.946,85.274C11.946,85.274 12.327,85.553 13.08,85.35L12.896,83.126L11.561,83.206Z" fill="url(#pf_0_14_274)"/>
<path d="M34.123,34.334C33.666,33.791 33.089,34.048 33.089,34.048C32.405,36.892 28.82,39.197 25.137,40.324C25.378,41.333 25.932,43.039 27.106,44.379C33.218,40.995 34.123,34.334 34.123,34.334Z" fill="url(#pf_0_14_277)"/>
<path d="M34.012,34.472C34.06,34.621 33.507,34.849 33.181,34.238C33.17,33.945 32.989,32.689 33.167,32.451C34.114,31.179 35.95,29.586 35.95,29.586C36.26,29.887 36.005,30.183 36.005,30.183L35.114,31.097C35.3,31.429 35.527,31.708 35.634,32.109C35.712,32.415 35.667,32.739 35.509,33.014C35.353,33.291 35.14,33.652 34.938,33.934C34.556,34.468 34.012,34.472 34.012,34.472Z" fill="url(#pf_0_14_278)"/>
<path d="M34.724,31.69L33.912,32.367L33.658,33.042L34.381,33.832C34.381,33.832 34.625,32.494 34.806,32.204C34.986,31.915 34.893,31.775 34.724,31.69Z" fill="url(#pf_0_14_279)"/>
<path d="M12.409,46.703L10.627,42.273C10.627,42.273 6.288,45.176 5.574,48.857C6.394,48.917 7.886,49.127 9.347,49.853C9.667,48.115 12.409,46.703 12.409,46.703Z" fill="url(#pf_0_14_280)"/>
<path d="M16.202,50.871C16.202,50.871 11.329,53.582 9.685,51.267C9.344,50.786 9.262,50.308 9.347,49.853C7.886,49.127 6.394,48.917 5.574,48.857C5.359,49.967 5.473,51.147 6.135,52.34C9.015,57.527 16.846,52.054 16.846,52.054L16.202,50.871Z" fill="url(#pf_0_14_281)"/>
<path d="M15.616,54.301L18.275,45.157C18.29,45.107 18.319,45.061 18.36,45.027C18.401,44.993 18.451,44.971 18.504,44.965C18.986,44.91 20.382,44.755 21.994,44.62C23.935,44.459 26.19,44.328 27.537,44.439C27.582,44.443 27.624,44.457 27.662,44.48C27.699,44.503 27.73,44.536 27.752,44.574C27.774,44.612 27.786,44.654 27.787,44.698C27.789,44.742 27.779,44.785 27.76,44.824C26.993,46.35 23.842,52.559 22.264,54.592C22.238,54.626 22.205,54.653 22.167,54.671C22.129,54.689 22.087,54.699 22.044,54.698L15.875,54.642C15.833,54.642 15.792,54.632 15.754,54.613C15.717,54.594 15.685,54.567 15.66,54.534C15.635,54.501 15.618,54.463 15.61,54.423C15.603,54.382 15.605,54.34 15.616,54.301Z" fill="#91B3FA"/>
<path d="M20.826,45.435L20.985,44.62C20.993,44.58 21.013,44.544 21.044,44.517C21.074,44.489 21.113,44.472 21.153,44.468L25.047,44.079C25.078,44.076 25.108,44.08 25.137,44.091C25.165,44.102 25.191,44.12 25.211,44.143C25.231,44.165 25.245,44.192 25.252,44.222C25.26,44.251 25.26,44.281 25.253,44.31L25.005,45.325C24.995,45.365 24.973,45.4 24.941,45.426C24.909,45.452 24.87,45.468 24.829,45.47L21.024,45.658C20.995,45.66 20.966,45.655 20.939,45.643C20.912,45.632 20.889,45.615 20.87,45.594C20.851,45.572 20.837,45.547 20.829,45.519C20.822,45.492 20.821,45.463 20.826,45.435Z" fill="#BDD0FB"/>
<path d="M16.259,52.092C16.259,52.092 15.888,50.592 16.038,50.06C16.187,49.528 16.477,48.844 17.441,48.996C18.406,49.148 19.545,49.548 19.545,49.548C19.545,49.548 19.487,50.241 18.754,50.017L19.209,50.364C19.209,50.364 19.144,50.919 18.524,50.622L18.947,51.082C18.947,51.082 18.681,51.538 18.225,51.245C17.77,50.953 17.551,52.272 16.259,52.092Z" fill="url(#pf_0_14_285)"/>
<path d="M22.27,43.828L24.198,43.511C24.221,43.507 24.245,43.51 24.268,43.518C24.29,43.526 24.31,43.539 24.325,43.557C24.341,43.575 24.352,43.596 24.356,43.619C24.361,43.642 24.359,43.666 24.352,43.688L24.161,44.258C24.153,44.282 24.138,44.304 24.118,44.32C24.098,44.336 24.074,44.347 24.048,44.35L22.193,44.594C22.17,44.597 22.148,44.595 22.127,44.587C22.106,44.579 22.087,44.567 22.072,44.551C22.057,44.534 22.046,44.515 22.04,44.493C22.035,44.472 22.035,44.45 22.04,44.428L22.158,43.931C22.164,43.905 22.178,43.881 22.198,43.863C22.218,43.844 22.243,43.832 22.27,43.828Z" fill="#BDD0FB"/>
<path d="M15.694,37.358L14.215,41.568C14.203,41.601 14.204,41.638 14.217,41.671C14.229,41.705 14.254,41.733 14.285,41.75C14.688,41.97 16.14,42.604 17.89,41.511C17.98,41.456 18.057,41.381 18.115,41.293C18.172,41.205 18.21,41.105 18.224,41.001L18.702,37.358L15.694,37.358Z" fill="url(#pf_0_14_286)"/>
<path d="M18.91,33.46C18.91,33.46 20.533,36.469 20.325,37.684C20.117,38.9 18.105,38.812 16.349,37.825L15.121,34.577L18.91,33.46Z" fill="url(#pf_0_14_287)"/>
<path d="M16.426,36.23C16.443,36.223 16.458,36.212 16.47,36.198C16.482,36.185 16.491,36.169 16.496,36.152C16.502,36.134 16.503,36.116 16.5,36.098C16.498,36.081 16.491,36.063 16.481,36.048C16.351,35.853 16.107,35.454 16.03,35.104C16.03,35.104 15.738,34.92 16.772,34.676C17.807,34.433 19.35,34.054 19.674,33.187C19.99,32.342 19.159,30.216 17.834,31.91C17.822,31.925 17.807,31.937 17.79,31.946C17.773,31.954 17.754,31.959 17.735,31.959C17.715,31.959 17.696,31.955 17.679,31.946C17.662,31.938 17.646,31.926 17.635,31.911C17.417,31.633 16.846,31.055 16.053,31.405C15.311,31.733 15.227,32.268 15.238,32.538C15.238,32.557 15.235,32.575 15.227,32.592C15.22,32.609 15.209,32.624 15.194,32.637C15.18,32.649 15.163,32.658 15.145,32.662C15.127,32.667 15.108,32.668 15.089,32.664C14.714,32.594 13.814,32.533 13.393,33.443C13.047,34.192 13.272,34.616 13.477,34.823C13.492,34.839 13.503,34.858 13.509,34.878C13.514,34.899 13.515,34.92 13.509,34.941C13.504,34.962 13.493,34.981 13.478,34.996C13.463,35.011 13.444,35.023 13.423,35.029C13.177,35.103 12.858,35.309 12.89,35.878C12.934,36.664 13.827,36.595 14.081,36.559C14.102,36.556 14.123,36.558 14.142,36.565C14.162,36.572 14.179,36.583 14.193,36.598C14.411,36.836 15.393,37.844 16.456,37.966C16.478,37.968 16.499,37.965 16.519,37.957C16.539,37.949 16.556,37.936 16.569,37.919C16.582,37.903 16.591,37.883 16.595,37.862C16.599,37.842 16.597,37.82 16.59,37.801L16.13,36.484C16.119,36.454 16.121,36.422 16.133,36.393C16.146,36.365 16.169,36.342 16.198,36.329L16.426,36.23Z" fill="url(#pf_0_14_288)"/>
<path d="M16.611,36.417C16.611,36.417 15.455,35.636 15.371,36.293C15.286,36.951 16.412,37.246 16.969,37.001L16.611,36.417Z" fill="url(#pf_0_14_289)"/>
<defs>
<linearGradient id="pf_0_14_235" x1="154.177" y1="-59.66" x2="-10.226" y2="78.318" gradientUnits="userSpaceOnUse">
<stop stop-color="#E1473D"/>
<stop offset="1" stop-color="#E9605A"/>
</linearGradient>
<linearGradient id="pf_0_14_237" x1="0.7" y1="71.678" x2="143.42" y2="-77.134" gradientUnits="userSpaceOnUse">
<stop stop-color="#FF928E"/>
<stop offset="1" stop-color="#FE7062"/>
</linearGradient>
<linearGradient id="pf_0_14_236" x1="178.156" y1="-31.96" x2="13.752" y2="106.017" gradientUnits="userSpaceOnUse">
<stop stop-color="#E1473D"/>
<stop offset="1" stop-color="#E9605A"/>
</linearGradient>
<linearGradient id="pf_0_14_238" x1="58.736" y1="61.331" x2="26.378" y2="96.537" gradientUnits="userSpaceOnUse">
<stop stop-color="#FF928E"/>
<stop offset="1" stop-color="#FE7062"/>
</linearGradient>
<linearGradient id="pf_0_14_265" x1="59.612" y1="19.023" x2="80.217" y2="19.023" gradientUnits="userSpaceOnUse">
<stop stop-color="#DAE3FE"/>
<stop offset="1" stop-color="#E9EFFD"/>
</linearGradient>
<linearGradient id="pf_0_14_269" x1="70.472" y1="21.413" x2="81.095" y2="21.413" gradientUnits="userSpaceOnUse">
<stop stop-color="#DAE3FE"/>
<stop offset="1" stop-color="#E9EFFD"/>
</linearGradient>
<linearGradient id="pf_0_14_266" x1="57.832" y1="23.992" x2="78.438" y2="23.992" gradientUnits="userSpaceOnUse">
<stop stop-color="#DAE3FE"/>
<stop offset="1" stop-color="#E9EFFD"/>
</linearGradient>
<linearGradient id="pf_0_14_267" x1="57.832" y1="26.118" x2="80.802" y2="26.118" gradientUnits="userSpaceOnUse">
<stop stop-color="#DAE3FE"/>
<stop offset="1" stop-color="#E9EFFD"/>
</linearGradient>
<linearGradient id="pf_0_14_268" x1="57.92" y1="21.793" x2="69.159" y2="21.793" gradientUnits="userSpaceOnUse">
<stop stop-color="#DAE3FE"/>
<stop offset="1" stop-color="#E9EFFD"/>
</linearGradient>
<linearGradient id="pf_0_14_270" x1="24.327" y1="82.789" x2="4.526" y2="103.996" gradientUnits="userSpaceOnUse">
<stop stop-color="#09005D"/>
<stop offset="1" stop-color="#1A0F91"/>
</linearGradient>
<linearGradient id="pf_0_14_271" x1="17.9" y1="84.364" x2="19.659" y2="84.364" gradientUnits="userSpaceOnUse">
<stop stop-color="#FEBBBA"/>
<stop offset="1" stop-color="#FF928E"/>
</linearGradient>
<linearGradient id="pf_0_14_272" x1="25.886" y1="58.806" x2="9.037" y2="81.291" gradientUnits="userSpaceOnUse">
<stop stop-color="#09005D"/>
<stop offset="1" stop-color="#1A0F91"/>
</linearGradient>
<linearGradient id="pf_0_14_275" x1="22.883" y1="56.624" x2="6.034" y2="79.11" gradientUnits="userSpaceOnUse">
<stop stop-color="#09005D"/>
<stop offset="1" stop-color="#1A0F91"/>
</linearGradient>
<linearGradient id="pf_0_14_276" x1="16.926" y1="46.619" x2="43.787" y2="1.052" gradientUnits="userSpaceOnUse">
<stop stop-color="#4F52FF"/>
<stop offset="1" stop-color="#4042E2"/>
</linearGradient>
<linearGradient id="pf_0_14_273" x1="19.885" y1="78.768" x2="0.084" y2="99.975" gradientUnits="userSpaceOnUse">
<stop stop-color="#09005D"/>
<stop offset="1" stop-color="#1A0F91"/>
</linearGradient>
<linearGradient id="pf_0_14_274" x1="11.561" y1="84.275" x2="13.08" y2="84.275" gradientUnits="userSpaceOnUse">
<stop stop-color="#FEBBBA"/>
<stop offset="1" stop-color="#FF928E"/>
</linearGradient>
<linearGradient id="pf_0_14_277" x1="32.737" y1="28.875" x2="29.634" y2="37.605" gradientUnits="userSpaceOnUse">
<stop stop-color="#FEBBBA"/>
<stop offset="1" stop-color="#FF928E"/>
</linearGradient>
<linearGradient id="pf_0_14_278" x1="35.39" y1="29.789" x2="32.286" y2="38.519" gradientUnits="userSpaceOnUse">
<stop stop-color="#FEBBBA"/>
<stop offset="1" stop-color="#FF928E"/>
</linearGradient>
<linearGradient id="pf_0_14_279" x1="33.006" y1="35.367" x2="35.343" y2="30.724" gradientUnits="userSpaceOnUse">
<stop stop-color="#FEBBBA"/>
<stop offset="1" stop-color="#FF928E"/>
</linearGradient>
<linearGradient id="pf_0_14_280" x1="11.338" y1="43.426" x2="38.199" y2="-2.141" gradientUnits="userSpaceOnUse">
<stop stop-color="#4F52FF"/>
<stop offset="1" stop-color="#4042E2"/>
</linearGradient>
<linearGradient id="pf_0_14_281" x1="5.475" y1="51.715" x2="16.846" y2="51.715" gradientUnits="userSpaceOnUse">
<stop stop-color="#FEBBBA"/>
<stop offset="1" stop-color="#FF928E"/>
</linearGradient>
<linearGradient id="pf_0_14_285" x1="16.002" y1="50.541" x2="19.545" y2="50.541" gradientUnits="userSpaceOnUse">
<stop stop-color="#FEBBBA"/>
<stop offset="1" stop-color="#FF928E"/>
</linearGradient>
<linearGradient id="pf_0_14_286" x1="14.207" y1="39.746" x2="18.702" y2="39.746" gradientUnits="userSpaceOnUse">
<stop stop-color="#FEBBBA"/>
<stop offset="1" stop-color="#FF928E"/>
</linearGradient>
<linearGradient id="pf_0_14_287" x1="19.772" y1="36.929" x2="14.829" y2="33.961" gradientUnits="userSpaceOnUse">
<stop stop-color="#FEBBBA"/>
<stop offset="1" stop-color="#FF928E"/>
</linearGradient>
<linearGradient id="pf_0_14_288" x1="12.212" y1="30.832" x2="18.598" y2="35.798" gradientUnits="userSpaceOnUse">
<stop stop-color="#09005D"/>
<stop offset="1" stop-color="#1A0F91"/>
</linearGradient>
<linearGradient id="pf_0_14_289" x1="18.473" y1="38.036" x2="14.026" y2="35.366" gradientUnits="userSpaceOnUse">
<stop stop-color="#FEBBBA"/>
<stop offset="1" stop-color="#FF928E"/>
</linearGradient>
</defs>
</svg>
