<svg width="102" height="88" viewBox="0 0 102 88" fill="none" xmlns="http://www.w3.org/2000/svg" xmlns:xlink="http://www.w3.org/1999/xlink">
<path d="M97.906,40.1C97.74,39.725 97.554,39.36 97.349,39.005C98.188,37.569 98.704,35.971 98.861,34.319C99.018,32.667 98.813,31.001 98.26,29.435C97.706,27.87 96.817,26.442 95.655,25.25C94.492,24.058 93.083,23.13 91.524,22.53C90.6,19.68 88.995,17.095 86.847,14.993C84.357,12.456 81.17,10.701 77.683,9.948C76.347,7.423 74.113,5.48 71.415,4.498C68.717,3.515 65.748,3.564 63.084,4.634C62.391,3.679 61.507,2.877 60.488,2.277C59.469,1.677 58.336,1.291 57.161,1.144C55.985,0.998 54.791,1.093 53.654,1.425C52.517,1.756 51.461,2.317 50.552,3.071C47.551,1.772 44.257,1.287 41.005,1.667C36.588,2.037 32.48,4.072 29.527,7.354C28.149,6.8 26.65,6.61 25.176,6.802C23.701,6.995 22.303,7.564 21.116,8.453L21.089,8.467L21.093,8.471C19.757,9.474 18.743,10.839 18.172,12.402C17.998,12.395 17.827,12.378 17.652,12.378C16.128,12.378 14.62,12.675 13.213,13.254C11.805,13.832 10.526,14.681 9.449,15.75C8.372,16.819 7.518,18.088 6.935,19.485C6.352,20.882 6.052,22.38 6.052,23.892C6.052,23.973 6.063,24.05 6.064,24.131C4.094,26.14 2.631,28.583 1.795,31.261C0.958,33.939 0.773,36.775 1.253,39.538C1.425,42.452 2.335,45.275 3.898,47.746C5.462,50.217 7.629,52.257 10.199,53.675C10.389,53.765 10.586,53.843 10.787,53.906C12.043,54.362 13.388,54.521 14.717,54.37C15.917,54.225 17.073,53.826 18.106,53.201C19.32,54.047 20.733,54.567 22.208,54.711C23.684,54.856 25.172,54.62 26.529,54.026C26.854,55.957 27.584,57.799 28.672,59.432C32.017,64.505 37.403,67.239 41.359,64.978L45.933,66.471C50.194,68.138 53.919,70.92 56.713,74.521C59.506,78.122 61.265,82.408 61.8,86.922L70.772,86.922L69.034,74.004L69.024,74C70.313,74.267 71.627,74.401 72.944,74.401C76.369,74.421 79.732,73.494 82.657,71.726C83.246,71.48 83.777,71.114 84.215,70.651C85.756,69.496 87.042,68.04 87.993,66.371C88.943,64.703 89.539,62.858 89.742,60.952L89.747,60.959L89.746,60.906C89.777,60.538 89.801,60.162 89.801,59.783C89.798,58.716 89.662,57.654 89.396,56.62C89.369,56.441 89.339,56.266 89.307,56.093C91.996,55.629 94.433,54.238 96.19,52.165C97.947,50.092 98.911,47.471 98.912,44.762C98.912,44.505 98.903,44.249 98.887,43.996C98.953,42.63 98.612,41.275 97.906,40.1ZM41.667,64.81L41.676,64.813C41.934,64.969 42.203,65.106 42.48,65.224C42.056,65.101 41.697,65.006 41.428,64.944C41.508,64.894 41.589,64.859 41.667,64.81ZM43.72,65.621L43.721,65.61L43.941,65.695L43.72,65.621Z" fill="#FFFFFF"/>
<path d="M87.108,55.858C81.92,55.703 76.745,55.254 71.609,54.514C70.403,53.822 70.707,61.479 64.101,65.642L68.435,71.399C70.789,71.997 73.241,72.122 75.645,71.767C78.048,71.412 80.357,70.584 82.434,69.332C85.831,67.271 87.905,64.006 87.108,55.858Z" fill="#72D99D"/>
<path d="M56.882,70.325C57.086,72.347 58.929,73.168 59.402,73.92C61.524,77.263 63,80.969 63.756,84.848L68.162,84.848C67.779,80.718 67.166,76.613 66.327,72.551C66.011,71.908 65.599,71.317 65.103,70.799C64.587,70.237 63.337,71.231 62.705,70.795C61.705,70.104 61.737,68.696 59.961,68.096C58.851,67.72 56.678,68.742 56.882,70.325Z" fill="#4E91AC"/>
<path d="M90.313,24.689C90.313,24.689 98.141,27.553 95.62,38.173C95.62,38.173 100.217,50.087 88.674,53.892L75.121,53.615C74.134,49.721 73.57,45.734 73.437,41.722C73.745,41.3 81.145,42.199 85.917,37.888C88.856,35.234 90.313,24.689 90.313,24.689Z" fill="#FF6A45"/>
<path d="M46.524,28.185C47.428,33.12 46.729,38.211 44.529,42.726C42.105,47.324 36.94,50.933 28.877,52.643C28.877,52.643 31.106,63.613 39.792,63.163C45.488,63.544 50.937,65.616 55.431,69.11C55.932,68.303 56.655,67.655 57.516,67.243C60.407,65.733 66.53,63.722 67.936,58.017C70.109,49.199 73.057,53.243 73.057,53.243L71.126,40.946C70.719,40.189 70.107,39.561 69.359,39.133C68.61,38.705 67.756,38.494 66.893,38.523C55.869,38.173 48.844,37.158 46.524,28.185Z" fill="#81CEDE"/>
<path d="M54.326,13.55C57.427,9.373 70.15,1.818 76.317,12.006C76.317,12.006 83.742,11.37 89.747,23.13C89.747,23.13 87.544,32.075 86.336,35.28C85.129,38.485 76.086,41.216 72.037,39.612C67.101,33.528 52.131,42.469 47.304,29.14C46.022,25.598 51.774,16.987 54.326,13.55Z" fill="#FFD65F"/>
<path d="M13.548,51.684C11.777,51.484 10.088,50.831 8.646,49.791C7.204,48.751 6.058,47.358 5.318,45.748C0.213,32.584 7.456,25.858 7.755,25.486L8.245,24.879L8.238,24.099C8.234,23.235 8.494,15.547 18.393,14.547L20.124,14.375C20.124,14.375 20.585,7.888 28.765,9.373L31.366,8.376C33.845,6.139 36.914,4.649 40.215,4.079C43.515,3.509 46.911,3.882 50.006,5.157L50.932,5.395L51.735,4.879C53.131,4.071 54.71,3.623 56.325,3.577C57.802,3.755 59.227,4.228 60.515,4.967C55.314,8.224 51.258,12.999 48.902,18.637C46.981,21.267 45.613,24.254 44.88,27.42C44.65,30.453 45.463,39.945 40.836,45.074C36.793,49.557 28.277,50.986 26.472,51.702C23.638,52.425 20.636,52.114 18.012,50.828C16.578,51.34 15.071,51.629 13.548,51.684Z" fill="#F9A037"/>
<path d="M26.094,54.693C25.833,54.693 25.582,54.599 25.385,54.43C24.35,53.523 23.536,52.395 23.007,51.129C22.478,49.864 22.247,48.495 22.331,47.128C22.778,43.877 25.576,41.02 30.642,38.636C30.902,38.514 31.2,38.499 31.472,38.595C31.743,38.691 31.965,38.89 32.088,39.148C32.211,39.407 32.226,39.703 32.13,39.972C32.033,40.242 31.832,40.462 31.572,40.584C27.28,42.603 24.829,44.962 24.484,47.409C24.452,48.421 24.643,49.429 25.045,50.361C25.446,51.292 26.049,52.125 26.81,52.801C26.976,52.945 27.094,53.137 27.148,53.35C27.202,53.563 27.189,53.787 27.111,53.992C27.033,54.198 26.894,54.375 26.712,54.5C26.531,54.625 26.315,54.693 26.094,54.693Z" fill="#4A4E5C"/>
<path d="M15.88,39.366C15.747,39.367 15.614,39.343 15.489,39.296C14.485,38.914 13.567,38.34 12.787,37.606C12.008,36.871 11.381,35.992 10.944,35.017C10.507,34.042 10.268,32.991 10.241,31.925C10.214,30.858 10.398,29.796 10.785,28.801C11.171,27.805 11.752,26.895 12.493,26.122C13.234,25.35 14.122,24.73 15.105,24.298C16.088,23.866 17.147,23.631 18.221,23.606C19.296,23.581 20.365,23.766 21.367,24.152C21.636,24.255 21.853,24.459 21.97,24.721C22.087,24.983 22.095,25.28 21.991,25.547C21.888,25.814 21.681,26.03 21.418,26.146C21.154,26.262 20.855,26.269 20.586,26.167C19.85,25.885 19.066,25.75 18.278,25.769C17.489,25.788 16.713,25.961 15.992,26.279C15.271,26.596 14.621,27.051 14.077,27.618C13.534,28.185 13.108,28.853 12.825,29.583C12.541,30.313 12.406,31.092 12.426,31.874C12.445,32.656 12.62,33.427 12.94,34.142C13.26,34.858 13.719,35.503 14.291,36.042C14.862,36.581 15.535,37.003 16.271,37.284C16.508,37.375 16.705,37.544 16.829,37.764C16.952,37.984 16.994,38.239 16.948,38.487C16.902,38.734 16.769,38.957 16.574,39.118C16.379,39.279 16.134,39.366 15.88,39.366Z" fill="#4A4E5C"/>
<path d="M33.842,46.636C33.556,46.636 33.282,46.524 33.079,46.324C32.875,46.125 32.759,45.854 32.756,45.57C32.752,45.286 32.862,45.012 33.06,44.808C33.258,44.603 33.53,44.485 33.816,44.477C35.406,44.439 36.917,43.775 38.014,42.632C39.112,41.488 39.707,39.959 39.668,38.38C39.63,36.801 38.961,35.301 37.809,34.212C36.657,33.122 35.116,32.532 33.525,32.57C33.238,32.576 32.959,32.469 32.751,32.271C32.543,32.074 32.422,31.802 32.415,31.517C32.408,31.231 32.515,30.954 32.713,30.747C32.912,30.539 33.185,30.419 33.473,30.411C35.64,30.359 37.74,31.164 39.31,32.648C40.88,34.133 41.791,36.176 41.843,38.327C41.896,40.479 41.085,42.563 39.59,44.121C38.094,45.68 36.036,46.584 33.868,46.636L33.842,46.636Z" fill="#4A4E5C"/>
<path d="M58.842,61.777C57.711,61.777 56.605,61.441 55.668,60.812C54.731,60.184 54.005,59.291 53.583,58.249C53.53,58.118 53.503,57.977 53.505,57.835C53.506,57.694 53.536,57.554 53.592,57.423C53.648,57.293 53.729,57.175 53.831,57.076C53.934,56.977 54.054,56.899 54.187,56.846C54.319,56.794 54.461,56.768 54.604,56.769C54.746,56.771 54.887,56.801 55.019,56.857C55.15,56.913 55.268,56.994 55.368,57.095C55.468,57.197 55.546,57.317 55.599,57.449C55.943,58.3 56.614,58.981 57.464,59.342C58.314,59.703 59.274,59.713 60.132,59.372C60.99,59.03 61.676,58.364 62.039,57.52C62.403,56.676 62.413,55.724 62.069,54.872C62.015,54.74 61.989,54.6 61.99,54.458C61.991,54.316 62.021,54.175 62.077,54.045C62.133,53.914 62.214,53.796 62.316,53.696C62.418,53.597 62.539,53.519 62.672,53.466C62.805,53.413 62.946,53.387 63.089,53.388C63.232,53.39 63.374,53.42 63.505,53.476C63.636,53.532 63.756,53.613 63.855,53.714C63.955,53.816 64.034,53.936 64.087,54.068C64.431,54.92 64.559,55.843 64.461,56.755C64.363,57.668 64.041,58.543 63.524,59.303C63.006,60.064 62.309,60.687 61.493,61.118C60.677,61.55 59.766,61.776 58.842,61.777Z" fill="#4A4E5C"/>
<path d="M62.058,26.676C61.853,26.677 61.652,26.618 61.48,26.507C61.36,26.432 61.255,26.334 61.173,26.219C61.09,26.103 61.032,25.973 61,25.835C60.968,25.697 60.965,25.554 60.989,25.415C61.013,25.275 61.064,25.142 61.141,25.022C61.386,24.638 61.553,24.21 61.631,23.761C61.709,23.313 61.698,22.854 61.597,22.41C61.497,21.966 61.309,21.546 61.045,21.175C60.78,20.803 60.445,20.487 60.057,20.244C59.669,20.001 59.237,19.836 58.786,19.76C58.334,19.683 57.871,19.695 57.424,19.796C56.977,19.897 56.555,20.084 56.181,20.347C55.807,20.61 55.489,20.944 55.245,21.329C55.09,21.567 54.846,21.735 54.567,21.796C54.288,21.856 53.996,21.806 53.754,21.654C53.512,21.503 53.34,21.263 53.276,20.986C53.211,20.71 53.259,20.42 53.408,20.178C54.209,18.918 55.481,18.026 56.945,17.698C58.409,17.369 59.944,17.631 61.213,18.426C62.482,19.221 63.381,20.484 63.712,21.937C64.043,23.39 63.779,24.914 62.978,26.174C62.88,26.328 62.744,26.455 62.583,26.542C62.422,26.63 62.242,26.676 62.058,26.676Z" fill="#4A4E5C"/>
<path d="M55.24,73.628C55.032,73.629 54.829,73.57 54.654,73.459C54.478,73.348 54.339,73.19 54.252,73.003C53.625,71.65 53.564,70.106 54.084,68.709C54.604,67.312 55.661,66.177 57.023,65.554C58.386,64.931 59.942,64.87 61.349,65.384C62.757,65.899 63.901,66.948 64.53,68.3C64.59,68.428 64.624,68.567 64.63,68.709C64.635,68.85 64.613,68.992 64.564,69.125C64.514,69.258 64.439,69.38 64.343,69.484C64.246,69.588 64.129,69.672 64,69.732C63.87,69.791 63.73,69.825 63.587,69.83C63.445,69.836 63.302,69.814 63.168,69.765C63.034,69.716 62.911,69.641 62.807,69.545C62.702,69.449 62.617,69.334 62.557,69.205C62.365,68.792 62.094,68.421 61.758,68.113C61.422,67.805 61.028,67.565 60.598,67.408C60.169,67.25 59.713,67.179 59.255,67.196C58.798,67.214 58.349,67.321 57.933,67.511C57.517,67.702 57.143,67.971 56.833,68.305C56.522,68.638 56.281,69.029 56.122,69.456C55.964,69.882 55.891,70.335 55.909,70.789C55.927,71.243 56.035,71.689 56.227,72.101C56.302,72.265 56.335,72.446 56.322,72.626C56.31,72.806 56.251,72.98 56.153,73.132C56.055,73.284 55.92,73.409 55.76,73.496C55.601,73.583 55.422,73.628 55.24,73.628Z" fill="#4A4E5C"/>
<path d="M80.883,73.154C79.818,73.154 78.774,72.855 77.872,72.291C76.97,71.727 76.247,70.922 75.786,69.968C75.325,69.014 75.145,67.95 75.267,66.899C75.389,65.848 75.808,64.852 76.475,64.027C76.564,63.917 76.674,63.825 76.799,63.757C76.924,63.688 77.062,63.645 77.203,63.63C77.345,63.614 77.489,63.626 77.626,63.666C77.763,63.705 77.89,63.771 78.002,63.86C78.113,63.948 78.206,64.058 78.275,64.182C78.343,64.306 78.387,64.442 78.402,64.583C78.418,64.724 78.406,64.866 78.366,65.002C78.326,65.138 78.26,65.265 78.171,65.375C77.592,66.091 77.324,67.006 77.425,67.918C77.527,68.83 77.989,69.665 78.71,70.239C79.431,70.813 80.353,71.079 81.272,70.979C82.191,70.878 83.032,70.42 83.61,69.704C83.79,69.48 84.053,69.338 84.34,69.306C84.626,69.275 84.914,69.359 85.139,69.538C85.364,69.717 85.508,69.978 85.539,70.262C85.57,70.547 85.486,70.832 85.306,71.055C84.774,71.712 84.101,72.241 83.335,72.605C82.57,72.968 81.732,73.156 80.883,73.154Z" fill="#4A4E5C"/>
<path d="M98.888,45.078L98.831,45.078C98.543,45.062 98.273,44.934 98.08,44.722C97.887,44.509 97.787,44.23 97.802,43.944C97.91,42.987 97.724,42.019 97.267,41.17C96.81,40.32 96.105,39.627 95.243,39.183C94.376,38.867 93.417,38.906 92.578,39.29C91.738,39.674 91.087,40.373 90.766,41.234C90.665,41.501 90.462,41.717 90.2,41.835C89.939,41.953 89.642,41.964 89.372,41.866C89.103,41.767 88.884,41.566 88.763,41.308C88.642,41.049 88.629,40.754 88.727,40.486C89.248,39.089 90.306,37.954 91.668,37.331C93.03,36.707 94.586,36.645 95.995,37.158C97.296,37.757 98.378,38.742 99.091,39.978C99.804,41.214 100.111,42.639 99.972,44.056C99.957,44.332 99.837,44.592 99.635,44.782C99.433,44.972 99.166,45.078 98.888,45.078Z" fill="#4A4E5C"/>
<path d="M11.111,55.079C11.024,55.079 10.938,55.068 10.853,55.047C9.396,54.695 8.139,53.783 7.359,52.512C6.579,51.24 6.339,49.713 6.693,48.267C7.046,46.82 7.964,45.571 9.244,44.796C10.524,44.02 12.062,43.781 13.52,44.13C13.66,44.162 13.792,44.221 13.909,44.304C14.026,44.387 14.125,44.492 14.201,44.614C14.277,44.735 14.327,44.871 14.35,45.012C14.372,45.153 14.366,45.297 14.333,45.435C14.299,45.574 14.237,45.705 14.152,45.82C14.067,45.935 13.959,46.032 13.836,46.106C13.713,46.179 13.576,46.227 13.433,46.248C13.291,46.269 13.146,46.261 13.007,46.225C12.109,46.01 11.161,46.158 10.373,46.636C9.584,47.114 9.019,47.883 8.801,48.775C8.584,49.666 8.732,50.607 9.213,51.39C9.694,52.173 10.468,52.735 11.366,52.952C11.624,53.014 11.85,53.168 12.002,53.385C12.153,53.601 12.219,53.865 12.188,54.127C12.157,54.389 12.03,54.63 11.832,54.806C11.633,54.981 11.377,55.078 11.111,55.079Z" fill="#4A4E5C"/>
<path d="M43.716,66.72C43.632,66.719 43.547,66.71 43.465,66.692C41.355,66.198 39.528,64.893 38.387,63.063C37.246,61.233 36.884,59.028 37.381,56.933C37.878,54.839 39.193,53.026 41.037,51.893C42.88,50.761 45.102,50.401 47.212,50.895C47.351,50.927 47.482,50.986 47.598,51.069C47.713,51.152 47.812,51.256 47.887,51.376C47.962,51.497 48.012,51.631 48.035,51.77C48.058,51.91 48.053,52.053 48.021,52.191C47.988,52.329 47.929,52.459 47.845,52.574C47.762,52.689 47.657,52.786 47.535,52.861C47.414,52.935 47.279,52.985 47.139,53.008C46.998,53.031 46.854,53.026 46.715,52.994C45.167,52.635 43.539,52.901 42.188,53.733C40.837,54.565 39.874,55.894 39.51,57.43C39.145,58.966 39.41,60.583 40.245,61.926C41.08,63.268 42.417,64.227 43.964,64.592C44.223,64.653 44.45,64.806 44.603,65.022C44.756,65.238 44.824,65.503 44.793,65.765C44.763,66.028 44.636,66.27 44.438,66.446C44.239,66.622 43.982,66.719 43.716,66.72Z" fill="#4A4E5C"/>
<path d="M26.49,22.449C26.217,22.449 25.955,22.347 25.755,22.163C25.554,21.98 25.43,21.729 25.407,21.459C25.036,17.026 29.6,13.016 35.582,12.522C38.264,12.257 40.963,12.823 43.308,14.143C44.344,14.69 45.232,15.479 45.893,16.441C46.555,17.404 46.971,18.511 47.106,19.669C47.128,19.953 47.036,20.234 46.85,20.451C46.664,20.668 46.399,20.803 46.113,20.827C45.826,20.851 45.542,20.761 45.323,20.578C45.103,20.394 44.965,20.132 44.94,19.848C44.828,19.033 44.52,18.257 44.041,17.586C43.563,16.915 42.927,16.369 42.19,15.994C40.237,14.903 37.991,14.441 35.763,14.67C30.976,15.067 27.301,18.033 27.574,21.28C27.597,21.566 27.506,21.849 27.319,22.067C27.133,22.285 26.867,22.422 26.58,22.446L26.49,22.449Z" fill="#4A4E5C"/>
<path d="M29.383,16.931C29.176,16.931 28.973,16.872 28.799,16.762C28.624,16.651 28.485,16.493 28.398,16.307C28.311,16.121 28.279,15.913 28.307,15.71C28.334,15.506 28.42,15.315 28.553,15.158C29.262,14.191 29.583,12.997 29.455,11.808C29.327,10.619 28.758,9.519 27.858,8.723C26.161,7.305 23.85,8.218 21.604,9.415C21.35,9.549 21.054,9.577 20.779,9.495C20.504,9.412 20.274,9.225 20.138,8.974C20.002,8.723 19.971,8.428 20.053,8.155C20.135,7.882 20.323,7.652 20.575,7.516C22.258,6.617 26.2,4.514 29.259,7.073C30.601,8.238 31.445,9.866 31.621,11.626C31.732,12.499 31.665,13.384 31.423,14.23C31.181,15.075 30.77,15.864 30.214,16.548C30.112,16.668 29.985,16.765 29.841,16.831C29.697,16.897 29.541,16.931 29.383,16.931Z" fill="#4A4E5C"/>
<path d="M89.746,62.037C89.461,62.036 89.187,61.925 88.984,61.727C88.781,61.529 88.665,61.259 88.66,60.976C88.639,58.918 88.382,56.869 87.892,54.868C86.95,52.305 85.195,50.113 82.892,48.623C80.588,47.133 77.86,46.425 75.117,46.605C74.974,46.604 74.833,46.576 74.701,46.522C74.569,46.467 74.449,46.388 74.348,46.287C74.248,46.187 74.168,46.068 74.113,45.937C74.059,45.806 74.031,45.665 74.031,45.523C74.031,45.382 74.06,45.241 74.115,45.11C74.17,44.98 74.25,44.861 74.351,44.761C74.452,44.661 74.572,44.581 74.704,44.527C74.836,44.473 74.978,44.446 75.121,44.446C78.316,44.259 81.489,45.104 84.16,46.854C86.831,48.605 88.859,51.166 89.942,54.156C90.513,56.374 90.813,58.652 90.833,60.942C90.837,61.227 90.727,61.503 90.527,61.708C90.327,61.913 90.053,62.031 89.765,62.037L89.746,62.037Z" fill="#4A4E5C"/>
<path d="M73.05,58.684C69.912,58.665 66.836,57.81 64.144,56.208C61.452,54.606 59.243,52.316 57.747,49.578C57.623,49.32 57.606,49.024 57.702,48.754C57.797,48.484 57.997,48.263 58.257,48.139C58.516,48.015 58.815,47.999 59.087,48.094C59.359,48.188 59.582,48.386 59.706,48.644C61.313,51.63 63.887,53.991 67.011,55.347C70.135,56.703 73.629,56.974 76.928,56.118C77.21,56.061 77.504,56.117 77.744,56.274C77.985,56.432 78.153,56.678 78.21,56.958C78.268,57.238 78.212,57.53 78.053,57.769C77.894,58.008 77.647,58.174 77.364,58.231C75.945,58.526 74.5,58.678 73.05,58.684Z" fill="#4A4E5C"/>
<path d="M54.326,11.412C54.047,11.413 53.778,11.306 53.578,11.114C53.474,11.016 53.391,10.9 53.333,10.77C53.275,10.641 53.244,10.502 53.24,10.36C53.236,10.219 53.261,10.078 53.312,9.946C53.364,9.814 53.441,9.693 53.539,9.59C55.987,6.706 59.298,4.672 62.991,3.784C66.684,2.896 70.566,3.201 74.072,4.655C74.328,4.784 74.523,5.009 74.613,5.281C74.702,5.552 74.68,5.848 74.55,6.103C74.42,6.358 74.194,6.552 73.921,6.642C73.648,6.731 73.35,6.71 73.092,6.582C70.009,5.3 66.589,5.046 63.348,5.857C60.106,6.668 57.216,8.5 55.113,11.079C55.011,11.185 54.889,11.269 54.754,11.326C54.619,11.383 54.473,11.413 54.326,11.412Z" fill="#4A4E5C"/>
<path d="M80.703,36.358C80.548,36.359 80.395,36.326 80.253,36.263C79.992,36.144 79.788,35.926 79.687,35.659C79.587,35.391 79.597,35.094 79.716,34.834C80.992,31.695 81.165,28.222 80.208,24.973C79.252,21.724 77.221,18.89 74.443,16.927C74.219,16.748 74.075,16.489 74.044,16.205C74.012,15.921 74.095,15.637 74.274,15.414C74.453,15.19 74.714,15.047 74.999,15.014C75.285,14.981 75.572,15.062 75.798,15.239C78.923,17.528 81.196,20.78 82.262,24.487C83.329,28.194 83.129,32.147 81.693,35.729C81.606,35.917 81.467,36.077 81.291,36.188C81.116,36.3 80.911,36.358 80.703,36.358Z" fill="#4A4E5C"/>
<path d="M58.727,38.236C55.411,38.232 52.231,36.922 49.886,34.595C47.542,32.267 46.222,29.111 46.218,25.819C46.218,25.533 46.333,25.259 46.536,25.057C46.74,24.854 47.017,24.741 47.305,24.741C47.593,24.741 47.869,24.854 48.073,25.057C48.277,25.259 48.391,25.533 48.391,25.819C48.391,28.541 49.48,31.15 51.419,33.074C53.357,34.999 55.986,36.08 58.728,36.08C61.469,36.08 64.098,34.999 66.037,33.074C67.975,31.15 69.064,28.541 69.064,25.819C69.064,25.534 69.179,25.259 69.382,25.057C69.586,24.855 69.862,24.742 70.15,24.742C70.438,24.742 70.714,24.855 70.918,25.057C71.121,25.259 71.236,25.534 71.236,25.819C71.232,29.111 69.913,32.267 67.568,34.595C65.223,36.923 62.043,38.232 58.727,38.236Z" fill="#4A4E5C"/>
<path d="M70.772,88L61.8,88C61.535,88 61.279,87.903 61.08,87.729C60.882,87.554 60.754,87.313 60.722,87.052C60.228,82.719 58.548,78.602 55.865,75.148C53.183,71.695 49.599,69.036 45.502,67.461C45.241,67.345 45.037,67.131 44.934,66.867C44.83,66.603 44.836,66.309 44.949,66.049C45.062,65.789 45.274,65.583 45.539,65.477C45.803,65.371 46.099,65.372 46.363,65.481C50.635,67.177 54.391,69.945 57.263,73.513C60.135,77.082 62.024,81.33 62.746,85.841L69.531,85.841L67.969,74.232C67.929,74.062 67.934,73.884 67.982,73.716C68.053,73.451 68.223,73.223 68.458,73.08C68.693,72.936 68.974,72.887 69.244,72.944C70.461,73.194 71.701,73.321 72.944,73.323C81.64,73.323 88.713,67.25 88.713,59.783C88.713,58.641 88.546,57.504 88.218,56.409C88.174,56.263 88.162,56.109 88.183,55.958C88.204,55.807 88.256,55.662 88.338,55.532C88.419,55.403 88.527,55.292 88.655,55.207C88.783,55.123 88.927,55.066 89.079,55.04C90.751,54.761 92.329,54.084 93.68,53.066C95.03,52.049 96.112,50.722 96.832,49.198C97.553,47.675 97.89,46.001 97.817,44.32C97.743,42.639 97.26,41 96.408,39.545C96.313,39.381 96.263,39.194 96.263,39.004C96.263,38.815 96.313,38.628 96.408,38.464C97.169,37.163 97.637,35.715 97.78,34.218C97.923,32.721 97.737,31.211 97.235,29.792C96.734,28.373 95.928,27.078 94.874,25.998C93.82,24.918 92.543,24.077 91.13,23.534C90.978,23.475 90.842,23.383 90.731,23.264C90.619,23.146 90.537,23.004 90.488,22.849C89.615,20.167 88.102,17.733 86.078,15.755C83.736,13.372 80.744,11.721 77.469,11.005C77.31,10.974 77.161,10.908 77.032,10.812C76.903,10.716 76.797,10.592 76.722,10.451C75.512,8.161 73.488,6.399 71.042,5.509C68.596,4.619 65.905,4.663 63.49,5.634C63.266,5.724 63.017,5.738 62.784,5.672C62.55,5.605 62.346,5.464 62.203,5.269C61.597,4.435 60.825,3.734 59.934,3.209C59.044,2.684 58.054,2.346 57.026,2.218C55.998,2.089 54.955,2.171 53.961,2.46C52.966,2.749 52.043,3.238 51.247,3.896C51.091,4.027 50.901,4.111 50.699,4.139C50.497,4.167 50.291,4.138 50.105,4.054C47.282,2.829 44.181,2.375 41.122,2.738C36.984,3.075 33.133,4.973 30.362,8.042C30.215,8.218 30.015,8.342 29.792,8.398C29.569,8.455 29.334,8.439 29.121,8.355C28.224,7.992 27.265,7.806 26.297,7.807C24.743,7.811 23.229,8.289 21.958,9.177C20.688,10.064 19.723,11.317 19.194,12.767C19.116,12.985 18.97,13.171 18.778,13.3C18.585,13.428 18.356,13.491 18.124,13.48L17.908,13.466C17.823,13.463 17.738,13.455 17.652,13.455C14.864,13.458 12.192,14.559 10.221,16.516C8.25,18.472 7.142,21.125 7.14,23.892C7.146,24.001 7.15,24.054 7.15,24.11C7.153,24.268 7.121,24.426 7.057,24.571C6.992,24.716 6.896,24.845 6.775,24.949C4.948,26.847 3.594,29.143 2.823,31.654C2.051,34.165 1.883,36.821 2.331,39.408C2.716,43.265 4.278,46.914 6.809,49.866C7.727,51.022 8.915,51.939 10.271,52.537C11.626,53.135 13.107,53.397 14.587,53.299C15.636,53.171 16.645,52.823 17.548,52.278C17.728,52.17 17.935,52.117 18.145,52.125C18.355,52.132 18.559,52.2 18.731,52.32C19.794,53.052 21.029,53.503 22.317,53.629C23.605,53.755 24.905,53.552 26.092,53.039C26.244,52.973 26.409,52.942 26.575,52.948C26.741,52.955 26.903,53 27.048,53.078C27.194,53.157 27.32,53.268 27.416,53.402C27.512,53.537 27.576,53.691 27.602,53.854C27.904,55.636 28.579,57.335 29.582,58.842C30.986,61.091 33.004,62.899 35.402,64.055C36.281,64.511 37.263,64.736 38.255,64.711C39.247,64.685 40.216,64.408 41.071,63.908C41.19,63.827 41.324,63.771 41.466,63.742C41.607,63.714 41.753,63.714 41.894,63.742C42.036,63.77 42.17,63.825 42.29,63.905C42.41,63.986 42.512,64.089 42.591,64.209C42.67,64.328 42.724,64.463 42.75,64.604C42.777,64.744 42.774,64.889 42.744,65.029C42.713,65.169 42.654,65.302 42.571,65.419C42.488,65.536 42.383,65.636 42.261,65.712C41.106,66.418 39.789,66.818 38.434,66.874C37.08,66.929 35.733,66.638 34.525,66.028C31.742,64.704 29.396,62.621 27.763,60.022C26.837,58.621 26.148,57.079 25.722,55.458C24.444,55.816 23.106,55.913 21.789,55.741C20.473,55.569 19.205,55.132 18.064,54.458C17.058,54.972 15.969,55.305 14.846,55.441C13.02,55.587 11.185,55.288 9.503,54.568C7.82,53.848 6.341,52.731 5.195,51.312C2.364,48.028 0.613,43.964 0.174,39.664C-0.308,36.811 -0.126,33.886 0.705,31.113C1.536,28.34 2.994,25.792 4.968,23.664C5.031,20.399 6.368,17.287 8.697,14.98C11.026,12.674 14.165,11.355 17.454,11.3C18.433,9.158 20.167,7.446 22.331,6.486C24.494,5.527 26.936,5.386 29.197,6.091C32.309,2.935 36.455,0.986 40.887,0.597C44.109,0.222 47.374,0.645 50.391,1.829C52.364,0.412 54.801,-0.217 57.219,0.066C59.636,0.349 61.859,1.523 63.446,3.356C66.212,2.446 69.208,2.51 71.932,3.537C74.655,4.565 76.938,6.493 78.395,8.997C81.897,9.864 85.088,11.675 87.617,14.231C89.762,16.337 91.398,18.898 92.402,21.723C93.989,22.409 95.418,23.413 96.6,24.67C97.781,25.927 98.69,27.412 99.27,29.032C99.85,30.652 100.088,32.373 99.971,34.089C99.853,35.804 99.382,37.477 98.587,39.004C99.457,40.675 99.938,42.518 99.994,44.398C100.051,46.278 99.682,48.146 98.914,49.865C98.146,51.584 97,53.111 95.559,54.331C94.117,55.552 92.419,56.436 90.588,56.918C90.786,57.861 90.886,58.82 90.886,59.783C90.886,68.44 82.837,75.478 72.944,75.478C72.061,75.479 71.18,75.421 70.306,75.306L71.849,86.779C71.869,86.931 71.857,87.086 71.812,87.233C71.767,87.38 71.691,87.516 71.589,87.631C71.488,87.747 71.362,87.84 71.221,87.903C71.08,87.967 70.927,88 70.772,88Z" fill="#4A4E5C"/>
<path d="M45.934,67.548C45.818,67.55 45.703,67.532 45.594,67.495L40.498,65.835C40.236,65.75 40.016,65.569 39.884,65.328C39.751,65.088 39.715,64.807 39.784,64.542C39.853,64.277 40.02,64.047 40.253,63.9C40.486,63.753 40.766,63.699 41.037,63.75C42.867,64.146 44.651,64.726 46.363,65.481C46.593,65.579 46.781,65.752 46.896,65.972C47.012,66.192 47.047,66.445 46.997,66.688C46.947,66.931 46.813,67.149 46.619,67.306C46.426,67.463 46.183,67.548 45.934,67.548Z" fill="#4A4E5C"/>
</svg>
