<svg width="88" height="88" viewBox="0 0 88 88" fill="none" xmlns="http://www.w3.org/2000/svg" xmlns:xlink="http://www.w3.org/1999/xlink">
<path d="M77.8,75.755C75.993,77.628 74.283,78.836 72.932,79.79C57.053,91.009 38.264,87.739 34.27,86.94C28.374,85.761 16.975,83.481 8.735,73.939C-3.733,59.503 -1.792,36.759 7.879,21.745C9.648,18.999 18.992,3.757 37.984,1.312C49.477,-0.167 62.875,2.817 72.577,10.82C92.943,27.621 91.493,61.56 77.8,75.755Z" fill="url(#pf_0_i_31_1259;23_730;14_230)"/>
<path d="M60.159,85.059C60.083,85.049 60.011,85.024 59.945,84.986C59.88,84.948 59.822,84.897 59.777,84.837C58.437,83.058 48.691,69.14 61.661,56.418C73.974,44.34 79.555,41.861 80.297,34.765C80.384,33.936 81.521,33.737 81.896,34.484C84.693,40.067 89.052,53.096 74.628,61.647C58.716,71.08 60.02,81.42 60.789,84.359C60.813,84.448 60.814,84.542 60.792,84.632C60.77,84.722 60.726,84.805 60.664,84.875C60.601,84.944 60.523,84.997 60.435,85.029C60.347,85.061 60.252,85.071 60.159,85.059Z" fill="#91B3FA"/>
<path d="M62.132,85.323C61.956,85.3 61.792,85.221 61.665,85.099C61.538,84.977 61.455,84.817 61.428,84.644C61.048,82.224 60.115,73.18 66.881,70.782C74.331,68.142 80.344,74.973 85.82,69.626C86.108,69.345 86.592,69.59 86.524,69.984C86.036,72.777 83.866,79.245 74.208,80.547C63.87,81.94 62.707,83.108 62.916,84.556C62.98,85.003 62.586,85.384 62.132,85.323Z" fill="#91B3FA"/>
<g opacity="0.47">
<path d="M79.937,41.999C79.811,42.515 79.646,43.02 79.442,43.51C79.244,43.999 79.02,44.478 78.772,44.945C78.283,45.883 77.696,46.77 77.054,47.615C75.76,49.301 74.195,50.783 72.469,52.039C71.605,52.659 70.707,53.232 69.78,53.756C68.894,54.264 68.041,54.826 67.226,55.44C65.594,56.671 64.111,58.081 62.805,59.645C60.2,62.765 58.351,66.53 57.742,70.538C57.436,72.547 57.424,74.589 57.708,76.602C57.984,78.62 58.569,80.597 59.339,82.504C59.359,82.551 59.359,82.605 59.339,82.653C59.319,82.701 59.281,82.739 59.233,82.76C59.185,82.78 59.131,82.782 59.082,82.764C59.033,82.745 58.993,82.709 58.97,82.662C58.069,80.779 57.396,78.776 57.023,76.708C56.636,74.632 56.575,72.51 56.842,70.416C57.101,68.318 57.702,66.264 58.567,64.33C59.435,62.395 60.581,60.587 61.921,58.939C63.26,57.288 64.813,55.811 66.511,54.52C67.362,53.874 68.254,53.281 69.181,52.746C70.09,52.232 70.953,51.71 71.789,51.116C73.458,49.942 75,48.588 76.326,47.041C76.996,46.272 77.61,45.456 78.162,44.6C78.706,43.743 79.215,42.839 79.581,41.905L79.586,41.892C79.603,41.85 79.636,41.815 79.678,41.795C79.72,41.775 79.768,41.771 79.812,41.785C79.857,41.798 79.894,41.828 79.918,41.868C79.941,41.908 79.948,41.955 79.937,41.999Z" fill="#FFFFFF"/>
</g>
<g opacity="0.47">
<path d="M61.703,83.682C61.735,83.594 61.725,83.513 61.722,83.429L61.714,83.18L61.708,82.681C61.709,82.349 61.716,82.016 61.731,81.684C61.761,81.02 61.818,80.357 61.909,79.697C62.093,78.379 62.396,77.065 62.936,75.828C63.47,74.599 64.279,73.424 65.453,72.657C66.04,72.279 66.695,72.014 67.382,71.876C68.065,71.734 68.767,71.713 69.454,71.772C72.145,72.08 74.782,72.588 77.427,73C78.744,73.194 80.08,73.366 81.373,73.192C81.694,73.147 82.01,73.076 82.318,72.979C82.625,72.878 82.921,72.748 83.201,72.591C83.764,72.275 84.258,71.843 84.7,71.363L84.701,71.362C84.73,71.33 84.771,71.311 84.814,71.309C84.857,71.306 84.9,71.321 84.932,71.349C84.964,71.377 84.984,71.417 84.987,71.46C84.99,71.502 84.975,71.544 84.947,71.576C84.499,72.084 83.987,72.553 83.389,72.906C83.09,73.083 82.774,73.23 82.445,73.345C82.116,73.456 81.778,73.54 81.435,73.596C80.058,73.794 78.692,73.625 77.36,73.445C76.024,73.258 74.704,73.014 73.38,72.803C72.06,72.592 70.725,72.387 69.411,72.236C68.762,72.174 68.106,72.189 67.473,72.314C66.839,72.436 66.235,72.674 65.692,73.017C64.599,73.702 63.806,74.793 63.268,75.972C62.724,77.158 62.4,78.442 62.195,79.738C62.094,80.387 62.025,81.041 61.983,81.697C61.962,82.026 61.948,82.354 61.942,82.683L61.939,83.176L61.942,83.423C61.944,83.504 61.94,83.588 61.981,83.665C61.993,83.687 61.999,83.712 61.998,83.737C61.998,83.762 61.991,83.786 61.979,83.808C61.966,83.829 61.949,83.848 61.927,83.861C61.906,83.874 61.882,83.882 61.856,83.884C61.831,83.886 61.806,83.881 61.783,83.871C61.76,83.861 61.74,83.845 61.725,83.825C61.709,83.805 61.699,83.782 61.695,83.758C61.691,83.733 61.694,83.708 61.702,83.685L61.703,83.682Z" fill="#FFFFFF"/>
</g>
<path d="M47.643,0.999C43.589,0.968 39.5,1.601 35.882,3.079C27.459,6.52 20.312,15.624 23.109,24.924C24.017,27.945 23.54,31.278 26.597,32.591C28.25,33.301 32.754,33.724 34.466,33.164C39.018,31.676 42.009,27.604 39.534,23.088C38.741,21.642 37.715,20.321 37.031,18.823C36.346,17.324 36.034,15.545 36.732,14.052C38.102,11.122 42.653,10.19 45.604,10.278C49.087,10.382 52.243,12.078 54.117,14.988C56.453,18.615 57.045,23.026 56.703,27.236C56.337,31.741 54.408,35.181 51.518,38.637C49.029,41.612 46.288,44.468 44.633,47.961C43.115,51.168 42.619,54.722 42.55,58.231C42.537,58.911 39.102,65.32 39.117,67.278C39.119,67.554 43.012,68.471 43.293,68.474C44.759,68.49 48.911,68.536 50.44,68.553C50.591,68.554 50.736,68.497 50.844,68.393C50.953,68.29 51.014,68.148 51.016,67.999C51.125,58.473 54.101,49.392 61.634,42.994C64.375,40.666 67.327,38.77 69.458,35.832C72.496,31.644 73.995,27.523 73.562,22.354C73.167,17.634 71.588,12.911 68.463,9.248C65.105,5.312 60.189,2.854 55.08,1.793C52.634,1.286 50.143,1.02 47.643,0.999Z" fill="url(#pf_0_i_31_1259;23_730;14_235)"/>
<path d="M55.12,79.231C55.12,83.611 52.654,87.487 48.205,87.487C47.244,87.487 43.975,87.496 43.121,87.192C40.02,86.088 40.008,83.742 40.008,80.308C40.008,75.928 41.511,71.62 45.959,71.62C50.408,71.62 55.12,74.851 55.12,79.231Z" fill="url(#pf_0_i_31_1259;23_730;14_236)"/>
<path d="M43.791,0.001C39.737,-0.03 35.647,0.603 32.029,2.081C23.607,5.522 16.459,14.626 19.256,23.926C20.165,26.947 22.266,30.75 25.323,32.062C26.976,32.773 28.902,32.726 30.614,32.166C35.165,30.678 38.157,26.606 35.682,22.09C34.889,20.644 33.863,19.323 33.178,17.824C32.494,16.326 32.182,14.547 32.88,13.054C34.25,10.124 38.8,9.192 41.752,9.28C45.235,9.384 48.391,11.08 50.265,13.99C52.601,17.617 53.193,22.028 52.851,26.238C52.485,30.743 50.556,34.183 47.665,37.638C45.176,40.614 42.436,43.47 40.781,46.963C39.263,50.17 38.766,53.724 38.698,57.233C38.684,57.913 38.917,65.015 38.932,66.973C38.933,67.105 38.987,67.233 39.082,67.327C39.177,67.421 39.306,67.474 39.441,67.476C40.907,67.492 45.059,67.538 46.587,67.554C46.738,67.556 46.884,67.499 46.992,67.395C47.1,67.291 47.162,67.15 47.164,67.001C47.273,57.475 50.249,48.393 57.782,41.996C60.523,39.668 63.475,37.772 65.606,34.834C68.644,30.646 70.142,26.525 69.71,21.356C69.315,16.636 67.736,11.913 64.611,8.25C61.253,4.314 56.337,1.856 51.228,0.795C48.782,0.288 46.291,0.022 43.791,0.001Z" fill="url(#pf_0_i_31_1259;23_730;14_237)"/>
<path d="M44.211,87.242C48.66,87.242 52.266,83.691 52.266,79.31C52.266,74.93 48.66,71.379 44.211,71.379C39.763,71.379 36.156,74.93 36.156,79.31C36.156,83.691 39.763,87.242 44.211,87.242Z" fill="url(#pf_0_i_31_1259;23_730;14_238)"/>
<g opacity="0.63">
<path d="M21.923,23.015C21.899,23.015 21.876,23.007 21.858,22.992C21.84,22.978 21.827,22.958 21.822,22.935C21.257,20.425 21.174,16.495 23.985,12.024C26.729,7.661 30.577,4.741 35.424,3.346C40.604,1.855 46.755,2.174 53.706,4.295C53.732,4.303 53.754,4.321 53.766,4.345C53.779,4.368 53.782,4.396 53.774,4.422C53.766,4.448 53.747,4.469 53.723,4.482C53.699,4.495 53.671,4.497 53.645,4.489C40.291,0.415 29.821,3.129 24.161,12.132C21.387,16.544 21.468,20.418 22.024,22.891C22.027,22.906 22.027,22.921 22.023,22.936C22.02,22.951 22.013,22.965 22.003,22.977C21.994,22.989 21.981,22.998 21.967,23.005C21.953,23.011 21.938,23.015 21.923,23.015Z" fill="#FFFFFF"/>
</g>
<g opacity="0.63">
<path d="M23.617,27.053C23.601,27.053 23.585,27.049 23.57,27.042C23.556,27.035 23.543,27.024 23.534,27.011C23.509,26.978 22.929,26.188 22.389,24.798C22.379,24.772 22.38,24.744 22.391,24.72C22.402,24.695 22.423,24.676 22.449,24.666C22.474,24.657 22.503,24.657 22.528,24.668C22.553,24.679 22.572,24.7 22.582,24.725C23.111,26.088 23.695,26.883 23.701,26.891C23.712,26.906 23.719,26.924 23.72,26.943C23.722,26.962 23.718,26.98 23.709,26.997C23.701,27.014 23.687,27.028 23.671,27.038C23.655,27.048 23.636,27.053 23.617,27.053Z" fill="#FFFFFF"/>
</g>
<g opacity="0.63">
<path d="M46.907,74.17C46.89,74.17 46.874,74.166 46.86,74.158C46.04,73.747 45.132,73.535 44.211,73.537C44.184,73.537 44.158,73.527 44.138,73.507C44.119,73.488 44.108,73.462 44.108,73.435C44.108,73.408 44.119,73.383 44.138,73.363C44.158,73.344 44.184,73.334 44.211,73.334C45.164,73.331 46.104,73.551 46.954,73.977C46.974,73.987 46.991,74.004 47.001,74.025C47.01,74.046 47.013,74.069 47.007,74.091C47.002,74.114 46.989,74.134 46.971,74.148C46.952,74.162 46.93,74.17 46.907,74.17Z" fill="#FFFFFF"/>
</g>
<g opacity="0.63">
<path d="M40.875,84.283C40.855,84.283 40.835,84.277 40.818,84.266C39.951,83.69 39.25,82.903 38.782,81.982C38.315,81.061 38.097,80.037 38.149,79.009C38.202,77.98 38.524,76.983 39.083,76.113C39.642,75.243 40.42,74.53 41.342,74.043C41.366,74.03 41.394,74.027 41.42,74.035C41.447,74.042 41.469,74.06 41.482,74.084C41.495,74.108 41.497,74.136 41.49,74.161C41.482,74.187 41.464,74.209 41.44,74.222C40.549,74.692 39.798,75.381 39.258,76.221C38.717,77.062 38.407,78.025 38.356,79.019C38.305,80.012 38.515,81.002 38.967,81.891C39.418,82.781 40.096,83.541 40.933,84.097C40.952,84.109 40.966,84.127 40.973,84.148C40.98,84.168 40.981,84.191 40.974,84.211C40.968,84.232 40.955,84.25 40.937,84.263C40.919,84.276 40.897,84.283 40.875,84.283Z" fill="#FFFFFF"/>
</g>
<g opacity="0.3">
<path d="M17.416,14.839C17.396,14.863 17.371,14.883 17.343,14.898C17.315,14.913 17.284,14.923 17.252,14.926C17.22,14.93 17.188,14.927 17.157,14.918C17.126,14.909 17.098,14.894 17.073,14.874C16.87,14.712 16.656,14.556 16.438,14.411C16.386,14.376 16.349,14.321 16.336,14.26C16.324,14.198 16.336,14.134 16.371,14.082L16.373,14.078C16.391,14.052 16.414,14.029 16.441,14.012C16.468,13.994 16.498,13.983 16.529,13.977C16.561,13.971 16.593,13.971 16.624,13.977C16.656,13.984 16.685,13.996 16.712,14.014C16.941,14.166 17.166,14.33 17.38,14.501C17.427,14.538 17.458,14.591 17.467,14.65C17.477,14.708 17.464,14.768 17.431,14.818C17.426,14.825 17.421,14.832 17.416,14.839ZM15.33,13.776C15.094,13.661 14.851,13.556 14.607,13.462C14.578,13.45 14.55,13.433 14.527,13.411C14.504,13.389 14.486,13.363 14.473,13.334C14.46,13.305 14.453,13.274 14.452,13.243C14.452,13.211 14.458,13.18 14.469,13.15C14.481,13.121 14.498,13.094 14.521,13.072C14.543,13.049 14.569,13.031 14.599,13.018C14.628,13.005 14.66,12.999 14.692,12.998C14.724,12.998 14.756,13.003 14.785,13.015C15.042,13.114 15.297,13.225 15.545,13.345C15.603,13.374 15.648,13.423 15.668,13.484C15.689,13.544 15.685,13.61 15.656,13.667C15.652,13.675 15.647,13.684 15.642,13.692C15.609,13.741 15.559,13.777 15.502,13.792C15.444,13.808 15.383,13.802 15.33,13.776ZM13.384,13.084C13.129,13.024 12.868,12.974 12.609,12.936C12.577,12.932 12.547,12.921 12.52,12.905C12.492,12.888 12.468,12.867 12.449,12.842C12.43,12.816 12.416,12.788 12.408,12.757C12.401,12.726 12.399,12.695 12.404,12.663C12.408,12.632 12.419,12.602 12.436,12.575C12.452,12.548 12.474,12.525 12.5,12.506C12.526,12.487 12.555,12.473 12.586,12.466C12.617,12.458 12.649,12.457 12.681,12.461C12.954,12.502 13.229,12.554 13.497,12.617C13.528,12.624 13.558,12.637 13.584,12.656C13.61,12.674 13.631,12.698 13.648,12.725C13.665,12.751 13.676,12.781 13.681,12.812C13.686,12.844 13.685,12.875 13.678,12.906C13.67,12.937 13.657,12.966 13.638,12.991C13.619,13.017 13.596,13.038 13.568,13.055C13.541,13.071 13.511,13.082 13.479,13.087C13.448,13.092 13.415,13.091 13.384,13.084ZM11.33,12.838C11.068,12.835 10.802,12.844 10.541,12.864C10.477,12.869 10.413,12.848 10.364,12.807C10.315,12.766 10.284,12.707 10.279,12.643C10.274,12.58 10.295,12.517 10.337,12.469C10.379,12.42 10.439,12.39 10.503,12.386C10.779,12.365 11.058,12.355 11.334,12.357C11.399,12.358 11.461,12.384 11.506,12.429C11.551,12.475 11.576,12.536 11.575,12.6C11.575,12.663 11.549,12.724 11.503,12.768C11.457,12.813 11.395,12.838 11.33,12.838ZM9.272,13.048C9.016,13.103 8.759,13.17 8.508,13.246C8.478,13.255 8.445,13.259 8.413,13.256C8.382,13.253 8.351,13.244 8.322,13.229C8.294,13.214 8.269,13.194 8.248,13.17C8.228,13.146 8.212,13.118 8.203,13.088C8.194,13.058 8.19,13.026 8.193,12.995C8.196,12.963 8.205,12.933 8.22,12.905C8.235,12.877 8.256,12.852 8.28,12.832C8.305,12.812 8.334,12.797 8.364,12.787C8.628,12.707 8.899,12.637 9.168,12.579C9.199,12.572 9.231,12.572 9.263,12.577C9.294,12.583 9.325,12.594 9.352,12.611C9.379,12.628 9.402,12.65 9.42,12.676C9.438,12.702 9.451,12.731 9.458,12.762C9.465,12.793 9.466,12.825 9.46,12.856C9.454,12.887 9.442,12.917 9.425,12.943C9.408,12.97 9.385,12.993 9.359,13.011C9.333,13.029 9.303,13.041 9.272,13.048ZM7.312,13.702C7.075,13.811 6.839,13.932 6.612,14.061C6.556,14.093 6.489,14.101 6.427,14.085C6.365,14.068 6.311,14.028 6.279,13.973C6.247,13.918 6.238,13.852 6.255,13.791C6.272,13.729 6.312,13.677 6.368,13.645C6.607,13.509 6.855,13.382 7.105,13.267C7.164,13.24 7.231,13.237 7.292,13.259C7.352,13.28 7.402,13.325 7.429,13.382C7.457,13.44 7.46,13.506 7.438,13.566C7.416,13.626 7.371,13.675 7.312,13.702ZM1.818,20.785C1.786,20.781 1.756,20.77 1.729,20.754C1.701,20.737 1.677,20.716 1.658,20.69C1.639,20.665 1.626,20.636 1.618,20.606C1.61,20.575 1.609,20.543 1.613,20.512C1.655,20.244 1.708,19.973 1.773,19.709C1.788,19.647 1.828,19.593 1.883,19.56C1.938,19.527 2.004,19.516 2.067,19.531C2.13,19.546 2.184,19.585 2.218,19.639C2.252,19.694 2.262,19.759 2.247,19.821C2.186,20.072 2.135,20.329 2.096,20.584C2.091,20.615 2.08,20.645 2.063,20.672C2.047,20.699 2.025,20.722 1.999,20.741C1.974,20.76 1.944,20.773 1.913,20.781C1.882,20.789 1.85,20.79 1.818,20.785ZM5.549,14.766C5.343,14.925 5.141,15.094 4.949,15.27C4.901,15.313 4.838,15.336 4.774,15.334C4.709,15.331 4.648,15.304 4.604,15.257C4.56,15.211 4.537,15.149 4.539,15.085C4.542,15.021 4.569,14.961 4.617,14.918C4.819,14.733 5.032,14.555 5.249,14.388C5.275,14.368 5.304,14.354 5.334,14.345C5.365,14.337 5.398,14.335 5.429,14.338C5.461,14.342 5.492,14.352 5.52,14.368C5.548,14.383 5.572,14.404 5.592,14.429C5.612,14.454 5.626,14.482 5.635,14.513C5.643,14.543 5.645,14.575 5.642,14.606C5.638,14.637 5.627,14.668 5.612,14.695C5.596,14.723 5.575,14.747 5.549,14.766ZM2.317,18.752C2.257,18.728 2.208,18.683 2.183,18.624C2.157,18.566 2.156,18.5 2.18,18.44C2.281,18.188 2.394,17.936 2.517,17.693C2.531,17.664 2.551,17.639 2.575,17.618C2.599,17.598 2.627,17.582 2.658,17.572C2.688,17.562 2.72,17.558 2.752,17.56C2.784,17.562 2.815,17.57 2.844,17.584C2.872,17.598 2.898,17.618 2.919,17.641C2.94,17.665 2.956,17.693 2.966,17.723C2.977,17.752 2.981,17.784 2.979,17.815C2.976,17.847 2.968,17.878 2.954,17.906C2.837,18.137 2.729,18.377 2.633,18.617C2.609,18.676 2.563,18.723 2.503,18.749C2.444,18.774 2.377,18.775 2.317,18.752ZM4.073,16.191C3.907,16.391 3.749,16.601 3.601,16.815C3.565,16.867 3.509,16.903 3.446,16.915C3.383,16.928 3.318,16.915 3.265,16.88C3.211,16.845 3.174,16.79 3.161,16.729C3.148,16.667 3.16,16.602 3.195,16.549C3.196,16.548 3.197,16.546 3.198,16.545C3.353,16.32 3.52,16.099 3.694,15.889C3.734,15.841 3.79,15.81 3.852,15.802C3.914,15.794 3.976,15.81 4.027,15.846C4.077,15.882 4.112,15.936 4.123,15.996C4.134,16.057 4.122,16.119 4.088,16.17C4.083,16.178 4.078,16.185 4.073,16.191Z" fill="#91B3FA"/>
<path d="M1.958,22.361C1.985,22.32 1.999,22.272 1.997,22.223C1.993,22.099 1.992,21.974 1.993,21.849C1.993,21.818 1.987,21.786 1.975,21.757C1.963,21.728 1.945,21.701 1.923,21.679C1.901,21.656 1.874,21.638 1.844,21.626C1.815,21.614 1.783,21.607 1.751,21.607C1.719,21.607 1.688,21.612 1.658,21.624C1.628,21.636 1.601,21.654 1.578,21.676C1.555,21.698 1.537,21.724 1.525,21.753C1.512,21.782 1.506,21.813 1.505,21.845C1.504,21.976 1.506,22.108 1.51,22.238C1.511,22.289 1.529,22.338 1.562,22.379C1.594,22.419 1.638,22.448 1.688,22.462C1.738,22.476 1.791,22.473 1.84,22.455C1.888,22.437 1.93,22.404 1.958,22.361Z" fill="#91B3FA"/>
</g>
<g opacity="0.3">
<path d="M5.073,29.005C5.105,28.957 5.118,28.9 5.11,28.843C5.103,28.787 5.075,28.735 5.032,28.696C4.939,28.613 4.846,28.527 4.756,28.44C4.71,28.395 4.647,28.37 4.583,28.371C4.518,28.372 4.456,28.397 4.411,28.443C4.366,28.488 4.341,28.55 4.341,28.613C4.342,28.677 4.368,28.738 4.414,28.782C4.509,28.874 4.607,28.965 4.705,29.052C4.731,29.076 4.762,29.093 4.796,29.103C4.83,29.114 4.865,29.117 4.9,29.112C4.935,29.108 4.969,29.096 4.999,29.077C5.029,29.059 5.054,29.034 5.073,29.005Z" fill="#91B3FA"/>
<path d="M19.131,27.567C19.112,27.593 19.088,27.615 19.061,27.631C19.034,27.648 19.003,27.659 18.972,27.664C18.94,27.669 18.908,27.668 18.877,27.661C18.845,27.653 18.816,27.64 18.79,27.622C18.764,27.603 18.742,27.58 18.725,27.553C18.708,27.526 18.697,27.496 18.692,27.465C18.687,27.434 18.688,27.402 18.696,27.371C18.703,27.341 18.716,27.312 18.735,27.286C18.885,27.082 19.029,26.867 19.164,26.648C19.18,26.621 19.202,26.597 19.228,26.578C19.253,26.56 19.283,26.546 19.314,26.538C19.345,26.531 19.377,26.529 19.409,26.534C19.44,26.539 19.471,26.55 19.498,26.566C19.526,26.582 19.55,26.604 19.569,26.629C19.588,26.654 19.601,26.683 19.609,26.714C19.617,26.744 19.618,26.776 19.613,26.807C19.609,26.839 19.598,26.868 19.581,26.895C19.523,26.991 19.463,27.085 19.402,27.177C19.315,27.309 19.223,27.441 19.131,27.567ZM19.868,25.857C19.809,25.832 19.762,25.785 19.738,25.726C19.714,25.667 19.715,25.601 19.741,25.542C19.843,25.308 19.936,25.068 20.018,24.827C20.028,24.797 20.044,24.77 20.065,24.746C20.086,24.722 20.112,24.703 20.141,24.689C20.169,24.675 20.2,24.666 20.232,24.664C20.264,24.662 20.296,24.666 20.327,24.676C20.357,24.686 20.385,24.702 20.409,24.722C20.433,24.743 20.453,24.768 20.467,24.796C20.482,24.825 20.49,24.855 20.492,24.887C20.495,24.918 20.491,24.95 20.48,24.98C20.394,25.233 20.296,25.486 20.188,25.732C20.176,25.761 20.157,25.787 20.134,25.809C20.111,25.831 20.084,25.849 20.055,25.86C20.025,25.872 19.993,25.878 19.961,25.877C19.929,25.877 19.897,25.87 19.868,25.857ZM18.281,28.573C18.094,28.766 17.896,28.954 17.692,29.131C17.643,29.173 17.58,29.195 17.515,29.191C17.451,29.187 17.39,29.158 17.348,29.11C17.305,29.063 17.283,29 17.287,28.937C17.291,28.873 17.32,28.814 17.369,28.771C17.562,28.603 17.751,28.425 17.928,28.241C17.973,28.195 18.035,28.169 18.099,28.167C18.164,28.166 18.226,28.189 18.273,28.233C18.32,28.277 18.347,28.338 18.349,28.401C18.35,28.465 18.326,28.527 18.281,28.573ZM20.53,23.905C20.499,23.899 20.469,23.887 20.442,23.87C20.415,23.853 20.392,23.831 20.374,23.805C20.356,23.779 20.343,23.749 20.337,23.718C20.33,23.688 20.33,23.656 20.336,23.625C20.383,23.375 20.421,23.12 20.447,22.868C20.453,22.804 20.485,22.746 20.535,22.706C20.585,22.666 20.649,22.647 20.714,22.653C20.778,22.66 20.837,22.691 20.878,22.74C20.919,22.789 20.938,22.853 20.932,22.916C20.904,23.182 20.865,23.45 20.815,23.713C20.809,23.744 20.797,23.774 20.779,23.8C20.762,23.827 20.739,23.849 20.713,23.867C20.686,23.885 20.657,23.898 20.625,23.904C20.594,23.91 20.562,23.911 20.53,23.905ZM16.639,29.927C16.413,30.075 16.178,30.215 15.94,30.344C15.912,30.36 15.881,30.369 15.849,30.373C15.817,30.376 15.785,30.373 15.754,30.364C15.724,30.356 15.695,30.341 15.67,30.321C15.645,30.302 15.624,30.277 15.609,30.25C15.593,30.222 15.584,30.192 15.58,30.16C15.577,30.129 15.579,30.097 15.588,30.067C15.597,30.037 15.612,30.008 15.632,29.984C15.652,29.959 15.677,29.939 15.705,29.924C15.931,29.801 16.155,29.668 16.369,29.528C16.396,29.51 16.426,29.498 16.457,29.492C16.489,29.486 16.521,29.486 16.552,29.492C16.584,29.498 16.614,29.511 16.64,29.528C16.667,29.546 16.69,29.568 16.707,29.595C16.725,29.621 16.737,29.65 16.743,29.681C16.75,29.712 16.75,29.744 16.743,29.775C16.737,29.806 16.724,29.835 16.707,29.861C16.689,29.887 16.666,29.91 16.639,29.927ZM14.735,30.895C14.482,30.99 14.221,31.077 13.96,31.151C13.929,31.16 13.897,31.163 13.865,31.16C13.834,31.156 13.803,31.146 13.775,31.131C13.747,31.116 13.722,31.096 13.702,31.071C13.682,31.046 13.667,31.018 13.658,30.988C13.649,30.958 13.646,30.926 13.65,30.895C13.653,30.863 13.663,30.833 13.678,30.805C13.694,30.778 13.715,30.753 13.74,30.733C13.765,30.714 13.793,30.699 13.824,30.69C14.072,30.619 14.32,30.537 14.561,30.446C14.59,30.435 14.622,30.43 14.654,30.431C14.686,30.431 14.718,30.438 14.747,30.451C14.776,30.464 14.803,30.482 14.825,30.505C14.847,30.528 14.864,30.555 14.875,30.585C14.887,30.614 14.892,30.645 14.892,30.677C14.891,30.708 14.884,30.739 14.871,30.768C14.858,30.797 14.839,30.823 14.816,30.845C14.792,30.866 14.765,30.883 14.735,30.895ZM12.662,31.43C12.393,31.469 12.12,31.498 11.849,31.515C11.817,31.517 11.785,31.512 11.755,31.502C11.724,31.492 11.697,31.476 11.672,31.455C11.648,31.434 11.629,31.409 11.615,31.381C11.601,31.353 11.592,31.322 11.59,31.29C11.588,31.259 11.593,31.227 11.603,31.198C11.613,31.168 11.63,31.14 11.651,31.117C11.672,31.093 11.698,31.074 11.726,31.06C11.755,31.046 11.786,31.038 11.818,31.036C12.075,31.02 12.335,30.993 12.591,30.955C12.655,30.946 12.72,30.962 12.772,31C12.824,31.038 12.858,31.095 12.868,31.158C12.877,31.221 12.861,31.285 12.822,31.336C12.784,31.387 12.726,31.421 12.662,31.43ZM10.52,31.508C10.249,31.488 9.976,31.457 9.708,31.415C9.676,31.41 9.646,31.399 9.618,31.382C9.591,31.366 9.567,31.344 9.548,31.319C9.53,31.293 9.516,31.264 9.509,31.234C9.501,31.203 9.5,31.171 9.505,31.14C9.51,31.109 9.521,31.079 9.538,31.052C9.555,31.025 9.577,31.002 9.603,30.983C9.629,30.965 9.658,30.952 9.689,30.944C9.72,30.937 9.753,30.936 9.784,30.941C10.039,30.981 10.299,31.011 10.556,31.029C10.588,31.032 10.619,31.04 10.648,31.054C10.676,31.068 10.702,31.088 10.723,31.112C10.744,31.136 10.76,31.163 10.77,31.193C10.78,31.223 10.784,31.255 10.781,31.286C10.779,31.318 10.77,31.348 10.756,31.377C10.741,31.405 10.722,31.43 10.697,31.45C10.673,31.471 10.645,31.487 10.615,31.496C10.584,31.506 10.552,31.51 10.52,31.508ZM8.412,31.12C8.153,31.042 7.893,30.952 7.641,30.853C7.581,30.829 7.533,30.783 7.507,30.725C7.482,30.666 7.481,30.6 7.505,30.541C7.529,30.482 7.576,30.435 7.635,30.41C7.694,30.384 7.762,30.384 7.822,30.407C8.061,30.502 8.308,30.587 8.554,30.661C8.585,30.67 8.613,30.685 8.638,30.705C8.663,30.725 8.683,30.75 8.698,30.778C8.713,30.805 8.723,30.836 8.726,30.867C8.729,30.899 8.726,30.93 8.716,30.96C8.707,30.991 8.692,31.019 8.671,31.043C8.651,31.067 8.626,31.087 8.598,31.102C8.569,31.117 8.539,31.126 8.507,31.129C8.475,31.132 8.443,31.129 8.412,31.12ZM6.444,30.287C6.27,30.19 6.097,30.086 5.93,29.979C5.869,29.94 5.809,29.901 5.75,29.861C5.723,29.844 5.7,29.821 5.682,29.795C5.665,29.769 5.652,29.739 5.646,29.708C5.64,29.677 5.641,29.645 5.647,29.614C5.654,29.583 5.667,29.554 5.685,29.528C5.703,29.502 5.727,29.479 5.753,29.462C5.78,29.445 5.81,29.433 5.842,29.427C5.873,29.421 5.905,29.422 5.937,29.428C5.968,29.434 5.998,29.447 6.024,29.465C6.081,29.502 6.138,29.54 6.195,29.577C6.354,29.679 6.519,29.777 6.684,29.869C6.712,29.885 6.736,29.905 6.756,29.93C6.776,29.955 6.79,29.983 6.799,30.014C6.807,30.044 6.81,30.076 6.806,30.107C6.802,30.138 6.792,30.169 6.776,30.196C6.774,30.2 6.771,30.205 6.768,30.209C6.734,30.26 6.682,30.297 6.622,30.311C6.561,30.326 6.498,30.317 6.444,30.287Z" fill="#91B3FA"/>
<path d="M20.935,21.742C20.962,21.7 20.976,21.652 20.974,21.602C20.969,21.472 20.962,21.34 20.951,21.209C20.949,21.178 20.94,21.147 20.926,21.119C20.911,21.091 20.891,21.066 20.867,21.045C20.843,21.025 20.814,21.009 20.784,21C20.754,20.99 20.721,20.986 20.69,20.988C20.658,20.991 20.626,21 20.598,21.014C20.569,21.028 20.544,21.048 20.523,21.072C20.502,21.096 20.487,21.123 20.477,21.153C20.467,21.183 20.463,21.215 20.465,21.246C20.475,21.371 20.482,21.496 20.487,21.62C20.489,21.671 20.507,21.72 20.539,21.76C20.572,21.8 20.616,21.829 20.666,21.842C20.716,21.856 20.769,21.853 20.817,21.835C20.866,21.817 20.907,21.784 20.935,21.742Z" fill="#91B3FA"/>
</g>
<path d="M17.878,18.937C17.87,18.914 17.856,18.895 17.837,18.881C17.818,18.867 17.795,18.859 17.772,18.859L16.385,18.829C16.048,18.274 15.621,17.777 15.121,17.358L15.319,16.007C15.322,15.984 15.318,15.961 15.307,15.94C15.296,15.919 15.279,15.902 15.258,15.892L13.779,15.142C13.758,15.132 13.734,15.128 13.711,15.131C13.687,15.134 13.665,15.145 13.648,15.161L12.647,16.104C12.01,15.947 11.351,15.894 10.697,15.946L9.866,14.853C9.852,14.834 9.832,14.82 9.81,14.813C9.787,14.806 9.763,14.806 9.74,14.813L8.156,15.313C8.134,15.32 8.114,15.334 8.1,15.352C8.085,15.371 8.078,15.394 8.077,15.417L8.047,16.782C7.483,17.114 6.979,17.535 6.553,18.027L5.181,17.832C5.158,17.829 5.134,17.833 5.113,17.844C5.092,17.854 5.075,17.871 5.064,17.892L4.303,19.348C4.292,19.369 4.288,19.392 4.291,19.416C4.295,19.439 4.305,19.46 4.322,19.477L5.28,20.463C5.12,21.09 5.066,21.739 5.119,22.383L4.008,23.201C3.989,23.215 3.975,23.234 3.968,23.257C3.961,23.279 3.961,23.303 3.968,23.325L4.476,24.885C4.483,24.907 4.497,24.926 4.516,24.94C4.535,24.954 4.558,24.962 4.582,24.963L5.968,24.993C6.306,25.547 6.733,26.044 7.232,26.463L7.035,27.814C7.031,27.837 7.035,27.86 7.046,27.881C7.057,27.902 7.074,27.919 7.095,27.93L8.574,28.679C8.595,28.69 8.619,28.694 8.643,28.69C8.666,28.687 8.688,28.676 8.705,28.66L9.706,27.717C10.343,27.874 11.002,27.927 11.657,27.875L12.487,28.969C12.501,28.987 12.521,29.001 12.544,29.008C12.566,29.015 12.591,29.015 12.613,29.008L14.197,28.509C14.22,28.501 14.239,28.488 14.254,28.469C14.268,28.45 14.276,28.428 14.276,28.404L14.307,27.039C14.87,26.707 15.375,26.286 15.8,25.794L17.172,25.989C17.195,25.992 17.219,25.988 17.24,25.978C17.262,25.967 17.279,25.95 17.29,25.929L18.051,24.473C18.062,24.452 18.066,24.429 18.062,24.406C18.059,24.383 18.048,24.361 18.032,24.344L17.074,23.358C17.233,22.731 17.287,22.082 17.234,21.438L18.345,20.62C18.364,20.606 18.378,20.587 18.385,20.565C18.392,20.542 18.392,20.518 18.385,20.496L17.878,18.937Z" fill="#91B3FA"/>
<path d="M12.431,22.999C12.144,23.319 11.744,23.516 11.313,23.55C10.881,23.585 10.454,23.453 10.119,23.183C9.784,22.913 9.569,22.526 9.519,22.103C9.468,21.68 9.586,21.254 9.847,20.915C10.109,20.576 10.494,20.35 10.921,20.285C11.349,20.219 11.785,20.32 12.139,20.565C12.493,20.81 12.736,21.18 12.819,21.598C12.901,22.016 12.815,22.45 12.579,22.807C12.535,22.874 12.485,22.939 12.431,22.999ZM9.897,21.99C9.916,22.281 10.037,22.557 10.239,22.771C10.441,22.985 10.712,23.123 11.006,23.162C11.3,23.2 11.598,23.138 11.851,22.984C12.103,22.831 12.293,22.596 12.389,22.319C12.485,22.043 12.481,21.743 12.378,21.469C12.274,21.196 12.077,20.966 11.82,20.819C11.564,20.673 11.264,20.618 10.971,20.665C10.678,20.712 10.411,20.857 10.215,21.076C10.173,21.123 10.135,21.173 10.1,21.225C9.95,21.452 9.879,21.72 9.897,21.99Z" fill="#BDD0FB"/>
<path d="M14.585,24.131C14.662,24.014 14.733,23.894 14.797,23.771C14.818,23.732 14.838,23.692 14.857,23.653C14.951,23.457 15.029,23.254 15.091,23.047C15.092,23.044 15.093,23.041 15.094,23.038C15.096,23.03 15.098,23.022 15.1,23.014C15.105,22.999 15.109,22.983 15.114,22.967C15.117,22.955 15.118,22.942 15.116,22.93C15.115,22.917 15.11,22.905 15.104,22.894C15.098,22.883 15.089,22.874 15.079,22.866C15.069,22.858 15.057,22.853 15.045,22.849C15.033,22.846 15.02,22.845 15.007,22.847C14.994,22.849 14.982,22.853 14.971,22.859C14.96,22.865 14.95,22.874 14.942,22.884C14.934,22.894 14.929,22.905 14.925,22.917C14.717,23.679 14.277,24.359 13.664,24.867C13.051,25.375 12.294,25.686 11.496,25.757C10.756,25.825 10.011,25.683 9.35,25.347C9.231,25.286 9.114,25.22 9.002,25.148C8.511,24.832 8.098,24.412 7.794,23.919C7.491,23.425 7.303,22.871 7.246,22.296C7.188,21.722 7.263,21.142 7.463,20.6C7.664,20.058 7.986,19.567 8.405,19.163C8.823,18.759 9.329,18.453 9.884,18.268C10.439,18.082 11.029,18.022 11.611,18.091C12.193,18.16 12.752,18.357 13.247,18.667C13.741,18.977 14.158,19.392 14.468,19.882C14.475,19.893 14.484,19.902 14.494,19.909C14.504,19.917 14.516,19.922 14.529,19.925C14.541,19.928 14.554,19.928 14.567,19.926C14.579,19.924 14.592,19.92 14.602,19.913C14.613,19.906 14.623,19.898 14.63,19.887C14.638,19.877 14.643,19.865 14.646,19.853C14.649,19.841 14.649,19.828 14.647,19.816C14.645,19.803 14.641,19.791 14.634,19.781C14.241,19.159 13.684,18.654 13.023,18.319C11.008,17.298 8.524,18.082 7.487,20.066C7.022,20.957 6.908,21.985 7.168,22.954C7.428,23.922 8.043,24.761 8.895,25.309C9.013,25.384 9.135,25.454 9.261,25.518C10.165,25.976 11.21,26.088 12.194,25.832C13.177,25.575 14.029,24.969 14.585,24.131Z" fill="#BDD0FB"/>
<g opacity="0.3">
<path d="M27.35,11.397C27.368,11.37 27.376,11.338 27.374,11.306C27.372,11.274 27.359,11.244 27.338,11.219C27.255,11.124 27.168,11.029 27.079,10.939C27.065,10.925 27.048,10.914 27.03,10.906C27.012,10.898 26.993,10.894 26.973,10.894C26.953,10.894 26.934,10.897 26.915,10.904C26.897,10.911 26.88,10.922 26.866,10.936C26.852,10.949 26.84,10.965 26.832,10.983C26.824,11.001 26.82,11.02 26.82,11.04C26.82,11.059 26.823,11.078 26.83,11.097C26.838,11.115 26.848,11.131 26.862,11.145C26.947,11.231 27.03,11.321 27.11,11.412C27.136,11.442 27.173,11.461 27.212,11.464C27.252,11.467 27.292,11.454 27.322,11.428C27.333,11.419 27.342,11.408 27.35,11.397Z" fill="#91B3FA"/>
<path d="M26.51,10.615C26.484,10.646 26.448,10.665 26.408,10.67C26.369,10.674 26.329,10.662 26.298,10.638C26.134,10.508 25.963,10.386 25.786,10.273C25.749,10.249 25.712,10.226 25.674,10.202C25.64,10.182 25.616,10.149 25.607,10.11C25.598,10.072 25.604,10.032 25.625,9.998C25.647,9.966 25.681,9.943 25.719,9.934C25.758,9.925 25.798,9.931 25.833,9.951C25.872,9.975 25.912,9.999 25.95,10.024C26.136,10.143 26.315,10.27 26.487,10.407C26.516,10.43 26.535,10.463 26.541,10.499C26.547,10.535 26.539,10.572 26.519,10.603C26.516,10.607 26.513,10.611 26.51,10.615ZM25.001,9.845C24.769,9.74 24.531,9.648 24.289,9.572C24.251,9.56 24.219,9.533 24.201,9.498C24.182,9.463 24.179,9.423 24.191,9.385C24.203,9.348 24.23,9.317 24.266,9.299C24.301,9.281 24.343,9.277 24.381,9.289C24.635,9.37 24.884,9.466 25.127,9.576C25.163,9.593 25.191,9.623 25.205,9.66C25.219,9.697 25.217,9.737 25.201,9.773C25.198,9.779 25.194,9.786 25.19,9.792C25.17,9.821 25.14,9.843 25.106,9.853C25.071,9.863 25.034,9.86 25.001,9.845ZM23.547,9.387C23.297,9.341 23.043,9.309 22.788,9.294C22.749,9.292 22.711,9.274 22.685,9.244C22.659,9.215 22.645,9.176 22.648,9.137C22.65,9.098 22.668,9.061 22.698,9.035C22.728,9.009 22.767,8.996 22.807,8.998C23.074,9.014 23.34,9.047 23.603,9.095C23.642,9.103 23.677,9.125 23.699,9.157C23.722,9.19 23.73,9.23 23.723,9.268C23.716,9.307 23.693,9.341 23.66,9.363C23.627,9.386 23.587,9.394 23.547,9.387ZM22.024,9.294C21.769,9.31 21.516,9.341 21.265,9.387C21.226,9.394 21.186,9.386 21.153,9.363C21.12,9.341 21.097,9.307 21.09,9.268C21.082,9.23 21.091,9.19 21.113,9.158C21.136,9.125 21.171,9.103 21.21,9.095C21.473,9.047 21.738,9.015 22.005,8.998C22.045,8.996 22.084,9.009 22.114,9.035C22.144,9.061 22.162,9.098 22.165,9.137C22.167,9.176 22.154,9.215 22.127,9.244C22.101,9.274 22.064,9.292 22.024,9.294ZM20.524,9.57C20.281,9.646 20.042,9.737 19.811,9.842C19.793,9.85 19.773,9.854 19.753,9.855C19.734,9.856 19.714,9.853 19.695,9.846C19.677,9.839 19.66,9.829 19.645,9.816C19.631,9.802 19.619,9.787 19.611,9.769C19.603,9.751 19.598,9.732 19.597,9.712C19.597,9.693 19.6,9.674 19.607,9.655C19.614,9.637 19.624,9.62 19.637,9.606C19.651,9.592 19.667,9.58 19.685,9.572C19.928,9.463 20.178,9.368 20.432,9.288C20.471,9.276 20.512,9.279 20.547,9.297C20.583,9.315 20.609,9.347 20.622,9.384C20.634,9.422 20.63,9.462 20.612,9.497C20.593,9.532 20.562,9.558 20.524,9.57ZM19.137,10.197C18.92,10.329 18.712,10.474 18.513,10.631C18.482,10.655 18.442,10.667 18.403,10.663C18.363,10.658 18.327,10.639 18.302,10.608C18.277,10.578 18.265,10.538 18.269,10.499C18.274,10.46 18.294,10.424 18.325,10.4C18.533,10.235 18.751,10.083 18.979,9.945C19.013,9.924 19.054,9.917 19.093,9.926C19.131,9.935 19.165,9.959 19.186,9.993C19.207,10.026 19.214,10.067 19.204,10.105C19.195,10.143 19.171,10.176 19.137,10.197ZM17.949,11.138C17.771,11.318 17.605,11.509 17.452,11.71C17.428,11.741 17.392,11.762 17.352,11.767C17.313,11.773 17.273,11.762 17.241,11.739C17.209,11.715 17.188,11.68 17.182,11.641C17.177,11.602 17.187,11.563 17.211,11.531C17.372,11.321 17.546,11.121 17.732,10.932C17.76,10.903 17.798,10.887 17.838,10.886C17.878,10.886 17.916,10.901 17.945,10.928C17.974,10.956 17.99,10.993 17.991,11.032C17.992,11.072 17.976,11.11 17.949,11.138ZM16.492,13.091C16.474,13.083 16.457,13.072 16.444,13.058C16.43,13.044 16.419,13.028 16.411,13.01C16.404,12.992 16.4,12.972 16.4,12.953C16.4,12.934 16.404,12.914 16.412,12.896C16.503,12.686 16.605,12.48 16.718,12.28C16.735,12.25 16.752,12.22 16.77,12.19C16.79,12.156 16.822,12.131 16.861,12.121C16.9,12.111 16.941,12.116 16.975,12.136C17.01,12.155 17.035,12.188 17.045,12.226C17.056,12.264 17.05,12.304 17.03,12.338C17.014,12.366 16.997,12.395 16.981,12.424C16.873,12.615 16.776,12.811 16.689,13.012C16.686,13.02 16.682,13.028 16.677,13.035C16.658,13.064 16.629,13.086 16.595,13.096C16.561,13.106 16.525,13.104 16.492,13.091Z" fill="#91B3FA"/>
</g>
<g opacity="0.3">
<path d="M27.805,18.953C27.658,19.168 27.499,19.375 27.328,19.571C27.302,19.601 27.265,19.619 27.225,19.622C27.185,19.625 27.146,19.612 27.116,19.587C27.085,19.561 27.067,19.525 27.064,19.485C27.061,19.446 27.074,19.407 27.1,19.378C27.263,19.19 27.415,18.993 27.554,18.788C27.576,18.756 27.611,18.733 27.65,18.725C27.689,18.718 27.729,18.725 27.762,18.747C27.795,18.768 27.819,18.802 27.827,18.84C27.835,18.879 27.827,18.918 27.806,18.951L27.805,18.953ZM28,18.348C27.983,18.339 27.967,18.327 27.954,18.312C27.941,18.297 27.931,18.28 27.925,18.262C27.919,18.243 27.917,18.224 27.918,18.204C27.92,18.185 27.925,18.166 27.934,18.149C28.048,17.928 28.148,17.701 28.233,17.469C28.247,17.432 28.275,17.402 28.311,17.385C28.348,17.369 28.389,17.367 28.426,17.38C28.464,17.394 28.495,17.421 28.511,17.457C28.528,17.493 28.53,17.534 28.516,17.571C28.426,17.814 28.322,18.052 28.203,18.283C28.2,18.287 28.197,18.292 28.195,18.297C28.174,18.327 28.143,18.349 28.107,18.359C28.072,18.368 28.033,18.364 28,18.348ZM26.778,20.128C26.583,20.302 26.378,20.464 26.163,20.614C26.131,20.637 26.09,20.646 26.051,20.639C26.012,20.633 25.977,20.611 25.953,20.579C25.93,20.547 25.921,20.507 25.928,20.468C25.935,20.429 25.957,20.395 25.989,20.372C26.194,20.229 26.39,20.074 26.576,19.908C26.59,19.895 26.607,19.885 26.626,19.878C26.645,19.872 26.664,19.869 26.684,19.87C26.704,19.871 26.723,19.876 26.741,19.884C26.759,19.892 26.775,19.904 26.788,19.918C26.802,19.933 26.812,19.95 26.819,19.968C26.825,19.986 26.828,20.006 26.827,20.025C26.826,20.045 26.821,20.064 26.813,20.081C26.804,20.099 26.793,20.115 26.778,20.128ZM28.56,16.937C28.521,16.928 28.487,16.904 28.466,16.871C28.445,16.838 28.438,16.797 28.447,16.759C28.503,16.518 28.545,16.274 28.571,16.029C28.573,16.009 28.579,15.99 28.588,15.973C28.597,15.956 28.61,15.941 28.626,15.929C28.641,15.917 28.659,15.907 28.678,15.902C28.697,15.896 28.716,15.894 28.736,15.896C28.756,15.898 28.775,15.904 28.792,15.914C28.81,15.923 28.825,15.935 28.837,15.951C28.85,15.966 28.859,15.983 28.865,16.002C28.87,16.021 28.872,16.04 28.87,16.059C28.843,16.317 28.799,16.573 28.74,16.826C28.731,16.864 28.707,16.897 28.673,16.918C28.64,16.939 28.599,16.946 28.56,16.937ZM25.494,21.023C25.262,21.146 25.023,21.255 24.779,21.349C24.741,21.364 24.7,21.363 24.663,21.347C24.627,21.331 24.598,21.302 24.584,21.265C24.569,21.229 24.57,21.188 24.586,21.152C24.602,21.116 24.632,21.088 24.669,21.073C24.902,20.983 25.13,20.879 25.351,20.762C25.386,20.743 25.427,20.739 25.465,20.75C25.504,20.762 25.536,20.787 25.555,20.822C25.574,20.857 25.578,20.897 25.567,20.935C25.555,20.973 25.529,21.004 25.494,21.023ZM24.029,21.589C23.774,21.653 23.516,21.703 23.255,21.737C23.215,21.742 23.175,21.732 23.144,21.708C23.112,21.684 23.091,21.649 23.086,21.61C23.081,21.571 23.091,21.532 23.116,21.5C23.14,21.469 23.176,21.449 23.215,21.443C23.464,21.411 23.711,21.363 23.954,21.302C23.992,21.292 24.033,21.297 24.068,21.317C24.102,21.337 24.127,21.37 24.137,21.408C24.147,21.446 24.141,21.487 24.121,21.52C24.101,21.554 24.067,21.579 24.029,21.589ZM22.468,21.793C22.205,21.796 21.942,21.783 21.68,21.754C21.641,21.75 21.604,21.73 21.58,21.7C21.555,21.669 21.543,21.63 21.547,21.591C21.552,21.552 21.572,21.516 21.603,21.491C21.634,21.467 21.674,21.455 21.714,21.46C21.963,21.487 22.214,21.499 22.465,21.496C22.485,21.496 22.504,21.5 22.523,21.507C22.541,21.514 22.558,21.525 22.572,21.539C22.586,21.552 22.597,21.568 22.605,21.586C22.613,21.604 22.617,21.623 22.617,21.643C22.617,21.672 22.609,21.701 22.593,21.725C22.579,21.746 22.561,21.763 22.539,21.774C22.517,21.786 22.493,21.793 22.468,21.793Z" fill="#91B3FA"/>
<path d="M28.88,15.36C28.896,15.335 28.905,15.306 28.904,15.277C28.902,15.15 28.896,15.022 28.886,14.898C28.884,14.879 28.879,14.86 28.87,14.842C28.861,14.825 28.849,14.809 28.834,14.797C28.819,14.784 28.801,14.775 28.782,14.768C28.764,14.762 28.744,14.76 28.724,14.762C28.704,14.763 28.685,14.768 28.667,14.777C28.65,14.786 28.634,14.798 28.621,14.813C28.608,14.828 28.599,14.845 28.593,14.864C28.586,14.882 28.584,14.902 28.586,14.921C28.595,15.04 28.601,15.161 28.603,15.282C28.604,15.314 28.615,15.345 28.634,15.37C28.654,15.395 28.681,15.413 28.712,15.422C28.743,15.431 28.776,15.429 28.807,15.418C28.837,15.407 28.863,15.387 28.88,15.36Z" fill="#91B3FA"/>
</g>
<path d="M26.841,13.376C26.837,13.361 26.827,13.348 26.814,13.339C26.802,13.33 26.786,13.324 26.77,13.324L25.843,13.304C25.617,12.933 25.331,12.6 24.997,12.32L25.129,11.416C25.131,11.401 25.129,11.385 25.121,11.371C25.114,11.357 25.103,11.346 25.089,11.339L24.099,10.837C24.085,10.83 24.069,10.827 24.053,10.83C24.037,10.832 24.023,10.839 24.011,10.85L23.341,11.481C22.915,11.376 22.474,11.34 22.036,11.375L21.481,10.643C21.471,10.631 21.458,10.622 21.443,10.617C21.428,10.612 21.411,10.612 21.396,10.617L20.336,10.951C20.321,10.956 20.308,10.965 20.298,10.978C20.289,10.99 20.284,11.005 20.283,11.021L20.263,11.934C19.886,12.157 19.548,12.438 19.263,12.768L18.346,12.637C18.33,12.635 18.314,12.638 18.3,12.645C18.286,12.652 18.274,12.663 18.267,12.677L17.758,13.652C17.75,13.665 17.748,13.681 17.75,13.697C17.752,13.712 17.759,13.727 17.77,13.738L18.412,14.397C18.305,14.817 18.269,15.251 18.304,15.683L17.561,16.23C17.548,16.239 17.539,16.252 17.534,16.267C17.529,16.282 17.529,16.298 17.534,16.313L17.874,17.356C17.878,17.371 17.888,17.384 17.901,17.394C17.913,17.403 17.929,17.408 17.944,17.408L18.872,17.429C19.098,17.8 19.384,18.132 19.718,18.413L19.586,19.316C19.584,19.332 19.586,19.348 19.594,19.362C19.601,19.375 19.612,19.387 19.626,19.394L20.616,19.895C20.63,19.903 20.646,19.905 20.662,19.903C20.678,19.901 20.692,19.894 20.704,19.883L21.374,19.252C21.8,19.356 22.241,19.392 22.679,19.358L23.234,20.089C23.244,20.102 23.257,20.111 23.272,20.116C23.287,20.12 23.304,20.12 23.319,20.116L24.379,19.781C24.394,19.777 24.407,19.767 24.416,19.755C24.426,19.742 24.431,19.727 24.432,19.711L24.452,18.798C24.829,18.576 25.167,18.294 25.451,17.965L26.369,18.095C26.385,18.098 26.401,18.095 26.415,18.088C26.429,18.081 26.441,18.069 26.448,18.055L26.957,17.081C26.965,17.067 26.967,17.051 26.965,17.036C26.963,17.02 26.956,17.006 26.945,16.995L26.303,16.335C26.41,15.915 26.446,15.481 26.411,15.05L27.154,14.503C27.167,14.493 27.176,14.48 27.181,14.466C27.186,14.451 27.186,14.435 27.181,14.42L26.841,13.376Z" fill="#91B3FA"/>
<path d="M23.212,16.108C23.017,16.324 22.745,16.458 22.452,16.482C22.159,16.505 21.869,16.415 21.642,16.232C21.414,16.049 21.268,15.786 21.234,15.498C21.2,15.211 21.28,14.922 21.457,14.692C21.635,14.461 21.896,14.308 22.187,14.263C22.477,14.219 22.773,14.287 23.014,14.453C23.254,14.619 23.42,14.871 23.476,15.154C23.532,15.438 23.474,15.733 23.314,15.975C23.283,16.022 23.249,16.066 23.212,16.108ZM21.803,15.985C21.886,16.057 21.982,16.112 22.086,16.147C22.19,16.182 22.3,16.196 22.41,16.19C22.52,16.183 22.627,16.155 22.726,16.107C22.825,16.059 22.913,15.993 22.986,15.912C23.133,15.748 23.207,15.533 23.193,15.315C23.179,15.096 23.078,14.892 22.911,14.748C22.745,14.603 22.527,14.53 22.305,14.543C22.083,14.557 21.876,14.657 21.729,14.821C21.702,14.851 21.677,14.883 21.655,14.917C21.546,15.083 21.501,15.282 21.528,15.478C21.555,15.674 21.653,15.854 21.803,15.985Z" fill="#BDD0FB"/>
<path d="M24.712,16.895C24.763,16.816 24.812,16.735 24.856,16.649C24.945,16.48 25.015,16.303 25.067,16.12C25.07,16.112 25.072,16.103 25.074,16.095C25.079,16.076 25.081,16.057 25.078,16.037C25.076,16.018 25.069,15.999 25.06,15.982C25.05,15.965 25.037,15.951 25.021,15.939C25.005,15.927 24.987,15.918 24.968,15.913C24.949,15.908 24.929,15.907 24.909,15.909C24.89,15.912 24.871,15.918 24.854,15.928C24.837,15.938 24.822,15.951 24.809,15.966C24.797,15.982 24.789,15.999 24.784,16.018C24.737,16.19 24.671,16.356 24.589,16.514L24.588,16.514C24.584,16.522 24.579,16.531 24.575,16.54C24.379,16.906 24.094,17.218 23.744,17.448C23.553,17.572 23.347,17.671 23.13,17.742L23.124,17.743C23.119,17.745 23.114,17.747 23.108,17.749C22.791,17.849 22.457,17.888 22.125,17.86C21.793,17.833 21.47,17.742 21.174,17.591C21.097,17.552 21.022,17.509 20.949,17.462C20.631,17.258 20.364,16.986 20.167,16.666C19.97,16.347 19.849,15.988 19.812,15.616C19.775,15.244 19.823,14.869 19.953,14.518C20.083,14.167 20.291,13.849 20.562,13.588C20.833,13.326 21.161,13.128 21.52,13.008C21.879,12.888 22.261,12.849 22.638,12.894C23.015,12.938 23.377,13.066 23.697,13.266C24.017,13.467 24.287,13.736 24.488,14.053C24.509,14.086 24.542,14.11 24.581,14.119C24.62,14.128 24.661,14.122 24.695,14.101C24.729,14.08 24.753,14.047 24.762,14.009C24.771,13.97 24.764,13.93 24.743,13.897C24.519,13.542 24.217,13.241 23.859,13.016C23.501,12.792 23.096,12.649 22.674,12.599C22.253,12.549 21.825,12.593 21.423,12.727C21.021,12.862 20.655,13.083 20.351,13.375C20.048,13.668 19.815,14.024 19.67,14.416C19.524,14.809 19.471,15.229 19.512,15.645C19.554,16.061 19.689,16.463 19.91,16.82C20.13,17.178 20.429,17.482 20.784,17.71C20.866,17.763 20.95,17.811 21.036,17.855C21.661,18.17 22.382,18.247 23.061,18.07C23.74,17.892 24.328,17.474 24.712,16.895Z" fill="#BDD0FB"/>
<path d="M57.843,26.959L53.464,31.369L58.716,29.987L57.843,26.959Z" fill="#91B3FA"/>
<path d="M83.895,28.784L59.017,29.973C58.865,29.98 58.714,29.957 58.572,29.905C58.43,29.853 58.3,29.773 58.19,29.67C58.08,29.567 57.993,29.443 57.933,29.306C57.874,29.169 57.843,29.021 57.843,28.872L57.843,18.794C57.843,18.267 58.051,17.761 58.424,17.383C58.796,17.004 59.303,16.784 59.838,16.767L82.26,16.084C82.657,16.084 83.05,16.161 83.417,16.311C83.784,16.461 84.117,16.68 84.398,16.956C84.679,17.233 84.901,17.561 85.053,17.922C85.205,18.283 85.283,18.67 85.283,19.061L85.283,27.349C85.283,27.718 85.139,28.073 84.881,28.34C84.622,28.607 84.269,28.766 83.895,28.784Z" fill="#91B3FA"/>
<g opacity="0.85">
<path d="M59.761,29.568C59.353,29.568 58.962,29.408 58.675,29.124C58.387,28.84 58.225,28.455 58.225,28.053L58.225,18.971C58.225,17.9 59.096,17.036 60.209,17.003L81.918,16.357C83.564,16.357 84.901,17.643 84.901,19.223L84.901,27.054C84.901,27.807 84.288,28.426 83.505,28.463L59.836,29.566C59.811,29.568 59.786,29.568 59.761,29.568ZM81.92,16.463L60.212,17.109C59.158,17.14 58.333,17.958 58.333,18.971L58.333,28.053C58.333,28.244 58.372,28.433 58.448,28.608C58.524,28.783 58.636,28.941 58.776,29.073C58.916,29.204 59.082,29.306 59.263,29.373C59.444,29.44 59.637,29.469 59.831,29.46L83.5,28.356C84.225,28.323 84.793,27.751 84.793,27.054L84.793,19.223C84.793,17.701 83.504,16.463 81.92,16.463Z" fill="#FFFFFF"/>
</g>
<path d="M81.848,18.301L61.955,19.034C61.759,19.041 61.605,19.168 61.612,19.318L61.619,19.49C61.626,19.638 61.787,19.751 61.98,19.744L81.874,19.029C82.069,19.022 82.223,18.895 82.217,18.745L82.209,18.555C82.202,18.407 82.041,18.294 81.848,18.301Z" fill="url(#pf_0_i_31_1259;23_730;14_265)"/>
<path d="M80.067,23.26L60.174,23.989C59.979,23.996 59.825,24.128 59.832,24.283L59.84,24.461C59.846,24.614 60.008,24.732 60.201,24.725L80.095,24.014C80.29,24.007 80.444,23.875 80.438,23.72L80.429,23.524C80.422,23.37 80.261,23.252 80.067,23.26Z" fill="url(#pf_0_i_31_1259;23_730;14_266)"/>
<path d="M82.391,25.334L60.215,26.158C59.997,26.166 59.825,26.3 59.832,26.457L59.84,26.637C59.847,26.791 60.026,26.91 60.241,26.902L82.419,26.096C82.637,26.088 82.809,25.954 82.802,25.798L82.793,25.599C82.787,25.444 82.607,25.326 82.391,25.334Z" fill="url(#pf_0_i_31_1259;23_730;14_267)"/>
<path d="M70.941,21.224L60.098,21.536C59.992,21.539 59.912,21.682 59.921,21.856L59.931,22.056C59.939,22.228 60.031,22.364 60.137,22.362L70.98,22.071C71.087,22.068 71.167,21.924 71.158,21.75L71.147,21.53C71.138,21.358 71.046,21.221 70.941,21.224Z" fill="url(#pf_0_i_31_1259;23_730;14_268)"/>
<path d="M82.888,20.855L72.639,21.145C72.539,21.147 72.464,21.291 72.473,21.465L72.483,21.665C72.492,21.837 72.579,21.973 72.679,21.971L82.928,21.702C83.029,21.699 83.104,21.556 83.095,21.382L83.084,21.161C83.075,20.989 82.988,20.852 82.888,20.855Z" fill="url(#pf_0_i_31_1259;23_730;14_269)"/>
<path d="M20.068,84.368C20.068,84.368 19.863,85.511 19.762,86.643C19.753,86.748 19.766,86.854 19.799,86.954C19.833,87.054 19.887,87.146 19.958,87.225C20.028,87.304 20.115,87.368 20.211,87.413C20.308,87.458 20.413,87.483 20.52,87.488C22.05,87.55 25.323,87.672 26.498,87.621C26.539,87.619 26.579,87.607 26.614,87.587C26.65,87.567 26.68,87.539 26.702,87.505C26.724,87.471 26.738,87.432 26.742,87.392C26.746,87.351 26.74,87.311 26.725,87.273C26.67,87.138 26.564,87.028 26.43,86.967L21.023,84.52L20.068,84.368Z" fill="url(#pf_0_i_31_1259;23_730;14_270)"/>
<path d="M19.9,83.697L20.064,85.064C20.064,85.064 21.012,85.498 21.659,85.009L21.266,83.486L19.9,83.697Z" fill="url(#pf_0_i_31_1259;23_730;14_271)"/>
<path d="M20.024,57.992C19.952,58.349 19.642,75.81 21.537,83.634C21.553,83.696 21.545,83.761 21.516,83.818C21.487,83.874 21.438,83.919 21.379,83.943C20.886,84.131 20.364,84.236 19.835,84.252C19.732,84.256 19.631,84.225 19.548,84.166C19.464,84.106 19.403,84.021 19.374,83.924C18.832,82.108 16.236,73.012 15.897,64.323C15.519,54.614 15.897,63.993 15.897,63.993L16.119,57.991L20.024,57.992Z" fill="url(#pf_0_i_31_1259;23_730;14_272)"/>
<path d="M13.848,84.965C13.848,84.965 13.521,85.542 13.205,87.075C13.191,87.14 13.192,87.208 13.206,87.273C13.221,87.338 13.249,87.399 13.289,87.453C13.329,87.507 13.38,87.552 13.439,87.585C13.498,87.618 13.563,87.638 13.63,87.645C14.136,87.694 14.914,87.757 15.537,87.752C15.604,87.752 15.671,87.738 15.733,87.71C15.795,87.683 15.85,87.643 15.895,87.593C15.94,87.543 15.974,87.484 15.994,87.421C16.015,87.357 16.021,87.29 16.013,87.223C15.944,86.664 15.729,85.745 15.065,85.03L13.848,84.965Z" fill="url(#pf_0_i_31_1259;23_730;14_273)"/>
<path d="M13.561,83.206L13.946,85.274C13.946,85.274 14.327,85.553 15.079,85.35L14.896,83.126L13.561,83.206Z" fill="url(#pf_0_i_31_1259;23_730;14_274)"/>
<path d="M12.521,58.528C10.971,67.74 12.857,81.297 13.494,83.95C13.512,84.03 13.555,84.102 13.615,84.158C13.675,84.214 13.751,84.251 13.833,84.265C14.117,84.311 14.584,84.349 15.045,84.217C15.123,84.195 15.191,84.149 15.241,84.086C15.291,84.024 15.319,83.947 15.322,83.868C15.408,81.723 15.254,68.553 16.699,63.348C16.772,63.085 16.935,62.854 17.162,62.696L19.965,60.734L20.18,57.561L12.521,58.528Z" fill="url(#pf_0_i_31_1259;23_730;14_275)"/>
<path d="M22.4,41.072C17.754,40.996 12.627,42.273 12.627,42.273C11.242,50.23 12.385,59.407 12.385,59.407C15.982,60.336 20.039,58.839 20.039,58.839C20.637,55.513 23.426,46.154 23.426,46.154C25.696,45.877 27.566,45.232 29.106,44.379C27.932,43.039 27.378,41.333 27.137,40.324C25.495,40.827 23.833,41.095 22.4,41.072Z" fill="url(#pf_0_i_31_1259;23_730;14_276)"/>
<path d="M36.123,34.334C35.666,33.791 35.089,34.048 35.089,34.048C34.405,36.892 30.82,39.197 27.137,40.324C27.378,41.333 27.932,43.039 29.106,44.379C35.218,40.995 36.123,34.334 36.123,34.334Z" fill="url(#pf_0_i_31_1259;23_730;14_277)"/>
<path d="M36.012,34.472C36.06,34.621 35.507,34.849 35.181,34.238C35.17,33.945 34.989,32.689 35.167,32.451C36.114,31.179 37.95,29.586 37.95,29.586C38.26,29.887 38.005,30.183 38.005,30.183L37.114,31.097C37.3,31.429 37.527,31.708 37.634,32.109C37.712,32.415 37.667,32.739 37.509,33.014C37.353,33.291 37.14,33.652 36.938,33.934C36.556,34.468 36.012,34.472 36.012,34.472Z" fill="url(#pf_0_i_31_1259;23_730;14_278)"/>
<path d="M36.724,31.69L35.912,32.367L35.658,33.042L36.381,33.832C36.381,33.832 36.625,32.494 36.805,32.204C36.986,31.915 36.893,31.775 36.724,31.69Z" fill="url(#pf_0_i_31_1259;23_730;14_279)"/>
<path d="M14.409,46.703L12.627,42.273C12.627,42.273 8.288,45.176 7.574,48.857C8.394,48.917 9.886,49.127 11.347,49.853C11.667,48.115 14.409,46.703 14.409,46.703Z" fill="url(#pf_0_i_31_1259;23_730;14_280)"/>
<path d="M18.202,50.871C18.202,50.871 13.329,53.582 11.685,51.267C11.344,50.786 11.262,50.308 11.347,49.853C9.886,49.127 8.394,48.917 7.574,48.857C7.359,49.967 7.473,51.147 8.135,52.34C11.015,57.527 18.846,52.054 18.846,52.054L18.202,50.871Z" fill="url(#pf_0_i_31_1259;23_730;14_281)"/>
<path d="M17.616,54.301L20.275,45.157C20.29,45.107 20.319,45.061 20.36,45.027C20.401,44.993 20.451,44.971 20.504,44.965C20.986,44.91 22.382,44.755 23.994,44.62C25.935,44.459 28.19,44.328 29.537,44.439C29.582,44.443 29.624,44.457 29.662,44.48C29.699,44.503 29.73,44.536 29.752,44.574C29.774,44.612 29.786,44.654 29.787,44.698C29.789,44.742 29.779,44.785 29.76,44.824C28.993,46.35 25.842,52.559 24.264,54.592C24.238,54.626 24.205,54.653 24.167,54.671C24.129,54.689 24.087,54.699 24.044,54.698L17.875,54.642C17.833,54.642 17.792,54.632 17.754,54.613C17.717,54.594 17.685,54.567 17.66,54.534C17.635,54.501 17.618,54.463 17.61,54.423C17.603,54.382 17.605,54.34 17.616,54.301Z" fill="#91B3FA"/>
<path d="M24.27,43.828L26.198,43.511C26.221,43.507 26.245,43.51 26.268,43.518C26.29,43.526 26.31,43.539 26.325,43.557C26.341,43.575 26.352,43.596 26.356,43.619C26.361,43.642 26.359,43.666 26.352,43.688L26.161,44.258C26.153,44.282 26.138,44.304 26.118,44.32C26.098,44.336 26.074,44.347 26.048,44.35L24.193,44.594C24.17,44.597 24.148,44.595 24.127,44.587C24.106,44.579 24.087,44.567 24.072,44.551C24.057,44.534 24.046,44.515 24.04,44.493C24.035,44.472 24.035,44.45 24.04,44.428L24.158,43.931C24.164,43.905 24.178,43.881 24.198,43.863C24.218,43.844 24.243,43.832 24.27,43.828Z" fill="#BDD0FB"/>
<path d="M22.826,45.435L22.985,44.62C22.993,44.58 23.013,44.544 23.044,44.517C23.074,44.489 23.113,44.472 23.153,44.468L27.047,44.079C27.078,44.076 27.108,44.08 27.137,44.091C27.165,44.102 27.191,44.12 27.211,44.143C27.231,44.165 27.245,44.192 27.252,44.222C27.26,44.251 27.26,44.281 27.253,44.31L27.005,45.325C26.995,45.365 26.973,45.4 26.941,45.426C26.909,45.452 26.87,45.468 26.829,45.47L23.024,45.658C22.995,45.66 22.966,45.655 22.939,45.643C22.912,45.632 22.889,45.615 22.87,45.594C22.851,45.572 22.837,45.547 22.829,45.519C22.822,45.492 22.821,45.463 22.826,45.435Z" fill="#BDD0FB"/>
<path d="M18.259,52.092C18.259,52.092 17.888,50.592 18.038,50.06C18.187,49.528 18.477,48.844 19.441,48.996C20.406,49.148 21.545,49.548 21.545,49.548C21.545,49.548 21.487,50.241 20.754,50.017L21.209,50.364C21.209,50.364 21.144,50.919 20.524,50.622L20.947,51.082C20.947,51.082 20.681,51.538 20.225,51.245C19.77,50.953 19.551,52.272 18.259,52.092Z" fill="url(#pf_0_i_31_1259;23_730;14_285)"/>
<path d="M17.694,37.358L16.215,41.568C16.203,41.601 16.204,41.638 16.217,41.671C16.229,41.705 16.254,41.733 16.285,41.75C16.688,41.97 18.14,42.604 19.89,41.511C19.98,41.456 20.057,41.381 20.115,41.293C20.172,41.205 20.21,41.105 20.224,41.001L20.702,37.358L17.694,37.358Z" fill="url(#pf_0_i_31_1259;23_730;14_286)"/>
<path d="M20.91,33.46C20.91,33.46 22.533,36.469 22.325,37.684C22.117,38.9 20.105,38.812 18.349,37.825L17.121,34.577L20.91,33.46Z" fill="url(#pf_0_i_31_1259;23_730;14_287)"/>
<path d="M18.426,36.23C18.443,36.223 18.458,36.212 18.47,36.198C18.482,36.185 18.491,36.169 18.496,36.152C18.502,36.134 18.503,36.116 18.5,36.098C18.498,36.081 18.491,36.063 18.481,36.048C18.351,35.853 18.107,35.454 18.03,35.104C18.03,35.104 17.738,34.92 18.772,34.676C19.807,34.433 21.35,34.054 21.674,33.187C21.99,32.342 21.159,30.216 19.834,31.91C19.822,31.925 19.807,31.937 19.79,31.946C19.773,31.954 19.754,31.959 19.735,31.959C19.715,31.959 19.696,31.955 19.679,31.946C19.662,31.938 19.646,31.926 19.634,31.911C19.417,31.633 18.846,31.055 18.053,31.405C17.311,31.733 17.227,32.268 17.237,32.538C17.238,32.557 17.235,32.575 17.227,32.592C17.22,32.609 17.209,32.624 17.194,32.637C17.18,32.649 17.163,32.658 17.145,32.662C17.127,32.667 17.108,32.668 17.089,32.664C16.714,32.594 15.814,32.533 15.393,33.443C15.047,34.192 15.272,34.616 15.477,34.823C15.492,34.839 15.503,34.858 15.509,34.878C15.514,34.899 15.515,34.92 15.509,34.941C15.504,34.962 15.493,34.981 15.478,34.996C15.463,35.011 15.444,35.023 15.423,35.029C15.177,35.103 14.858,35.309 14.89,35.878C14.934,36.664 15.827,36.595 16.081,36.559C16.102,36.556 16.123,36.558 16.142,36.565C16.162,36.572 16.179,36.583 16.193,36.598C16.411,36.836 17.393,37.844 18.456,37.966C18.478,37.968 18.499,37.965 18.519,37.957C18.539,37.949 18.556,37.936 18.569,37.919C18.582,37.903 18.591,37.883 18.595,37.862C18.598,37.842 18.597,37.82 18.59,37.801L18.13,36.484C18.119,36.454 18.121,36.422 18.133,36.393C18.146,36.365 18.169,36.342 18.198,36.329L18.426,36.23Z" fill="url(#pf_0_i_31_1259;23_730;14_288)"/>
<path d="M18.611,36.417C18.611,36.417 17.455,35.636 17.371,36.293C17.286,36.951 18.412,37.246 18.969,37.001L18.611,36.417Z" fill="url(#pf_0_i_31_1259;23_730;14_289)"/>
<defs>
<linearGradient id="pf_0_i_31_1259;23_730;14_230" x1="99.442" y1="113.693" x2="20.772" y2="17.492" gradientUnits="userSpaceOnUse">
<stop stop-color="#DAE3FE"/>
<stop offset="1" stop-color="#E9EFFD"/>
</linearGradient>
<linearGradient id="pf_0_i_31_1259;23_730;14_235" x1="156.177" y1="-59.66" x2="-8.226" y2="78.318" gradientUnits="userSpaceOnUse">
<stop stop-color="#E1473D"/>
<stop offset="1" stop-color="#E9605A"/>
</linearGradient>
<linearGradient id="pf_0_i_31_1259;23_730;14_236" x1="180.156" y1="-31.96" x2="15.752" y2="106.017" gradientUnits="userSpaceOnUse">
<stop stop-color="#E1473D"/>
<stop offset="1" stop-color="#E9605A"/>
</linearGradient>
<linearGradient id="pf_0_i_31_1259;23_730;14_237" x1="2.7" y1="71.678" x2="145.42" y2="-77.134" gradientUnits="userSpaceOnUse">
<stop stop-color="#FF928E"/>
<stop offset="1" stop-color="#FE7062"/>
</linearGradient>
<linearGradient id="pf_0_i_31_1259;23_730;14_238" x1="60.736" y1="61.331" x2="28.378" y2="96.537" gradientUnits="userSpaceOnUse">
<stop stop-color="#FF928E"/>
<stop offset="1" stop-color="#FE7062"/>
</linearGradient>
<linearGradient id="pf_0_i_31_1259;23_730;14_265" x1="61.612" y1="19.023" x2="82.217" y2="19.023" gradientUnits="userSpaceOnUse">
<stop stop-color="#DAE3FE"/>
<stop offset="1" stop-color="#E9EFFD"/>
</linearGradient>
<linearGradient id="pf_0_i_31_1259;23_730;14_266" x1="59.832" y1="23.992" x2="80.438" y2="23.992" gradientUnits="userSpaceOnUse">
<stop stop-color="#DAE3FE"/>
<stop offset="1" stop-color="#E9EFFD"/>
</linearGradient>
<linearGradient id="pf_0_i_31_1259;23_730;14_267" x1="59.832" y1="26.118" x2="82.802" y2="26.118" gradientUnits="userSpaceOnUse">
<stop stop-color="#DAE3FE"/>
<stop offset="1" stop-color="#E9EFFD"/>
</linearGradient>
<linearGradient id="pf_0_i_31_1259;23_730;14_268" x1="59.92" y1="21.793" x2="71.159" y2="21.793" gradientUnits="userSpaceOnUse">
<stop stop-color="#DAE3FE"/>
<stop offset="1" stop-color="#E9EFFD"/>
</linearGradient>
<linearGradient id="pf_0_i_31_1259;23_730;14_269" x1="72.472" y1="21.413" x2="83.095" y2="21.413" gradientUnits="userSpaceOnUse">
<stop stop-color="#DAE3FE"/>
<stop offset="1" stop-color="#E9EFFD"/>
</linearGradient>
<linearGradient id="pf_0_i_31_1259;23_730;14_270" x1="26.327" y1="82.789" x2="6.526" y2="103.996" gradientUnits="userSpaceOnUse">
<stop stop-color="#09005D"/>
<stop offset="1" stop-color="#1A0F91"/>
</linearGradient>
<linearGradient id="pf_0_i_31_1259;23_730;14_271" x1="19.9" y1="84.364" x2="21.659" y2="84.364" gradientUnits="userSpaceOnUse">
<stop stop-color="#FEBBBA"/>
<stop offset="1" stop-color="#FF928E"/>
</linearGradient>
<linearGradient id="pf_0_i_31_1259;23_730;14_272" x1="27.886" y1="58.806" x2="11.037" y2="81.291" gradientUnits="userSpaceOnUse">
<stop stop-color="#09005D"/>
<stop offset="1" stop-color="#1A0F91"/>
</linearGradient>
<linearGradient id="pf_0_i_31_1259;23_730;14_273" x1="21.885" y1="78.768" x2="2.084" y2="99.975" gradientUnits="userSpaceOnUse">
<stop stop-color="#09005D"/>
<stop offset="1" stop-color="#1A0F91"/>
</linearGradient>
<linearGradient id="pf_0_i_31_1259;23_730;14_274" x1="13.561" y1="84.275" x2="15.079" y2="84.275" gradientUnits="userSpaceOnUse">
<stop stop-color="#FEBBBA"/>
<stop offset="1" stop-color="#FF928E"/>
</linearGradient>
<linearGradient id="pf_0_i_31_1259;23_730;14_275" x1="24.883" y1="56.624" x2="8.034" y2="79.11" gradientUnits="userSpaceOnUse">
<stop stop-color="#09005D"/>
<stop offset="1" stop-color="#1A0F91"/>
</linearGradient>
<linearGradient id="pf_0_i_31_1259;23_730;14_276" x1="18.926" y1="46.619" x2="45.787" y2="1.052" gradientUnits="userSpaceOnUse">
<stop stop-color="#4F52FF"/>
<stop offset="1" stop-color="#4042E2"/>
</linearGradient>
<linearGradient id="pf_0_i_31_1259;23_730;14_277" x1="34.737" y1="28.875" x2="31.634" y2="37.605" gradientUnits="userSpaceOnUse">
<stop stop-color="#FEBBBA"/>
<stop offset="1" stop-color="#FF928E"/>
</linearGradient>
<linearGradient id="pf_0_i_31_1259;23_730;14_278" x1="37.39" y1="29.789" x2="34.286" y2="38.519" gradientUnits="userSpaceOnUse">
<stop stop-color="#FEBBBA"/>
<stop offset="1" stop-color="#FF928E"/>
</linearGradient>
<linearGradient id="pf_0_i_31_1259;23_730;14_279" x1="35.006" y1="35.367" x2="37.343" y2="30.724" gradientUnits="userSpaceOnUse">
<stop stop-color="#FEBBBA"/>
<stop offset="1" stop-color="#FF928E"/>
</linearGradient>
<linearGradient id="pf_0_i_31_1259;23_730;14_280" x1="13.338" y1="43.426" x2="40.199" y2="-2.141" gradientUnits="userSpaceOnUse">
<stop stop-color="#4F52FF"/>
<stop offset="1" stop-color="#4042E2"/>
</linearGradient>
<linearGradient id="pf_0_i_31_1259;23_730;14_281" x1="7.475" y1="51.715" x2="18.846" y2="51.715" gradientUnits="userSpaceOnUse">
<stop stop-color="#FEBBBA"/>
<stop offset="1" stop-color="#FF928E"/>
</linearGradient>
<linearGradient id="pf_0_i_31_1259;23_730;14_285" x1="18.002" y1="50.541" x2="21.545" y2="50.541" gradientUnits="userSpaceOnUse">
<stop stop-color="#FEBBBA"/>
<stop offset="1" stop-color="#FF928E"/>
</linearGradient>
<linearGradient id="pf_0_i_31_1259;23_730;14_286" x1="16.207" y1="39.746" x2="20.702" y2="39.746" gradientUnits="userSpaceOnUse">
<stop stop-color="#FEBBBA"/>
<stop offset="1" stop-color="#FF928E"/>
</linearGradient>
<linearGradient id="pf_0_i_31_1259;23_730;14_287" x1="21.772" y1="36.929" x2="16.829" y2="33.961" gradientUnits="userSpaceOnUse">
<stop stop-color="#FEBBBA"/>
<stop offset="1" stop-color="#FF928E"/>
</linearGradient>
<linearGradient id="pf_0_i_31_1259;23_730;14_288" x1="14.212" y1="30.831" x2="20.598" y2="35.798" gradientUnits="userSpaceOnUse">
<stop stop-color="#09005D"/>
<stop offset="1" stop-color="#1A0F91"/>
</linearGradient>
<linearGradient id="pf_0_i_31_1259;23_730;14_289" x1="20.473" y1="38.036" x2="16.026" y2="35.366" gradientUnits="userSpaceOnUse">
<stop stop-color="#FEBBBA"/>
<stop offset="1" stop-color="#FF928E"/>
</linearGradient>
</defs>
</svg>
