<svg width="40" height="40" viewBox="0 0 40 40" fill="none" xmlns="http://www.w3.org/2000/svg" xmlns:xlink="http://www.w3.org/1999/xlink">
<path d="M28.132,24.951L28.441,25.575C28.182,25.763 27.941,25.972 27.719,26.201L27.136,25.813C27.098,25.788 27.055,25.77 27.01,25.762C26.965,25.753 26.919,25.753 26.874,25.762C26.829,25.771 26.786,25.788 26.748,25.813C26.71,25.838 26.678,25.871 26.653,25.908L25.978,26.899C25.927,26.975 25.907,27.068 25.924,27.158C25.942,27.248 25.995,27.327 26.071,27.379L26.66,27.773C26.531,28.063 26.427,28.364 26.349,28.672L25.637,28.624C25.544,28.618 25.453,28.649 25.383,28.71C25.313,28.77 25.27,28.856 25.264,28.947L25.175,30.146C25.172,30.192 25.177,30.237 25.191,30.28C25.205,30.323 25.228,30.364 25.258,30.398C25.288,30.433 25.325,30.461 25.366,30.482C25.407,30.502 25.452,30.515 25.498,30.518L26.213,30.567C26.247,30.884 26.308,31.197 26.396,31.504L25.747,31.82C25.663,31.862 25.599,31.934 25.569,32.022C25.538,32.109 25.544,32.205 25.585,32.289L26.113,33.38C26.132,33.421 26.16,33.458 26.194,33.489C26.229,33.519 26.269,33.543 26.313,33.558C26.356,33.573 26.403,33.58 26.449,33.577C26.495,33.574 26.541,33.562 26.582,33.542L27.233,33.225C27.42,33.486 27.63,33.729 27.861,33.954L27.457,34.553C27.404,34.631 27.385,34.726 27.403,34.818C27.42,34.91 27.474,34.991 27.552,35.045L28.563,35.731C28.601,35.757 28.644,35.776 28.69,35.785C28.736,35.794 28.783,35.795 28.829,35.786C28.874,35.777 28.918,35.759 28.957,35.734C28.995,35.708 29.028,35.675 29.054,35.637L29.457,35.036C29.752,35.168 30.059,35.275 30.373,35.355L30.325,36.078C30.312,36.274 30.46,36.445 30.655,36.459L31.879,36.548C31.926,36.551 31.973,36.545 32.018,36.53C32.062,36.515 32.103,36.492 32.138,36.461C32.173,36.431 32.202,36.393 32.222,36.352C32.243,36.31 32.254,36.265 32.257,36.219L32.303,35.501C32.627,35.468 32.947,35.407 33.26,35.317L33.58,35.964C33.6,36.006 33.628,36.044 33.663,36.075C33.698,36.106 33.739,36.13 33.783,36.145C33.828,36.16 33.875,36.167 33.922,36.164C33.969,36.162 34.015,36.15 34.057,36.13L35.159,35.593C35.335,35.507 35.406,35.294 35.318,35.117L34.999,34.476C35.264,34.285 35.51,34.072 35.736,33.838L36.329,34.234C36.368,34.26 36.411,34.278 36.457,34.288C36.503,34.297 36.55,34.298 36.596,34.289C36.642,34.28 36.686,34.262 36.725,34.236C36.764,34.21 36.797,34.177 36.823,34.139L37.499,33.123C37.55,33.044 37.569,32.949 37.549,32.857C37.53,32.765 37.475,32.684 37.396,32.632L36.806,32.239C36.937,31.941 37.041,31.632 37.116,31.316L37.819,31.364C37.865,31.367 37.912,31.361 37.956,31.347C38.001,31.332 38.041,31.309 38.076,31.278C38.111,31.248 38.14,31.21 38.16,31.169C38.18,31.128 38.192,31.083 38.194,31.037L38.262,29.824C38.267,29.731 38.235,29.64 38.173,29.57C38.11,29.5 38.022,29.457 37.927,29.45L37.232,29.403C37.194,29.08 37.126,28.761 37.031,28.449L37.653,28.146C37.694,28.126 37.732,28.097 37.762,28.063C37.792,28.028 37.815,27.988 37.83,27.944C37.845,27.901 37.85,27.855 37.847,27.809C37.843,27.764 37.831,27.719 37.809,27.679L37.26,26.598C37.218,26.516 37.145,26.453 37.056,26.423C36.967,26.393 36.87,26.399 36.785,26.44L36.165,26.742C35.971,26.482 35.754,26.239 35.516,26.016L35.897,25.45C35.948,25.373 35.966,25.279 35.947,25.189C35.929,25.099 35.874,25.02 35.796,24.969L34.784,24.307C34.745,24.282 34.702,24.264 34.657,24.255C34.612,24.247 34.565,24.247 34.52,24.256C34.475,24.265 34.432,24.282 34.394,24.307C34.356,24.333 34.323,24.365 34.297,24.403L33.914,24.971C33.617,24.843 33.309,24.741 32.994,24.666L33.038,23.984C33.044,23.893 33.012,23.803 32.951,23.734C32.89,23.666 32.803,23.624 32.711,23.618L31.507,23.542C31.414,23.537 31.323,23.567 31.254,23.627C31.184,23.688 31.142,23.772 31.136,23.863L31.09,24.548C30.771,24.583 30.455,24.647 30.147,24.738L29.838,24.119C29.818,24.079 29.79,24.043 29.756,24.013C29.722,23.983 29.682,23.961 29.638,23.946C29.595,23.932 29.549,23.926 29.503,23.929C29.458,23.932 29.413,23.944 29.372,23.964L28.292,24.49C28.209,24.531 28.146,24.602 28.116,24.688C28.086,24.774 28.092,24.869 28.132,24.951ZM28.517,31.533C27.659,29.781 28.387,27.676 30.138,26.822C31.89,25.968 34.017,26.681 34.894,28.425C35.777,30.178 35.061,32.308 33.29,33.171C31.519,34.034 29.38,33.296 28.517,31.533Z" fill="#D8DEE8"/>
<path d="M19.929,6.261C13.989,6.223 9.288,12.836 9.288,21.029C9.288,29.223 13.989,36.215 19.929,36.657C26.032,37.112 31.103,30.515 31.103,21.91C31.103,13.306 26.032,6.299 19.929,6.261ZM20.523,35.889L20.523,35.889C20.346,35.889 20.167,35.882 19.99,35.869C17.376,35.674 14.912,34.056 13.051,31.312C11.144,28.499 10.093,24.848 10.093,21.029C10.093,17.23 11.134,13.68 13.024,11.035C14.859,8.466 17.294,7.051 19.879,7.051L19.924,7.051C21.269,7.059 22.583,7.442 23.831,8.187C25.065,8.925 26.181,9.981 27.147,11.328C28.129,12.698 28.902,14.293 29.445,16.068C30.011,17.921 30.298,19.887 30.298,21.91C30.298,25.754 29.249,29.322 27.345,31.959C25.514,34.493 23.091,35.889 20.523,35.889Z" fill="url(#pf_0_i_35_1287;16_346)"/>
<path d="M9.662,21.029C9.662,13.412 13.725,7.161 19.069,6.35C18.694,6.293 12.214,6.263 11.83,6.261C5.89,6.223 1.189,12.836 1.189,21.029C1.189,29.223 5.89,36.215 11.83,36.657C12.433,36.702 19.125,36.678 19.705,36.59C14.05,35.741 9.662,28.946 9.662,21.029Z" fill="url(#pf_0_i_35_1287;16_347)"/>
<path d="M11.64,6.242C13.088,6.627 15.991,7.613 18.482,10.198C22.066,13.918 21.945,18.254 22.064,20.168C22.161,21.725 23.08,29.896 17.235,34.11C14.954,35.754 12.562,36.237 11.158,36.403C12.296,36.488 18.791,36.573 19.929,36.657C21.274,36.459 23.207,35.982 25.086,34.703C31.558,30.302 30.73,20.951 30.599,19.684C30.4,17.759 29.872,12.668 25.61,9.091C23.519,7.337 21.305,6.597 19.929,6.261C18.951,6.254 12.617,6.248 11.64,6.242Z" fill="url(#pf_0_i_35_1287;16_348)"/>
<path d="M11.46,6.231C5.579,6.194 0.926,12.782 0.926,20.944C0.926,29.105 5.579,36.069 11.46,36.508C17.501,36.958 22.52,30.386 22.52,21.816C22.52,13.247 17.501,6.269 11.46,6.231ZM12.046,35.739L12.045,35.739C11.871,35.739 11.695,35.732 11.521,35.719C8.937,35.527 6.5,33.916 4.658,31.185C2.77,28.384 1.73,24.747 1.73,20.944C1.73,17.158 2.761,13.622 4.632,10.987C6.447,8.43 8.855,7.021 11.411,7.021L11.454,7.022C12.783,7.03 14.083,7.41 15.316,8.151C16.537,8.885 17.64,9.937 18.596,11.278C19.568,12.642 20.333,14.23 20.87,15.997C21.431,17.843 21.715,19.801 21.715,21.816C21.715,25.645 20.677,29.2 18.791,31.827C16.98,34.35 14.584,35.739 12.046,35.739Z" fill="url(#pf_0_i_35_1287;16_349)"/>
<path d="M29.973,11.008L19.755,10.919C18.755,10.91 17.935,11.715 17.935,12.717L17.935,28.986C17.935,29.988 18.334,30.529 19.755,30.793L20.876,30.866C21.733,30.76 31.517,28.676 31.517,27.764L31.517,12.673C31.517,11.761 30.83,11.016 29.973,11.008Z" fill="url(#pf_0_i_35_1287;16_350)"/>
<path d="M31.297,11.008L21.107,10.919C20.11,10.91 19.292,11.714 19.292,12.715L19.292,29.267C19.292,30.267 20.11,30.976 21.107,30.852L31.297,29.583C32.152,29.476 32.837,28.652 32.837,27.741L32.837,12.671C32.837,11.76 32.152,11.016 31.297,11.008Z" fill="url(#pf_0_i_35_1287;16_351)"/>
<path d="M31.297,11.842L21.107,11.814C20.611,11.813 20.205,12.215 20.205,12.712L20.205,29.164C20.205,29.66 20.611,30.016 21.107,29.957L31.297,28.749C31.725,28.698 32.071,28.285 32.071,27.828L32.071,12.673C32.071,12.216 31.725,11.843 31.297,11.842Z" fill="#D8DEE8"/>
<g opacity="0.5" style="mix-blend-mode:soft-light">
<path d="M24.961,21.571C23.734,18.049 25.827,15.882 24.708,12.436C24.539,11.917 24.314,11.417 24.036,10.945L21.107,10.919C20.11,10.91 19.292,11.714 19.292,12.715L19.292,29.267C19.292,30.267 20.11,30.976 21.107,30.852L30.806,29.644C30.475,28.548 30.031,27.685 29.566,26.993C27.847,24.438 25.956,24.428 24.961,21.571Z" fill="#FFFFFF"/>
</g>
<g style="mix-blend-mode:soft-light">
<path d="M31.103,12.572L31.103,20.889L20.931,21.387L20.931,12.572L31.103,12.572Z" fill="#FFFFFF"/>
</g>
<g style="mix-blend-mode:soft-light">
<path d="M23.388,29.198C23.522,29.198 31.296,28.389 31.296,28.389L31.296,22.434L23.388,23.089L23.388,29.198Z" fill="#FFFFFF"/>
</g>
<path d="M39.077,6.413L39.077,12.887C39.076,13.193 39.015,13.496 38.895,13.779C38.775,14.062 38.599,14.319 38.378,14.535C38.157,14.751 37.895,14.922 37.606,15.038C37.318,15.154 37.009,15.214 36.697,15.212L28.681,15.212C27.367,15.212 26.326,14.178 26.326,12.887L26.326,6.413C26.326,5.633 26.703,4.935 27.301,4.511C27.692,4.233 28.161,4.063 28.681,4.063L36.697,4.063C38.011,4.063 39.077,5.122 39.077,6.413Z" fill="url(#pf_0_i_35_1287;16_357)"/>
<path d="M33.555,13.787L29.519,17.757C29.474,17.799 29.418,17.828 29.357,17.84C29.295,17.851 29.232,17.845 29.174,17.822C29.059,17.776 28.976,17.665 28.976,17.543L28.976,13.424L33.555,13.787Z" fill="url(#pf_0_i_35_1287;16_358)"/>
<path d="M34.99,9.657L33.607,5.782L31.762,5.782L30.787,8.53L29.249,12.855L30.875,12.855L31.391,11.087L33.987,11.087L34.503,12.855L36.129,12.855L34.99,9.657ZM31.771,9.908C31.911,9.466 32.035,9.064 32.144,8.711C32.431,7.784 32.614,7.173 32.691,6.876C32.717,6.99 32.76,7.146 32.821,7.344C32.867,7.496 33.035,8.036 33.327,8.959C33.416,9.239 33.515,9.564 33.626,9.908L31.771,9.908Z" fill="#FFFFFF"/>
<g opacity="0.3" style="mix-blend-mode:multiply">
<path d="M38.365,14.547C37.92,14.976 37.32,15.215 36.697,15.212L32.103,15.212L29.525,17.751C29.48,17.794 29.423,17.823 29.361,17.835C29.3,17.847 29.236,17.842 29.177,17.819C29.062,17.773 28.976,17.665 28.976,17.543L28.976,15.212L28.681,15.212C27.367,15.212 26.326,14.178 26.326,12.887L26.326,6.413C26.326,5.633 26.703,4.942 27.301,4.517C27.238,5.885 27.538,8.127 30.149,8.432C30.371,8.458 30.582,8.484 30.79,8.511C31.278,8.572 31.728,8.637 32.146,8.708C32.576,8.782 32.969,8.863 33.328,8.956C34,9.13 34.55,9.347 34.99,9.637C35.658,10.079 36.073,10.689 36.277,11.584C36.635,13.157 37.219,14.115 38.365,14.547Z" fill="url(#pf_0_i_35_1287;16_360)" style="mix-blend-mode:multiply"/>
</g>
<path d="M28.326,15.511L28.326,21.985C28.326,22.587 28.1,23.149 27.719,23.563C27.284,24.037 26.659,24.348 25.958,24.348L17.942,24.348C16.628,24.348 15.525,23.276 15.525,21.985L15.525,15.511C15.525,14.688 15.977,13.977 16.632,13.56C17.004,13.324 17.466,13.199 17.942,13.199L25.958,13.199C27.272,13.199 28.326,14.221 28.326,15.511Z" fill="url(#pf_0_i_35_1287;16_361)"/>
<path d="M25.626,22.501L25.626,26.619C25.626,26.742 25.558,26.852 25.443,26.899C25.387,26.922 25.326,26.928 25.267,26.916C25.207,26.904 25.153,26.875 25.111,26.833L21.063,22.863L25.626,22.501Z" fill="url(#pf_0_i_35_1287;16_362)"/>
<path d="M25.426,16.145L18.475,16.145L18.475,17.226L25.426,17.226L25.426,16.145Z" fill="#FFFFFF"/>
<path d="M24.993,22.432C22.536,21.872 21.207,20.352 20.525,19.175C19.792,17.909 19.635,16.774 19.629,16.727L20.717,16.588L20.173,16.657L20.716,16.587C20.718,16.597 20.86,17.591 21.498,18.676C22.333,20.097 23.592,21.007 25.24,21.382L24.993,22.432Z" fill="#FFFFFF"/>
<path d="M18.926,22.432L18.678,21.382C20.327,21.007 21.586,20.097 22.421,18.676C23.059,17.591 23.201,16.597 23.202,16.587L24.29,16.727C24.283,16.774 24.127,17.909 23.394,19.175C22.712,20.352 21.383,21.872 18.926,22.432Z" fill="#FFFFFF"/>
<path d="M22.476,15.065L21.426,15.065L21.426,16.637L22.476,16.637L22.476,15.065Z" fill="#FFFFFF"/>
<g opacity="0.3" style="mix-blend-mode:multiply">
<path d="M27.725,23.563C27.29,24.037 26.659,24.348 25.958,24.348L25.626,24.348L25.626,26.619C25.626,26.742 25.558,26.852 25.443,26.899C25.328,26.946 25.199,26.932 25.111,26.846L22.558,24.348L17.942,24.348C16.628,24.348 15.525,23.276 15.525,21.985L15.525,15.511C15.525,14.688 15.977,13.965 16.632,13.548C16.584,14.707 16.816,16.467 18.454,17.165C18.503,17.186 18.556,17.205 18.607,17.224C18.87,17.32 19.169,17.391 19.503,17.43C19.602,17.442 19.699,17.453 19.795,17.465C20.222,17.516 20.624,17.569 21.001,17.625C21.67,17.726 22.26,17.838 22.776,17.976C23.162,18.08 23.506,18.199 23.811,18.339C24.803,18.792 25.386,19.476 25.64,20.592C25.997,22.163 26.58,23.13 27.725,23.563Z" fill="url(#pf_0_i_35_1287;16_367)" style="mix-blend-mode:multiply"/>
</g>
<path d="M16.551,21.235L22.687,16.29L22.719,16.305L16.632,21.37L16.551,21.235Z" fill="url(#pf_0_i_35_1287;16_368)"/>
<path d="M16.177,21.564L16.417,21.306L16.542,21.022C16.563,20.973 16.598,20.93 16.642,20.898L16.713,20.846C16.755,20.816 16.804,20.8 16.856,20.8L17.091,20.8C17.091,20.8 17.05,20.875 16.983,20.887C16.917,20.898 16.777,21.053 16.777,21.053L16.758,21.235L17.025,21.043L17.31,20.722L17.31,20.9C17.31,20.961 17.288,21.02 17.247,21.066L17.016,21.329C16.959,21.394 16.88,21.437 16.794,21.451L16.737,21.46C16.678,21.469 16.622,21.49 16.572,21.521C16.522,21.552 16.479,21.593 16.445,21.641L16.283,21.875L16.177,21.564Z" fill="url(#pf_0_i_35_1287;16_369)"/>
<path d="M3.209,30.126C3.209,30.126 3.142,30.434 3.084,30.693C3.026,30.952 2.794,31.151 2.693,31.358C2.591,31.564 2.546,31.322 2.518,31.173C2.49,31.023 2.518,30.715 2.643,30.609C2.769,30.503 2.864,30.411 2.858,30.39C2.852,30.368 2.939,30.013 2.939,30.013L3.209,30.126Z" fill="url(#pf_0_i_35_1287;16_370)"/>
<path d="M5.992,39.373C5.976,39.309 5.987,39.224 6.044,39.166C6.121,39.089 6.249,39.095 6.33,39.131C6.377,39.152 6.413,39.185 6.542,39.45C6.678,39.729 6.678,39.774 6.656,39.799C6.611,39.851 6.486,39.813 6.459,39.805C6.37,39.777 6.348,39.736 6.163,39.566C6.038,39.451 6.007,39.432 5.992,39.373Z" fill="url(#pf_0_i_35_1287;16_371)"/>
<path d="M6.079,38.937L6.111,39.261C6.186,39.299 6.232,39.296 6.257,39.261L6.32,38.937L6.079,38.937Z" fill="url(#pf_0_i_35_1287;16_372)"/>
<path d="M9.231,39.333C9.187,39.283 9.156,39.202 9.179,39.126C9.211,39.022 9.328,38.97 9.416,38.965C9.468,38.962 9.516,38.976 9.755,39.152C10.007,39.338 10.027,39.378 10.02,39.411C10.004,39.477 9.875,39.499 9.848,39.504C9.755,39.521 9.716,39.494 9.473,39.426C9.307,39.381 9.271,39.378 9.231,39.333Z" fill="url(#pf_0_i_35_1287;16_373)"/>
<path d="M9.253,38.792L9.284,39.116C9.359,39.154 9.406,39.151 9.43,39.116L9.493,38.792L9.253,38.792Z" fill="url(#pf_0_i_35_1287;16_374)"/>
<path d="M5.995,39C6.114,39.007 6.232,39.014 6.351,39.021C6.602,37.818 6.878,36.588 7.18,35.33C7.512,33.952 7.857,32.616 8.216,31.323C8.329,31.815 8.442,32.39 8.53,33.037C8.617,33.668 8.672,34.302 8.694,34.937C8.726,35.979 8.634,36.102 8.677,36.752C8.712,37.264 8.824,38.015 9.202,38.927C9.315,38.92 9.428,38.914 9.541,38.907C9.834,37.512 10.008,36.095 10.06,34.671C10.123,32.964 10.011,31.255 9.726,29.569C8.699,29.6 7.672,29.632 6.645,29.663C6.391,30.214 6.21,30.795 6.104,31.39C5.955,32.24 6.047,32.659 5.935,34.107C5.877,34.855 5.835,34.974 5.793,35.471C5.723,36.294 5.711,37.482 5.995,39Z" fill="url(#pf_0_i_35_1287;16_375)"/>
<g opacity="0.3" style="mix-blend-mode:multiply">
<path d="M6.678,36.129C6.771,35.15 6.412,35.171 6.579,34.325C6.733,33.548 7.06,33.418 7.301,32.426C7.494,31.629 7.346,31.454 7.497,31.105C7.684,30.675 8.229,30.204 9.796,30.005C9.773,29.856 9.75,29.71 9.726,29.569C8.699,29.6 7.672,29.632 6.645,29.663C6.391,30.214 6.21,30.795 6.104,31.39C5.955,32.24 6.047,32.659 5.935,34.107C5.877,34.855 5.835,34.974 5.793,35.471C5.723,36.294 5.711,37.482 5.995,39C6.114,39.007 6.232,39.014 6.351,39.021C6.358,38.986 6.366,38.951 6.373,38.916C6.309,38.814 6.257,38.706 6.219,38.592C5.959,37.807 6.561,37.351 6.678,36.129Z" fill="url(#pf_0_i_35_1287;16_376)" style="mix-blend-mode:multiply"/>
</g>
<path d="M2.793,30.188C2.946,30.215 3.099,30.241 3.252,30.268C3.347,29.987 3.484,29.563 3.631,29.041C3.8,28.445 3.887,28.059 3.924,27.918C4.071,27.355 4.502,26.565 5.771,25.604C5.758,26.216 5.748,26.719 5.742,27.064C5.689,29.838 5.692,30.341 6.067,30.617C6.393,30.858 6.573,30.612 8.055,30.639C9.405,30.665 9.69,30.877 10.033,30.634C10.59,30.238 10.373,29.3 10.382,28.127C10.389,27.159 10.551,25.79 11.267,24.118C12.081,24.197 12.903,24.104 13.677,23.844C15.232,23.32 16.115,22.272 16.447,21.832C16.337,21.687 16.228,21.542 16.119,21.397C15.315,21.743 14.47,21.989 13.604,22.129C11.713,22.432 10.844,22.038 9.087,22.106C8.076,22.145 6.01,22.225 4.612,23.265C2.043,25.177 2.701,29.617 2.793,30.188Z" fill="url(#pf_0_i_35_1287;16_377)"/>
<g opacity="0.3" style="mix-blend-mode:multiply">
<path d="M7.694,29.866C7.616,29.437 7.851,29.257 7.727,28.771C7.552,28.085 6.991,28.08 6.858,27.499C6.731,26.945 7.202,26.779 7.317,25.905C7.402,25.263 7.282,24.334 6.842,24.183C6.294,23.994 5.489,25.091 5.399,25.213C5.125,25.589 4.923,26.012 4.805,26.459C5.055,26.192 5.371,25.907 5.771,25.604C5.758,26.216 5.748,26.719 5.742,27.064C5.689,29.838 5.692,30.341 6.067,30.617C6.393,30.858 6.573,30.612 8.055,30.639C8.097,30.64 8.135,30.642 8.176,30.643C7.856,30.355 7.734,30.086 7.694,29.866Z" fill="url(#pf_0_i_35_1287;16_378)" style="mix-blend-mode:multiply"/>
</g>
<path d="M8.147,21.312C8.147,21.312 8.102,21.669 7.966,21.929C7.844,22.164 7.293,22.274 7.179,22.319C7.066,22.365 7.367,22.548 7.679,22.604C7.992,22.66 8.897,22.66 9.069,22.556C9.241,22.451 8.947,22.437 8.729,22.338C8.511,22.239 8.416,21.797 8.472,21.604C8.527,21.411 8.147,21.312 8.147,21.312Z" fill="url(#pf_0_i_35_1287;16_379)"/>
<path d="M8.729,21.179C8.803,21.056 8.756,20.833 8.61,20.737C8.502,20.666 8.379,20.69 8.289,20.707C8.247,20.715 7.955,20.776 7.888,20.989C7.866,21.057 7.875,21.146 7.906,21.216C7.922,21.251 7.952,21.295 8.018,21.379C8.076,21.453 8.073,21.45 8.091,21.472C8.133,21.523 8.215,21.61 8.362,21.707C8.369,21.658 8.38,21.611 8.396,21.564C8.416,21.504 8.444,21.446 8.478,21.392C8.575,21.251 8.671,21.276 8.729,21.179Z" fill="url(#pf_0_i_35_1287;16_380)"/>
<path d="M8.176,21.613C8.176,21.613 8.334,21.82 8.604,21.777C8.846,21.739 8.829,21.2 8.662,21.101C8.607,21.068 8.501,21.062 8.419,21.093C8.371,21.111 8.356,21.133 8.276,21.162C8.202,21.188 8.18,21.182 8.159,21.203C8.133,21.229 8.118,21.289 8.181,21.441C8.13,21.399 8.073,21.387 8.035,21.409C8.022,21.418 8.012,21.429 8.005,21.443C7.977,21.508 8.042,21.58 8.176,21.613Z" fill="url(#pf_0_i_35_1287;16_381)"/>
<path d="M8.121,21.309C8.121,21.309 8.224,21.496 8.282,21.54C8.339,21.585 8.468,21.612 8.593,21.544C8.663,21.508 8.729,21.465 8.788,21.414C8.788,21.414 8.84,21.674 8.809,21.706C8.777,21.738 8.546,21.877 8.48,21.867C8.413,21.857 8.251,21.729 8.213,21.649C8.176,21.57 8.131,21.363 8.131,21.363L8.121,21.309Z" fill="url(#pf_0_i_35_1287;16_382)"/>
<path d="M26.04,0.825L25.16,2.228L25.026,2.441C25.026,2.441 24.969,2.422 24.863,2.388C24.81,2.369 24.743,2.351 24.665,2.328C24.587,2.304 24.496,2.282 24.394,2.256C23.825,2.117 23.241,2.049 22.655,2.053C22.26,2.056 21.866,2.091 21.476,2.156C21.268,2.195 21.055,2.236 20.841,2.296C20.814,2.302 20.786,2.31 20.759,2.316C20.732,2.324 20.706,2.332 20.679,2.34C20.625,2.356 20.571,2.372 20.516,2.388C20.409,2.425 20.298,2.459 20.19,2.501C19.74,2.667 19.308,2.876 18.901,3.127C18.692,3.255 18.489,3.397 18.289,3.547L18.143,3.664C18.119,3.684 18.093,3.703 18.07,3.722L18.001,3.781L17.932,3.84C17.909,3.86 17.887,3.878 17.861,3.902L17.714,4.039L17.695,4.056L17.672,4.053L17.657,4.043L17.655,4.045L17.636,4.088L17.576,4.16C17.531,4.204 17.489,4.251 17.447,4.298L17.319,4.436C17.278,4.484 17.237,4.532 17.196,4.579C17.032,4.768 16.878,4.965 16.735,5.17L16.682,5.247L16.631,5.325C16.597,5.377 16.563,5.428 16.53,5.48C16.467,5.586 16.401,5.691 16.344,5.799C16.282,5.904 16.229,6.014 16.173,6.121C16.147,6.176 16.122,6.231 16.097,6.285C16.084,6.312 16.071,6.339 16.058,6.366C16.047,6.394 16.035,6.421 16.024,6.449C15.927,6.667 15.848,6.888 15.776,7.107C15.742,7.218 15.708,7.326 15.68,7.436C15.649,7.544 15.625,7.653 15.6,7.761C15.511,8.167 15.455,8.579 15.435,8.994C15.417,9.348 15.425,9.702 15.459,10.054C15.485,10.327 15.527,10.599 15.582,10.868C15.606,10.979 15.627,11.08 15.65,11.165C15.672,11.25 15.69,11.323 15.708,11.383C15.718,11.415 15.726,11.442 15.733,11.466C15.74,11.49 15.738,11.515 15.729,11.538C15.719,11.561 15.702,11.58 15.68,11.593C15.674,11.596 15.667,11.599 15.66,11.601L15.651,11.604C15.624,11.614 15.594,11.612 15.568,11.6C15.541,11.588 15.521,11.566 15.51,11.54C15.501,11.517 15.49,11.491 15.478,11.46C15.454,11.403 15.428,11.328 15.397,11.241C15.363,11.153 15.332,11.052 15.296,10.939C15.211,10.665 15.141,10.387 15.086,10.106C15.016,9.739 14.972,9.368 14.954,8.995C14.934,8.55 14.95,8.105 15.004,7.663C15.02,7.545 15.034,7.426 15.056,7.305C15.075,7.185 15.101,7.063 15.126,6.941C15.181,6.696 15.244,6.447 15.327,6.198C15.337,6.167 15.346,6.135 15.357,6.104C15.367,6.073 15.378,6.042 15.389,6.011C15.412,5.949 15.433,5.886 15.457,5.823C15.506,5.7 15.553,5.574 15.61,5.45C15.662,5.325 15.723,5.203 15.782,5.079C15.813,5.017 15.846,4.957 15.878,4.895L15.927,4.804L15.978,4.713C16.116,4.468 16.266,4.231 16.43,4.002C16.471,3.945 16.513,3.887 16.555,3.83L16.685,3.662C16.728,3.605 16.775,3.551 16.82,3.496L16.889,3.414L16.923,3.373L16.964,3.328L17.098,3.178C17.119,3.154 17.145,3.127 17.171,3.1L17.248,3.02L17.325,2.941C17.351,2.914 17.377,2.891 17.403,2.866C17.454,2.816 17.506,2.766 17.557,2.716C17.769,2.523 17.988,2.338 18.216,2.166C18.665,1.828 19.147,1.535 19.655,1.292C19.778,1.23 19.904,1.178 20.028,1.123C20.09,1.098 20.153,1.072 20.215,1.047C20.246,1.035 20.278,1.023 20.308,1.01C20.34,0.999 20.371,0.988 20.403,0.976C20.652,0.882 20.902,0.808 21.147,0.739C21.611,0.615 22.084,0.529 22.562,0.48C23.285,0.408 24.013,0.425 24.732,0.531C24.862,0.55 24.979,0.568 25.079,0.589C25.18,0.608 25.267,0.624 25.336,0.64C25.474,0.671 26.04,0.825 26.04,0.825Z" fill="url(#pf_0_i_35_1287;16_383)"/>
<g opacity="0.3" style="mix-blend-mode:multiply">
<path d="M25.108,2.177C25.127,2.192 25.144,2.21 25.16,2.228L25.026,2.441C25.026,2.441 24.969,2.422 24.863,2.388C24.81,2.369 24.743,2.351 24.665,2.328C24.587,2.304 24.496,2.282 24.394,2.256C23.825,2.117 23.241,2.049 22.655,2.053C22.26,2.056 21.866,2.091 21.476,2.156C21.268,2.195 21.055,2.236 20.841,2.296C20.814,2.302 20.786,2.309 20.759,2.316C20.732,2.324 20.706,2.332 20.679,2.34C20.625,2.356 20.571,2.372 20.516,2.388C20.409,2.425 20.298,2.459 20.19,2.501C19.74,2.667 19.308,2.876 18.901,3.127C18.692,3.255 18.489,3.397 18.289,3.547L18.143,3.664C18.119,3.684 18.093,3.703 18.07,3.722L18.001,3.781L17.932,3.84C17.909,3.86 17.887,3.878 17.861,3.902L17.714,4.039L17.695,4.056L17.672,4.053L17.657,4.043L17.655,4.045L17.636,4.088L17.576,4.16C17.531,4.204 17.489,4.251 17.447,4.298L17.319,4.436C17.278,4.484 17.237,4.531 17.196,4.579C17.032,4.768 16.878,4.965 16.735,5.17L16.682,5.247L16.631,5.325C16.597,5.377 16.563,5.428 16.53,5.48C16.467,5.586 16.401,5.691 16.344,5.799C16.282,5.904 16.229,6.014 16.173,6.121C16.147,6.176 16.122,6.23 16.097,6.285C16.084,6.312 16.071,6.339 16.058,6.366C16.047,6.394 16.035,6.421 16.024,6.449C15.927,6.667 15.848,6.888 15.776,7.107C15.742,7.218 15.708,7.326 15.68,7.436C15.649,7.544 15.625,7.653 15.6,7.761C15.511,8.167 15.455,8.579 15.435,8.994C15.417,9.348 15.425,9.702 15.459,10.054C15.485,10.327 15.527,10.599 15.582,10.868C15.606,10.979 15.627,11.08 15.65,11.165C15.672,11.25 15.69,11.323 15.708,11.383C15.718,11.415 15.726,11.442 15.733,11.466C15.74,11.49 15.738,11.515 15.729,11.538C15.719,11.561 15.702,11.58 15.68,11.593C15.457,10.8 14.634,7.272 16.773,4.667C19.196,1.716 23.511,0.821 25.108,2.177Z" fill="url(#pf_0_i_35_1287;16_384)" style="mix-blend-mode:multiply"/>
</g>
<path d="M26.506,0.331L28.254,3.592L23.636,2.913L26.506,0.331Z" fill="url(#pf_0_i_35_1287;16_385)"/>
<g opacity="0.3" style="mix-blend-mode:multiply">
<path d="M26.506,0.331L28.254,3.592L23.636,2.913L26.506,0.331Z" fill="url(#pf_0_i_35_1287;16_386)" style="mix-blend-mode:multiply"/>
</g>
<path d="M26.668,0.16L28.272,3.574L23.812,2.754L26.668,0.16Z" fill="url(#pf_0_i_35_1287;16_387)"/>
<path d="M30.129,26.32L30.698,25.074L30.784,24.885C30.784,24.885 30.833,24.894 30.924,24.911C30.97,24.921 31.027,24.929 31.093,24.939C31.16,24.951 31.237,24.959 31.324,24.969C31.806,25.023 32.293,25.017 32.774,24.951C33.099,24.906 33.419,24.836 33.732,24.741C33.898,24.687 34.069,24.63 34.238,24.559C34.26,24.55 34.281,24.542 34.303,24.533C34.324,24.524 34.345,24.514 34.366,24.505C34.409,24.486 34.451,24.467 34.495,24.448C34.579,24.406 34.666,24.367 34.75,24.321C35.101,24.137 35.433,23.919 35.74,23.67C35.897,23.542 36.048,23.403 36.195,23.259L36.303,23.148C36.32,23.129 36.34,23.11 36.356,23.092L36.406,23.036L36.457,22.981C36.473,22.962 36.49,22.945 36.508,22.922L36.614,22.794L36.628,22.778L36.651,22.781L36.669,22.79L36.67,22.788L36.676,22.748L36.716,22.681C36.748,22.64 36.776,22.596 36.806,22.554L36.895,22.426C36.924,22.383 36.952,22.339 36.98,22.296C37.094,22.123 37.198,21.944 37.293,21.76L37.328,21.692L37.361,21.622C37.383,21.576 37.406,21.53 37.427,21.484C37.468,21.39 37.51,21.298 37.545,21.203C37.584,21.109 37.616,21.014 37.649,20.92C37.665,20.872 37.68,20.824 37.694,20.777C37.702,20.753 37.709,20.73 37.717,20.706C37.723,20.682 37.73,20.658 37.736,20.635C37.792,20.445 37.832,20.255 37.867,20.067C37.883,19.973 37.899,19.88 37.91,19.787C37.923,19.695 37.931,19.603 37.94,19.512C37.968,19.169 37.968,18.824 37.939,18.481C37.915,18.189 37.869,17.899 37.802,17.613C37.75,17.392 37.687,17.173 37.611,16.958C37.579,16.869 37.551,16.789 37.523,16.721C37.495,16.653 37.473,16.595 37.451,16.548C37.44,16.523 37.43,16.502 37.422,16.483C37.413,16.464 37.412,16.443 37.417,16.423C37.422,16.403 37.434,16.385 37.451,16.373C37.456,16.369 37.461,16.366 37.466,16.364L37.473,16.36C37.495,16.35 37.519,16.348 37.542,16.355C37.565,16.362 37.585,16.378 37.596,16.398C37.607,16.416 37.618,16.437 37.632,16.46C37.658,16.505 37.687,16.563 37.722,16.632C37.759,16.7 37.796,16.78 37.839,16.869C37.938,17.085 38.026,17.306 38.103,17.531C38.201,17.825 38.278,18.125 38.334,18.43C38.4,18.792 38.435,19.16 38.44,19.528C38.44,19.627 38.441,19.727 38.436,19.828C38.434,19.929 38.426,20.032 38.419,20.135C38.401,20.342 38.377,20.553 38.336,20.766C38.332,20.793 38.327,20.82 38.322,20.847C38.317,20.873 38.311,20.9 38.305,20.927C38.294,20.98 38.283,21.034 38.271,21.088C38.244,21.195 38.219,21.303 38.186,21.411C38.157,21.519 38.121,21.626 38.086,21.734C38.067,21.788 38.047,21.841 38.027,21.895L37.998,21.976L37.965,22.055C37.879,22.271 37.782,22.482 37.673,22.687C37.645,22.739 37.617,22.791 37.589,22.842L37.5,22.994C37.471,23.046 37.439,23.095 37.408,23.145L37.36,23.22L37.337,23.257L37.309,23.298L37.215,23.435C37.201,23.457 37.182,23.483 37.164,23.507L37.109,23.581L37.054,23.654C37.036,23.679 37.018,23.701 36.999,23.725C36.962,23.771 36.925,23.817 36.888,23.864C36.736,24.045 36.577,24.221 36.408,24.386C36.077,24.711 35.713,25.003 35.323,25.257C35.229,25.321 35.131,25.377 35.035,25.435C34.987,25.463 34.938,25.49 34.89,25.517C34.865,25.531 34.841,25.544 34.817,25.558C34.793,25.571 34.768,25.583 34.743,25.596C34.549,25.7 34.352,25.787 34.158,25.87C33.791,26.021 33.412,26.142 33.025,26.233C32.439,26.37 31.838,26.433 31.237,26.423C31.127,26.421 31.03,26.418 30.945,26.412C30.86,26.407 30.787,26.403 30.729,26.397C30.612,26.386 30.129,26.32 30.129,26.32Z" fill="url(#pf_0_i_35_1287;16_388)"/>
<g opacity="0.3" style="mix-blend-mode:multiply">
<path d="M30.746,25.111C30.729,25.1 30.713,25.088 30.698,25.074L30.784,24.885C30.784,24.885 30.833,24.894 30.924,24.911C30.97,24.921 31.027,24.929 31.093,24.939C31.16,24.951 31.237,24.959 31.324,24.969C31.806,25.023 32.293,25.017 32.774,24.951C33.099,24.906 33.419,24.836 33.732,24.741C33.898,24.687 34.069,24.63 34.238,24.559C34.26,24.55 34.281,24.542 34.302,24.533C34.324,24.524 34.345,24.514 34.366,24.505C34.409,24.486 34.451,24.467 34.495,24.448C34.579,24.406 34.666,24.367 34.75,24.321C35.101,24.137 35.432,23.919 35.74,23.67C35.897,23.542 36.048,23.403 36.195,23.259L36.303,23.148C36.32,23.129 36.34,23.11 36.356,23.092L36.406,23.036L36.457,22.981C36.473,22.962 36.49,22.945 36.508,22.922L36.614,22.794L36.628,22.778L36.651,22.781L36.669,22.79L36.67,22.788L36.676,22.748L36.716,22.681C36.748,22.64 36.776,22.596 36.806,22.554L36.895,22.426C36.924,22.383 36.952,22.339 36.98,22.296C37.094,22.123 37.198,21.944 37.293,21.76L37.328,21.692L37.361,21.622C37.383,21.576 37.406,21.53 37.427,21.484C37.468,21.39 37.51,21.298 37.545,21.203C37.584,21.109 37.616,21.014 37.649,20.92C37.665,20.872 37.679,20.824 37.694,20.777C37.702,20.753 37.709,20.73 37.717,20.706C37.723,20.682 37.73,20.658 37.736,20.635C37.792,20.445 37.832,20.255 37.867,20.067C37.883,19.973 37.899,19.88 37.91,19.787C37.923,19.695 37.931,19.603 37.94,19.512C37.968,19.169 37.968,18.824 37.939,18.481C37.915,18.189 37.869,17.899 37.802,17.613C37.75,17.392 37.687,17.173 37.611,16.958C37.579,16.869 37.551,16.789 37.523,16.721C37.495,16.653 37.473,16.595 37.451,16.548C37.439,16.523 37.43,16.502 37.422,16.483C37.413,16.464 37.412,16.443 37.417,16.423C37.422,16.403 37.434,16.385 37.451,16.373C37.721,17 38.786,19.811 37.317,22.178C35.653,24.86 32.207,26.054 30.746,25.111Z" fill="url(#pf_0_i_35_1287;16_389)" style="mix-blend-mode:multiply"/>
</g>
<path d="M29.802,26.776L28.006,24.283L31.874,24.35L29.802,26.776Z" fill="url(#pf_0_i_35_1287;16_390)"/>
<g opacity="0.3" style="mix-blend-mode:multiply">
<path d="M29.802,26.776L28.006,24.283L31.874,24.35L29.802,26.776Z" fill="url(#pf_0_i_35_1287;16_391)" style="mix-blend-mode:multiply"/>
</g>
<path d="M29.687,26.934L27.993,24.3L31.747,24.499L29.687,26.934Z" fill="url(#pf_0_i_35_1287;16_392)"/>
<defs>
<linearGradient id="pf_0_i_35_1287;16_346" x1="9.288" y1="21.47" x2="31.103" y2="21.47" gradientUnits="userSpaceOnUse">
<stop stop-color="#AA80F9"/>
<stop offset="0.996" stop-color="#6165D7"/>
</linearGradient>
<linearGradient id="pf_0_i_35_1287;16_347" x1="1.189" y1="21.47" x2="19.705" y2="21.47" gradientUnits="userSpaceOnUse">
<stop stop-color="#AA80F9"/>
<stop offset="0.996" stop-color="#6165D7"/>
</linearGradient>
<linearGradient id="pf_0_i_35_1287;16_348" x1="11.158" y1="21.45" x2="30.704" y2="21.45" gradientUnits="userSpaceOnUse">
<stop stop-color="#AA80F9"/>
<stop offset="0.996" stop-color="#6165D7"/>
</linearGradient>
<linearGradient id="pf_0_i_35_1287;16_349" x1="16.751" y1="13.663" x2="-1.673" y2="41.984" gradientUnits="userSpaceOnUse">
<stop stop-color="#FF9085"/>
<stop offset="1" stop-color="#FB6FBB"/>
</linearGradient>
<linearGradient id="pf_0_i_35_1287;16_350" x1="39.598" y1="17.028" x2="24.493" y2="20.046" gradientUnits="userSpaceOnUse">
<stop stop-color="#FF9085"/>
<stop offset="1" stop-color="#FB6FBB"/>
</linearGradient>
<linearGradient id="pf_0_i_35_1287;16_351" x1="13.904" y1="31.153" x2="32.134" y2="14.809" gradientUnits="userSpaceOnUse">
<stop stop-color="#AA80F9"/>
<stop offset="0.996" stop-color="#6165D7"/>
</linearGradient>
<linearGradient id="pf_0_i_35_1287;16_357" x1="32.216" y1="-9.075" x2="33.03" y2="22.323" gradientUnits="userSpaceOnUse">
<stop stop-color="#FFC444"/>
<stop offset="0.996" stop-color="#F36F56"/>
</linearGradient>
<linearGradient id="pf_0_i_35_1287;16_358" x1="30.625" y1="-9.022" x2="31.44" y2="22.373" gradientUnits="userSpaceOnUse">
<stop stop-color="#FFC444"/>
<stop offset="0.996" stop-color="#F36F56"/>
</linearGradient>
<linearGradient id="pf_0_i_35_1287;16_360" x1="26.326" y1="11.18" x2="38.365" y2="11.18" gradientUnits="userSpaceOnUse">
<stop stop-color="#FFC444"/>
<stop offset="0.996" stop-color="#F36F56"/>
</linearGradient>
<linearGradient id="pf_0_i_35_1287;16_361" x1="22.235" y1="15.63" x2="19.945" y2="38.727" gradientUnits="userSpaceOnUse">
<stop offset="0.004" stop-color="#E38DDD"/>
<stop offset="1" stop-color="#9571F6"/>
</linearGradient>
<linearGradient id="pf_0_i_35_1287;16_362" x1="24.292" y1="15.199" x2="22.01" y2="38.208" gradientUnits="userSpaceOnUse">
<stop offset="0.004" stop-color="#E38DDD"/>
<stop offset="1" stop-color="#9571F6"/>
</linearGradient>
<linearGradient id="pf_0_i_35_1287;16_367" x1="15.525" y1="20.237" x2="27.725" y2="20.237" gradientUnits="userSpaceOnUse">
<stop offset="0.004" stop-color="#E38DDD"/>
<stop offset="1" stop-color="#9571F6"/>
</linearGradient>
<linearGradient id="pf_0_i_35_1287;16_368" x1="22.457" y1="15.444" x2="16.392" y2="22.593" gradientUnits="userSpaceOnUse">
<stop stop-color="#311944"/>
<stop offset="1" stop-color="#A03976"/>
</linearGradient>
<linearGradient id="pf_0_i_35_1287;16_369" x1="17.419" y1="20.584" x2="14.37" y2="23.321" gradientUnits="userSpaceOnUse">
<stop stop-color="#FFC444"/>
<stop offset="0.996" stop-color="#F36F56"/>
</linearGradient>
<linearGradient id="pf_0_i_35_1287;16_370" x1="2.583" y1="32.354" x2="3.305" y2="27.621" gradientUnits="userSpaceOnUse">
<stop stop-color="#FFC444"/>
<stop offset="0.996" stop-color="#F36F56"/>
</linearGradient>
<linearGradient id="pf_0_i_35_1287;16_371" x1="6.513" y1="40.627" x2="5.923" y2="37.214" gradientUnits="userSpaceOnUse">
<stop stop-color="#AA80F9"/>
<stop offset="0.996" stop-color="#6165D7"/>
</linearGradient>
<linearGradient id="pf_0_i_35_1287;16_372" x1="6.164" y1="39.302" x2="6.361" y2="37.284" gradientUnits="userSpaceOnUse">
<stop stop-color="#FFC444"/>
<stop offset="0.996" stop-color="#F36F56"/>
</linearGradient>
<linearGradient id="pf_0_i_35_1287;16_373" x1="9.733" y1="40.09" x2="9.143" y2="36.677" gradientUnits="userSpaceOnUse">
<stop stop-color="#AA80F9"/>
<stop offset="0.996" stop-color="#6165D7"/>
</linearGradient>
<linearGradient id="pf_0_i_35_1287;16_374" x1="9.295" y1="39.597" x2="9.491" y2="37.579" gradientUnits="userSpaceOnUse">
<stop stop-color="#FFC444"/>
<stop offset="0.996" stop-color="#F36F56"/>
</linearGradient>
<linearGradient id="pf_0_i_35_1287;16_375" x1="6.754" y1="39.039" x2="9.813" y2="27.747" gradientUnits="userSpaceOnUse">
<stop stop-color="#444B8C"/>
<stop offset="0.996" stop-color="#26264F"/>
</linearGradient>
<linearGradient id="pf_0_i_35_1287;16_376" x1="5.746" y1="38.775" x2="8.806" y2="27.484" gradientUnits="userSpaceOnUse">
<stop stop-color="#444B8C"/>
<stop offset="0.996" stop-color="#26264F"/>
</linearGradient>
<linearGradient id="pf_0_i_35_1287;16_377" x1="2.651" y1="26.073" x2="16.447" y2="26.073" gradientUnits="userSpaceOnUse">
<stop stop-color="#FFC444"/>
<stop offset="0.996" stop-color="#F36F56"/>
</linearGradient>
<linearGradient id="pf_0_i_35_1287;16_378" x1="4.805" y1="27.442" x2="8.176" y2="27.442" gradientUnits="userSpaceOnUse">
<stop stop-color="#FFC444"/>
<stop offset="0.996" stop-color="#F36F56"/>
</linearGradient>
<linearGradient id="pf_0_i_35_1287;16_379" x1="8.61" y1="23.089" x2="7.546" y2="21.551" gradientUnits="userSpaceOnUse">
<stop stop-color="#FFC444"/>
<stop offset="0.996" stop-color="#F36F56"/>
</linearGradient>
<linearGradient id="pf_0_i_35_1287;16_380" x1="7.937" y1="22.389" x2="8.401" y2="20.775" gradientUnits="userSpaceOnUse">
<stop stop-color="#444B8C"/>
<stop offset="0.996" stop-color="#3E4177"/>
</linearGradient>
<linearGradient id="pf_0_i_35_1287;16_381" x1="9.41" y1="21.907" x2="7.71" y2="20.997" gradientUnits="userSpaceOnUse">
<stop stop-color="#FFC444"/>
<stop offset="0.996" stop-color="#F36F56"/>
</linearGradient>
<linearGradient id="pf_0_i_35_1287;16_382" x1="9.28" y1="22.082" x2="8.191" y2="21.353" gradientUnits="userSpaceOnUse">
<stop stop-color="#444B8C"/>
<stop offset="0.996" stop-color="#3E4177"/>
</linearGradient>
<linearGradient id="pf_0_i_35_1287;16_383" x1="16.785" y1="1.994" x2="26.748" y2="12.467" gradientUnits="userSpaceOnUse">
<stop stop-color="#FFC444"/>
<stop offset="0.996" stop-color="#F36F56"/>
</linearGradient>
<linearGradient id="pf_0_i_35_1287;16_384" x1="16.912" y1="3.223" x2="25.314" y2="12.054" gradientUnits="userSpaceOnUse">
<stop stop-color="#FFC444"/>
<stop offset="0.996" stop-color="#F36F56"/>
</linearGradient>
<linearGradient id="pf_0_i_35_1287;16_385" x1="21.39" y1="-2.247" x2="31.421" y2="8.296" gradientUnits="userSpaceOnUse">
<stop stop-color="#FFC444"/>
<stop offset="0.996" stop-color="#F36F56"/>
</linearGradient>
<linearGradient id="pf_0_i_35_1287;16_386" x1="21.39" y1="-2.247" x2="31.421" y2="8.296" gradientUnits="userSpaceOnUse">
<stop stop-color="#FFC444"/>
<stop offset="0.996" stop-color="#F36F56"/>
</linearGradient>
<linearGradient id="pf_0_i_35_1287;16_387" x1="21.57" y1="-2.401" x2="31.589" y2="8.13" gradientUnits="userSpaceOnUse">
<stop stop-color="#FFC444"/>
<stop offset="0.996" stop-color="#F36F56"/>
</linearGradient>
<linearGradient id="pf_0_i_35_1287;16_388" x1="37.603" y1="24.375" x2="28.263" y2="16.834" gradientUnits="userSpaceOnUse">
<stop offset="0.004" stop-color="#E38DDD"/>
<stop offset="1" stop-color="#9571F6"/>
</linearGradient>
<linearGradient id="pf_0_i_35_1287;16_389" x1="37.362" y1="23.379" x2="29.487" y2="17.02" gradientUnits="userSpaceOnUse">
<stop offset="0.004" stop-color="#E38DDD"/>
<stop offset="1" stop-color="#9571F6"/>
</linearGradient>
<linearGradient id="pf_0_i_35_1287;16_390" x1="34.288" y1="28.348" x2="24.886" y2="20.757" gradientUnits="userSpaceOnUse">
<stop offset="0.004" stop-color="#E38DDD"/>
<stop offset="1" stop-color="#9571F6"/>
</linearGradient>
<linearGradient id="pf_0_i_35_1287;16_391" x1="34.288" y1="28.348" x2="24.886" y2="20.757" gradientUnits="userSpaceOnUse">
<stop offset="0.004" stop-color="#E38DDD"/>
<stop offset="1" stop-color="#9571F6"/>
</linearGradient>
<linearGradient id="pf_0_i_35_1287;16_392" x1="34.157" y1="28.494" x2="24.766" y2="20.911" gradientUnits="userSpaceOnUse">
<stop offset="0.004" stop-color="#E38DDD"/>
<stop offset="1" stop-color="#9571F6"/>
</linearGradient>
</defs>
</svg>
