<svg width="84" height="88" viewBox="0 0 84 88" fill="none" xmlns="http://www.w3.org/2000/svg" xmlns:xlink="http://www.w3.org/1999/xlink">
<path d="M59.891,54.892L60.571,56.266C60.001,56.678 59.47,57.138 58.982,57.642L57.699,56.789C57.615,56.733 57.521,56.695 57.422,56.676C57.323,56.656 57.222,56.656 57.123,56.676C57.024,56.695 56.93,56.734 56.846,56.789C56.763,56.844 56.691,56.915 56.636,56.998L55.153,59.179C55.038,59.346 54.996,59.55 55.034,59.748C55.072,59.945 55.188,60.12 55.356,60.234L56.653,61.101C56.368,61.739 56.139,62.401 55.969,63.078L54.402,62.972C54.197,62.96 53.996,63.028 53.842,63.161C53.688,63.295 53.594,63.482 53.581,63.683L53.386,66.322C53.378,66.421 53.39,66.522 53.421,66.617C53.452,66.712 53.502,66.8 53.568,66.876C53.634,66.952 53.715,67.014 53.805,67.06C53.896,67.105 53.995,67.132 54.096,67.14L55.669,67.248C55.742,67.945 55.877,68.634 56.071,69.308L54.644,70.004C54.459,70.096 54.318,70.255 54.251,70.448C54.184,70.641 54.197,70.852 54.286,71.035L55.448,73.435C55.491,73.526 55.552,73.608 55.627,73.675C55.703,73.743 55.791,73.795 55.888,73.828C55.984,73.861 56.086,73.875 56.188,73.869C56.29,73.863 56.389,73.837 56.481,73.793L57.912,73.095C58.324,73.668 58.786,74.204 59.294,74.698L58.405,76.017C58.289,76.189 58.247,76.397 58.286,76.599C58.325,76.801 58.442,76.98 58.613,77.098L60.838,78.608C60.922,78.666 61.018,78.706 61.118,78.727C61.218,78.748 61.322,78.748 61.423,78.729C61.524,78.709 61.619,78.67 61.704,78.614C61.789,78.557 61.862,78.485 61.918,78.4L62.806,77.078C63.455,77.37 64.129,77.604 64.82,77.78L64.714,79.372C64.686,79.803 65.011,80.178 65.441,80.21L68.134,80.406C68.238,80.413 68.341,80.4 68.439,80.367C68.537,80.334 68.627,80.282 68.704,80.215C68.782,80.147 68.844,80.065 68.889,79.974C68.934,79.882 68.96,79.783 68.965,79.681L69.066,78.103C69.778,78.03 70.483,77.895 71.171,77.698L71.875,79.122C71.919,79.214 71.982,79.296 72.059,79.364C72.136,79.433 72.226,79.485 72.323,79.519C72.421,79.553 72.525,79.567 72.628,79.561C72.732,79.556 72.833,79.53 72.926,79.485L75.35,78.304C75.737,78.115 75.894,77.646 75.7,77.257L74.998,75.847C75.58,75.428 76.123,74.958 76.62,74.443L77.924,75.315C78.009,75.372 78.104,75.412 78.206,75.433C78.307,75.454 78.411,75.454 78.512,75.435C78.613,75.415 78.71,75.376 78.795,75.319C78.881,75.263 78.954,75.19 79.01,75.105L80.497,72.871C80.611,72.698 80.651,72.487 80.609,72.285C80.566,72.083 80.445,71.905 80.271,71.789L78.973,70.927C79.261,70.27 79.489,69.591 79.656,68.895L81.201,69.001C81.303,69.008 81.406,68.995 81.504,68.963C81.601,68.93 81.691,68.879 81.768,68.812C81.845,68.744 81.907,68.663 81.951,68.572C81.996,68.481 82.021,68.382 82.026,68.281L82.177,65.613C82.188,65.408 82.117,65.207 81.98,65.053C81.842,64.899 81.648,64.805 81.44,64.789L79.911,64.687C79.826,63.976 79.678,63.274 79.467,62.589L80.836,61.922C80.928,61.877 81.009,61.814 81.076,61.738C81.143,61.662 81.194,61.573 81.226,61.478C81.258,61.382 81.271,61.281 81.263,61.181C81.255,61.08 81.227,60.983 81.181,60.893L79.971,58.516C79.879,58.334 79.718,58.195 79.523,58.13C79.327,58.065 79.113,58.078 78.928,58.168L77.563,58.833C77.136,58.26 76.659,57.725 76.136,57.235L76.973,55.989C77.086,55.82 77.126,55.614 77.084,55.416C77.043,55.218 76.924,55.044 76.752,54.933L74.524,53.475C74.44,53.42 74.345,53.381 74.246,53.362C74.146,53.343 74.044,53.343 73.945,53.362C73.845,53.382 73.751,53.421 73.667,53.476C73.583,53.532 73.51,53.603 73.454,53.686L72.612,54.936C71.958,54.655 71.281,54.43 70.587,54.265L70.683,52.764C70.696,52.564 70.627,52.366 70.493,52.216C70.358,52.065 70.167,51.973 69.963,51.96L67.315,51.793C67.111,51.78 66.911,51.848 66.758,51.98C66.605,52.113 66.512,52.299 66.499,52.499L66.399,54.005C65.695,54.083 65,54.224 64.322,54.423L63.644,53.063C63.6,52.974 63.539,52.894 63.463,52.829C63.388,52.764 63.3,52.714 63.204,52.682C63.109,52.65 63.008,52.637 62.908,52.643C62.807,52.65 62.709,52.676 62.619,52.72L60.243,53.878C60.061,53.968 59.921,54.124 59.855,54.314C59.789,54.504 59.802,54.712 59.891,54.892ZM60.737,69.373C58.849,65.517 60.45,60.886 64.304,59.008C68.157,57.13 72.837,58.699 74.767,62.534C76.709,66.392 75.134,71.077 71.238,72.975C67.343,74.874 62.636,73.252 60.737,69.373Z" fill="#D8DEE8"/>
<path d="M41.843,13.773C28.775,13.692 18.434,28.239 18.434,46.265C18.434,64.29 28.775,79.673 41.843,80.646C55.27,81.647 66.427,67.132 66.427,48.202C66.427,29.273 55.27,13.857 41.843,13.773ZM43.151,78.956L43.15,78.956C42.761,78.956 42.367,78.941 41.977,78.912C36.228,78.484 30.806,74.923 26.712,68.886C22.516,62.699 20.205,54.665 20.205,46.265C20.205,37.905 22.494,30.096 26.652,24.277C30.69,18.625 36.046,15.512 41.734,15.512L41.832,15.512C44.791,15.531 47.683,16.372 50.429,18.012C53.144,19.634 55.598,21.959 57.723,24.922C59.884,27.936 61.585,31.444 62.778,35.349C64.025,39.426 64.657,43.751 64.657,48.202C64.657,56.658 62.349,64.509 58.158,70.31C54.13,75.885 48.8,78.956 43.151,78.956Z" fill="url(#pf_0_i_23_738;16_346)"/>
<path d="M19.256,46.265C19.256,29.507 28.194,15.754 39.952,13.969C39.126,13.845 24.872,13.779 24.025,13.773C10.957,13.692 0.616,28.239 0.616,46.265C0.616,64.29 10.957,79.673 24.025,80.646C25.353,80.745 40.075,80.692 41.35,80.498C28.91,78.629 19.256,63.681 19.256,46.265Z" fill="url(#pf_0_i_23_738;16_347)"/>
<path d="M23.607,13.733C26.794,14.58 33.18,16.749 38.66,22.436C46.546,30.619 46.278,40.159 46.541,44.369C46.754,47.794 48.776,65.772 35.916,75.043C30.9,78.659 25.636,79.721 22.548,80.087C25.052,80.273 39.34,80.46 41.843,80.646C44.802,80.211 49.054,79.16 53.19,76.347C67.428,66.665 65.607,46.092 65.318,43.305C64.879,39.071 63.718,27.87 54.341,20.001C49.742,16.142 44.87,14.513 41.843,13.773C39.693,13.76 25.757,13.746 23.607,13.733Z" fill="url(#pf_0_i_23_738;16_348)"/>
<path d="M23.211,13.708C10.274,13.628 0.036,28.12 0.036,46.076C0.036,64.031 10.274,79.351 23.211,80.317C36.501,81.309 47.544,66.849 47.544,47.996C47.544,29.143 36.501,13.791 23.211,13.708ZM24.501,78.626L24.499,78.626C24.116,78.626 23.728,78.611 23.345,78.583C17.661,78.159 12.299,74.616 8.248,68.607C4.094,62.446 1.807,54.444 1.807,46.076C1.807,37.748 4.074,29.969 8.19,24.172C12.184,18.546 17.481,15.447 23.104,15.447L23.2,15.447C26.124,15.466 28.982,16.302 31.696,17.933C34.381,19.547 36.809,21.861 38.911,24.811C41.05,27.812 42.733,31.305 43.914,35.194C45.148,39.255 45.774,43.563 45.774,47.996C45.774,56.42 43.489,64.241 39.34,70.02C35.356,75.569 30.086,78.626 24.501,78.626Z" fill="url(#pf_0_i_23_738;16_349)"/>
<path d="M63.941,24.218L41.46,24.022C39.261,24.003 37.457,25.774 37.457,27.978L37.457,63.77C37.457,65.974 38.335,67.163 41.46,67.744L43.928,67.906C45.812,67.671 67.337,63.088 67.337,61.081L67.337,27.881C67.337,25.874 65.825,24.234 63.941,24.218Z" fill="url(#pf_0_i_23_738;16_350)"/>
<path d="M66.854,24.218L44.435,24.022C42.242,24.003 40.443,25.772 40.443,27.973L40.443,64.387C40.443,66.588 42.242,68.148 44.435,67.875L66.854,65.082C68.733,64.848 70.241,63.035 70.241,61.031L70.241,27.876C70.241,25.872 68.733,24.234 66.854,24.218Z" fill="url(#pf_0_i_23_738;16_351)"/>
<path d="M66.853,26.052L44.435,25.991C43.344,25.988 42.451,26.874 42.451,27.966L42.451,64.161C42.451,65.253 43.344,66.035 44.435,65.906L66.853,63.247C67.795,63.136 68.556,62.227 68.556,61.221L68.556,27.881C68.556,26.875 67.795,26.055 66.853,26.052Z" fill="#D8DEE8"/>
<g opacity="0.5" style="mix-blend-mode:soft-light">
<path d="M52.914,47.457C50.215,39.708 54.818,34.941 52.357,27.36C51.985,26.217 51.49,25.117 50.88,24.078L44.435,24.022C42.242,24.003 40.443,25.772 40.443,27.973L40.443,64.387C40.443,66.588 42.242,68.148 44.435,67.875L65.773,65.217C65.044,62.807 64.069,60.906 63.046,59.385C59.264,53.764 55.103,53.741 52.914,47.457Z" fill="#FFFFFF"/>
</g>
<g style="mix-blend-mode:soft-light">
<path d="M66.427,27.659L66.427,45.955L44.048,47.051L44.048,27.659L66.427,27.659Z" fill="#FFFFFF"/>
</g>
<g style="mix-blend-mode:soft-light">
<path d="M49.454,64.235C49.747,64.235 66.851,62.455 66.851,62.455L66.851,49.355L49.454,50.795L49.454,64.235Z" fill="#FFFFFF"/>
</g>
<path d="M83.969,14.109L83.969,28.351C83.968,29.025 83.832,29.692 83.568,30.314C83.305,30.937 82.918,31.501 82.432,31.977C81.945,32.452 81.368,32.828 80.734,33.084C80.099,33.34 79.419,33.47 78.733,33.467L61.098,33.467C58.207,33.467 55.917,31.191 55.917,28.351L55.917,14.109C55.917,12.392 56.747,10.858 58.062,9.924C58.923,9.313 59.955,8.939 61.098,8.939L78.733,8.939C81.624,8.939 83.969,11.269 83.969,14.109Z" fill="url(#pf_0_i_23_738;16_357)"/>
<path d="M71.822,30.331L62.942,39.065C62.843,39.159 62.719,39.222 62.585,39.248C62.45,39.273 62.311,39.26 62.184,39.209C61.931,39.107 61.747,38.864 61.747,38.595L61.747,29.533L71.822,30.331Z" fill="url(#pf_0_i_23_738;16_358)"/>
<path d="M74.977,21.244L71.935,12.72L67.875,12.72L65.732,18.766L62.347,28.28L65.925,28.28L67.061,24.39L72.77,24.39L73.906,28.28L77.484,28.28L74.977,21.244ZM67.896,21.797C68.203,20.825 68.476,19.94 68.717,19.164C69.349,17.125 69.75,15.78 69.921,15.127C69.978,15.379 70.073,15.722 70.205,16.156C70.307,16.49 70.678,17.678 71.319,19.71C71.514,20.325 71.734,21.041 71.978,21.797L67.896,21.797Z" fill="#FFFFFF"/>
<g opacity="0.3" style="mix-blend-mode:multiply">
<path d="M82.403,32.004C81.424,32.948 80.105,33.473 78.733,33.467L68.628,33.467L62.954,39.052C62.855,39.147 62.73,39.211 62.595,39.238C62.459,39.264 62.319,39.252 62.19,39.203C61.937,39.101 61.747,38.864 61.747,38.594L61.747,33.467L61.098,33.467C58.207,33.467 55.917,31.191 55.917,28.351L55.917,14.109C55.917,12.392 56.747,10.872 58.062,9.938C57.924,12.947 58.584,17.879 64.327,18.551C64.815,18.608 65.281,18.665 65.739,18.724C66.813,18.859 67.802,19.001 68.721,19.158C69.667,19.32 70.532,19.498 71.321,19.702C72.799,20.085 74.01,20.562 74.978,21.202C76.448,22.175 77.361,23.517 77.809,25.485C78.597,28.945 79.881,31.053 82.403,32.004Z" fill="url(#pf_0_i_23_738;16_360)" style="mix-blend-mode:multiply"/>
</g>
<path d="M60.317,34.125L60.317,48.367C60.317,49.691 59.82,50.927 58.983,51.839C58.026,52.882 56.651,53.565 55.108,53.565L37.473,53.565C34.582,53.565 32.155,51.207 32.155,48.367L32.155,34.125C32.155,32.315 33.15,30.749 34.59,29.833C35.408,29.313 36.425,29.037 37.473,29.037L55.108,29.037C57.999,29.037 60.317,31.285 60.317,34.125Z" fill="url(#pf_0_i_23_738;16_361)"/>
<path d="M54.377,49.501L54.377,58.562C54.377,58.832 54.228,59.074 53.975,59.177C53.852,59.228 53.717,59.241 53.587,59.215C53.456,59.189 53.337,59.126 53.244,59.033L44.34,50.298L54.377,49.501Z" fill="url(#pf_0_i_23_738;16_362)"/>
<path d="M53.937,35.52L38.646,35.52L38.646,37.897L53.937,37.897L53.937,35.52Z" fill="#FFFFFF"/>
<path d="M52.984,49.35C47.578,48.119 44.655,44.774 43.154,42.184C41.542,39.4 41.198,36.903 41.184,36.798L43.577,36.494L42.38,36.646L43.576,36.491C43.579,36.513 43.892,38.699 45.295,41.087C47.132,44.212 49.902,46.216 53.529,47.041L52.984,49.35Z" fill="#FFFFFF"/>
<path d="M39.637,49.35L39.092,47.041C42.719,46.216 45.489,44.212 47.326,41.087C48.73,38.699 49.042,36.513 49.045,36.491L51.437,36.798C51.423,36.903 51.079,39.4 49.467,42.184C47.966,44.774 45.043,48.119 39.637,49.35Z" fill="#FFFFFF"/>
<path d="M47.446,33.143L45.136,33.143L45.136,36.601L47.446,36.601L47.446,33.143Z" fill="#FFFFFF"/>
<g opacity="0.3" style="mix-blend-mode:multiply">
<path d="M58.995,51.839C58.038,52.881 56.651,53.565 55.108,53.565L54.377,53.565L54.377,58.562C54.377,58.832 54.228,59.074 53.975,59.177C53.721,59.28 53.437,59.251 53.244,59.061L47.627,53.565L37.473,53.565C34.582,53.565 32.155,51.207 32.155,48.367L32.155,34.125C32.155,32.315 33.15,30.722 34.59,29.806C34.484,32.356 34.996,36.228 38.6,37.763C38.706,37.808 38.824,37.851 38.936,37.892C39.514,38.105 40.172,38.261 40.907,38.347C41.123,38.372 41.339,38.398 41.548,38.423C42.489,38.536 43.373,38.652 44.202,38.776C45.674,38.997 46.972,39.243 48.107,39.548C48.956,39.776 49.713,40.037 50.385,40.345C52.567,41.343 53.849,42.847 54.408,45.302C55.194,48.759 56.477,50.886 58.995,51.839Z" fill="url(#pf_0_i_23_738;16_367)" style="mix-blend-mode:multiply"/>
</g>
<path d="M34.413,46.717L47.912,35.837L47.983,35.871L34.59,47.015L34.413,46.717Z" fill="url(#pf_0_i_23_738;16_368)"/>
<path d="M33.588,47.44L34.117,46.873L34.392,46.248C34.439,46.14 34.515,46.046 34.611,45.976L34.769,45.861C34.86,45.795 34.97,45.759 35.082,45.759L35.601,45.759C35.601,45.759 35.51,45.925 35.363,45.951C35.216,45.976 34.909,46.317 34.909,46.317L34.867,46.717L35.455,46.295L36.082,45.587L36.082,45.98C36.082,46.115 36.032,46.244 35.943,46.346L35.435,46.924C35.309,47.067 35.136,47.161 34.947,47.191L34.821,47.211C34.692,47.231 34.569,47.277 34.459,47.346C34.348,47.415 34.253,47.505 34.179,47.611L33.822,48.125L33.588,47.44Z" fill="url(#pf_0_i_23_738;16_369)"/>
<path d="M5.059,66.278C5.059,66.278 4.913,66.955 4.785,67.525C4.658,68.095 4.148,68.532 3.924,68.987C3.701,69.442 3.601,68.909 3.539,68.58C3.478,68.251 3.539,67.572 3.816,67.34C4.092,67.107 4.302,66.904 4.288,66.858C4.275,66.811 4.466,66.027 4.466,66.027L5.059,66.278Z" fill="url(#pf_0_i_23_738;16_370)"/>
<path d="M11.183,86.621C11.148,86.481 11.172,86.292 11.297,86.165C11.465,85.995 11.748,86.009 11.925,86.088C12.028,86.134 12.109,86.208 12.392,86.789C12.692,87.403 12.691,87.503 12.643,87.559C12.545,87.673 12.269,87.588 12.21,87.57C12.013,87.51 11.965,87.418 11.558,87.045C11.283,86.791 11.215,86.75 11.183,86.621Z" fill="url(#pf_0_i_23_738;16_371)"/>
<path d="M11.375,85.661L11.444,86.373C11.609,86.458 11.711,86.451 11.765,86.373L11.904,85.661L11.375,85.661Z" fill="url(#pf_0_i_23_738;16_372)"/>
<path d="M18.308,86.533C18.211,86.423 18.143,86.245 18.195,86.076C18.265,85.849 18.522,85.734 18.716,85.723C18.829,85.717 18.935,85.746 19.46,86.134C20.014,86.543 20.06,86.632 20.043,86.703C20.01,86.849 19.726,86.899 19.665,86.91C19.462,86.945 19.376,86.886 18.84,86.738C18.476,86.638 18.396,86.632 18.308,86.533Z" fill="url(#pf_0_i_23_738;16_373)"/>
<path d="M18.356,85.343L18.425,86.055C18.59,86.14 18.692,86.133 18.746,86.055L18.885,85.343L18.356,85.343Z" fill="url(#pf_0_i_23_738;16_374)"/>
<path d="M11.189,85.8C11.45,85.816 11.711,85.831 11.972,85.847C12.524,83.2 13.133,80.493 13.797,77.725C14.527,74.694 15.286,71.755 16.076,68.91C16.325,69.993 16.571,71.259 16.766,72.682C16.957,74.069 17.078,75.464 17.126,76.862C17.197,79.153 16.994,79.424 17.09,80.855C17.166,81.98 17.414,83.632 18.244,85.64C18.493,85.625 18.742,85.61 18.99,85.595C19.636,82.526 20.018,79.409 20.133,76.277C20.271,72.52 20.024,68.76 19.398,65.052C17.138,65.121 14.879,65.19 12.619,65.259C12.061,66.471 11.661,67.748 11.429,69.059C11.102,70.928 11.303,71.851 11.056,75.036C10.929,76.681 10.836,76.943 10.744,78.036C10.591,79.846 10.564,82.461 11.189,85.8Z" fill="url(#pf_0_i_23_738;16_375)"/>
<g opacity="0.3" style="mix-blend-mode:multiply">
<path d="M12.691,79.483C12.897,77.331 12.107,77.375 12.475,75.516C12.813,73.805 13.531,73.52 14.061,71.336C14.486,69.584 14.162,69.199 14.494,68.432C14.904,67.484 16.104,66.45 19.551,66.01C19.501,65.683 19.45,65.362 19.398,65.052C17.138,65.121 14.879,65.19 12.619,65.259C12.061,66.471 11.661,67.748 11.429,69.059C11.102,70.928 11.303,71.851 11.056,75.036C10.929,76.681 10.836,76.943 10.744,78.036C10.591,79.846 10.564,82.461 11.189,85.8C11.45,85.816 11.711,85.831 11.972,85.847C11.988,85.77 12.005,85.692 12.021,85.615C11.879,85.391 11.765,85.152 11.681,84.902C11.109,83.175 12.433,82.173 12.691,79.483Z" fill="url(#pf_0_i_23_738;16_376)" style="mix-blend-mode:multiply"/>
</g>
<path d="M4.145,66.413C4.481,66.472 4.818,66.531 5.154,66.59C5.362,65.972 5.664,65.039 5.989,63.891C6.361,62.578 6.551,61.73 6.633,61.419C6.957,60.181 7.904,58.444 10.696,56.329C10.668,57.675 10.647,58.781 10.632,59.542C10.516,65.643 10.523,66.75 11.348,67.358C12.065,67.887 12.461,67.346 15.72,67.407C18.692,67.462 19.318,67.93 20.072,67.394C21.297,66.524 20.821,64.459 20.84,61.879C20.856,59.75 21.213,56.738 22.788,53.06C24.578,53.233 26.386,53.028 28.088,52.458C31.509,51.304 33.453,48.999 34.183,48.03C33.942,47.712 33.702,47.393 33.461,47.074C31.693,47.834 29.835,48.375 27.93,48.683C23.769,49.351 21.856,48.483 17.992,48.632C15.766,48.719 11.221,48.895 8.147,51.183C2.495,55.389 3.942,65.156 4.145,66.413Z" fill="url(#pf_0_i_23_738;16_377)"/>
<g opacity="0.3" style="mix-blend-mode:multiply">
<path d="M14.927,65.705C14.755,64.762 15.271,64.366 14.999,63.296C14.614,61.787 13.381,61.775 13.088,60.498C12.808,59.28 13.843,58.914 14.097,56.991C14.284,55.578 14.02,53.535 13.052,53.202C11.846,52.787 10.075,55.2 9.878,55.468C9.275,56.296 8.832,57.225 8.57,58.21C9.121,57.623 9.817,56.995 10.696,56.329C10.668,57.675 10.647,58.781 10.632,59.542C10.516,65.643 10.523,66.75 11.348,67.358C12.065,67.887 12.461,67.346 15.72,67.407C15.813,67.409 15.897,67.412 15.986,67.414C15.282,66.781 15.015,66.189 14.927,65.705Z" fill="url(#pf_0_i_23_738;16_378)" style="mix-blend-mode:multiply"/>
</g>
<path d="M15.924,46.887C15.924,46.887 15.823,47.673 15.526,48.244C15.257,48.76 14.045,49.002 13.795,49.102C13.545,49.203 14.207,49.605 14.894,49.728C15.582,49.851 17.574,49.853 17.952,49.623C18.329,49.393 17.684,49.361 17.204,49.144C16.724,48.927 16.515,47.954 16.638,47.529C16.76,47.105 15.924,46.887 15.924,46.887Z" fill="url(#pf_0_i_23_738;16_379)"/>
<path d="M17.203,46.595C17.366,46.324 17.262,45.833 16.943,45.621C16.706,45.464 16.434,45.517 16.236,45.556C16.144,45.574 15.5,45.707 15.353,46.176C15.306,46.325 15.325,46.522 15.394,46.675C15.429,46.753 15.495,46.85 15.64,47.033C15.768,47.196 15.76,47.191 15.799,47.238C15.893,47.351 16.074,47.541 16.397,47.755C16.412,47.649 16.437,47.544 16.471,47.441C16.515,47.308 16.576,47.181 16.653,47.063C16.865,46.752 17.076,46.807 17.203,46.595Z" fill="url(#pf_0_i_23_738;16_380)"/>
<path d="M15.987,47.55C15.987,47.55 16.335,48.005 16.929,47.91C17.46,47.825 17.423,46.639 17.057,46.421C16.935,46.349 16.703,46.336 16.522,46.404C16.416,46.445 16.383,46.493 16.207,46.556C16.045,46.614 15.997,46.601 15.951,46.647C15.893,46.705 15.859,46.836 15.998,47.171C15.886,47.079 15.76,47.052 15.677,47.1C15.648,47.119 15.626,47.145 15.612,47.175C15.55,47.317 15.692,47.477 15.987,47.55Z" fill="url(#pf_0_i_23_738;16_381)"/>
<path d="M15.867,46.879C15.867,46.879 16.093,47.291 16.219,47.389C16.346,47.486 16.63,47.545 16.906,47.398C17.059,47.318 17.203,47.222 17.335,47.111C17.335,47.111 17.447,47.683 17.379,47.753C17.31,47.824 16.801,48.13 16.655,48.108C16.509,48.086 16.152,47.804 16.069,47.628C15.987,47.453 15.887,46.999 15.887,46.999L15.867,46.879Z" fill="url(#pf_0_i_23_738;16_382)"/>
<path d="M55.289,1.815L53.351,4.902L53.057,5.37C53.057,5.37 52.932,5.329 52.698,5.253C52.581,5.212 52.434,5.172 52.263,5.122C52.091,5.069 51.891,5.021 51.667,4.964C50.416,4.658 49.131,4.508 47.842,4.517C46.972,4.524 46.104,4.6 45.247,4.744C44.79,4.829 44.321,4.92 43.849,5.05C43.79,5.065 43.73,5.081 43.671,5.096C43.611,5.113 43.552,5.131 43.493,5.149C43.375,5.184 43.255,5.219 43.135,5.254C42.899,5.336 42.656,5.409 42.419,5.502C41.429,5.867 40.478,6.328 39.582,6.879C39.122,7.162 38.675,7.474 38.237,7.804L37.914,8.061C37.861,8.104 37.805,8.146 37.754,8.189L37.603,8.319L37.451,8.448C37.4,8.491 37.351,8.531 37.295,8.585L36.97,8.886L36.929,8.924L36.879,8.916L36.845,8.895L36.84,8.899L36.8,8.993L36.667,9.153C36.569,9.25 36.475,9.352 36.383,9.455L36.102,9.759C36.011,9.864 35.921,9.969 35.83,10.073C35.47,10.489 35.132,10.924 34.818,11.375L34.7,11.543L34.588,11.715C34.514,11.829 34.438,11.942 34.366,12.057C34.226,12.29 34.083,12.519 33.956,12.757C33.821,12.99 33.704,13.23 33.582,13.467C33.523,13.587 33.469,13.707 33.413,13.827C33.384,13.886 33.356,13.946 33.328,14.006C33.303,14.067 33.277,14.127 33.252,14.187C33.039,14.668 32.866,15.155 32.707,15.636C32.633,15.879 32.557,16.118 32.495,16.358C32.427,16.597 32.375,16.837 32.319,17.073C32.123,17.967 32.002,18.874 31.957,19.787C31.918,20.565 31.935,21.344 32.009,22.119C32.068,22.72 32.158,23.317 32.28,23.909C32.334,24.154 32.38,24.376 32.43,24.562C32.479,24.75 32.517,24.911 32.559,25.043C32.579,25.112 32.597,25.172 32.612,25.225C32.627,25.277 32.624,25.333 32.603,25.384C32.582,25.435 32.544,25.477 32.495,25.504C32.482,25.512 32.467,25.518 32.453,25.523L32.433,25.529C32.373,25.55 32.306,25.546 32.248,25.52C32.19,25.493 32.145,25.446 32.122,25.387C32.101,25.338 32.078,25.279 32.051,25.212C31.999,25.087 31.941,24.922 31.873,24.73C31.799,24.537 31.731,24.315 31.651,24.066C31.465,23.463 31.311,22.852 31.19,22.233C31.035,21.426 30.938,20.609 30.9,19.788C30.854,18.811 30.891,17.831 31.008,16.859C31.043,16.6 31.075,16.336 31.124,16.072C31.165,15.806 31.222,15.539 31.278,15.269C31.399,14.732 31.537,14.183 31.719,13.635C31.741,13.567 31.762,13.498 31.784,13.429C31.808,13.361 31.832,13.292 31.857,13.224C31.906,13.087 31.953,12.949 32.004,12.811C32.113,12.539 32.218,12.262 32.342,11.99C32.457,11.715 32.59,11.446 32.721,11.173C32.789,11.038 32.861,10.905 32.931,10.769L33.038,10.568L33.151,10.369C33.454,9.83 33.786,9.308 34.146,8.805C34.237,8.678 34.328,8.552 34.42,8.426L34.707,8.055C34.803,7.93 34.904,7.811 35.005,7.691L35.156,7.51L35.231,7.42L35.32,7.322L35.615,6.992C35.661,6.939 35.719,6.879 35.776,6.821L35.945,6.645L36.115,6.47C36.172,6.411 36.229,6.36 36.285,6.304C36.399,6.195 36.513,6.085 36.626,5.976C37.092,5.55 37.573,5.143 38.075,4.764C39.062,4.021 40.122,3.377 41.24,2.842C41.511,2.707 41.789,2.592 42.061,2.471C42.199,2.415 42.336,2.359 42.473,2.304C42.542,2.277 42.611,2.25 42.679,2.222C42.748,2.197 42.817,2.173 42.886,2.148C43.433,1.94 43.984,1.777 44.523,1.625C45.543,1.354 46.585,1.164 47.636,1.056C49.226,0.897 50.83,0.935 52.41,1.167C52.697,1.211 52.954,1.249 53.175,1.295C53.397,1.337 53.587,1.372 53.738,1.408C54.043,1.477 55.289,1.815 55.289,1.815Z" fill="url(#pf_0_i_23_738;16_383)"/>
<g opacity="0.3" style="mix-blend-mode:multiply">
<path d="M53.238,4.789C53.279,4.823 53.317,4.861 53.351,4.902L53.057,5.37C53.057,5.37 52.932,5.329 52.698,5.253C52.581,5.212 52.434,5.172 52.263,5.122C52.091,5.069 51.891,5.021 51.667,4.964C50.416,4.658 49.131,4.508 47.842,4.517C46.972,4.524 46.104,4.6 45.247,4.744C44.79,4.829 44.321,4.92 43.849,5.05C43.79,5.065 43.73,5.081 43.671,5.096C43.611,5.113 43.552,5.131 43.493,5.149C43.375,5.184 43.255,5.219 43.135,5.254C42.899,5.336 42.656,5.409 42.419,5.502C41.429,5.867 40.478,6.328 39.582,6.879C39.122,7.162 38.675,7.474 38.237,7.804L37.914,8.061C37.861,8.104 37.805,8.146 37.754,8.189L37.603,8.319L37.451,8.448C37.4,8.491 37.351,8.531 37.295,8.585L36.97,8.886L36.929,8.924L36.879,8.916L36.845,8.895L36.84,8.899L36.8,8.993L36.667,9.153C36.569,9.25 36.475,9.353 36.383,9.455L36.102,9.759C36.011,9.864 35.921,9.969 35.83,10.073C35.47,10.489 35.132,10.924 34.818,11.375L34.7,11.543L34.588,11.715C34.514,11.829 34.438,11.942 34.366,12.057C34.226,12.29 34.083,12.519 33.956,12.757C33.821,12.99 33.704,13.23 33.582,13.467C33.523,13.587 33.469,13.707 33.413,13.827C33.384,13.886 33.356,13.946 33.328,14.006C33.303,14.067 33.277,14.127 33.252,14.187C33.039,14.668 32.866,15.155 32.707,15.636C32.633,15.879 32.557,16.118 32.495,16.358C32.427,16.597 32.375,16.837 32.319,17.073C32.123,17.967 32.002,18.874 31.957,19.787C31.918,20.565 31.935,21.344 32.009,22.119C32.068,22.72 32.158,23.317 32.28,23.909C32.334,24.155 32.38,24.376 32.43,24.562C32.479,24.75 32.517,24.911 32.559,25.043C32.579,25.112 32.597,25.173 32.612,25.225C32.627,25.277 32.624,25.333 32.603,25.384C32.582,25.435 32.544,25.477 32.495,25.504C32.006,23.761 30.196,15.998 34.901,10.267C40.231,3.775 49.724,1.806 53.238,4.789Z" fill="url(#pf_0_i_23_738;16_384)" style="mix-blend-mode:multiply"/>
</g>
<path d="M56.312,0.728L60.159,7.902L49.999,6.408L56.312,0.728Z" fill="url(#pf_0_i_23_738;16_385)"/>
<g opacity="0.3" style="mix-blend-mode:multiply">
<path d="M56.312,0.728L60.159,7.902L49.999,6.408L56.312,0.728Z" fill="url(#pf_0_i_23_738;16_386)" style="mix-blend-mode:multiply"/>
</g>
<path d="M56.67,0.351L60.197,7.862L50.387,6.059L56.67,0.351Z" fill="url(#pf_0_i_23_738;16_387)"/>
<path d="M64.284,57.905L65.536,55.163L65.726,54.747C65.726,54.747 65.833,54.768 66.034,54.805C66.134,54.826 66.259,54.844 66.405,54.866C66.552,54.892 66.722,54.91 66.912,54.933C67.974,55.051 69.046,55.037 70.103,54.892C70.817,54.794 71.521,54.639 72.209,54.43C72.575,54.312 72.951,54.187 73.324,54.029C73.371,54.011 73.418,53.992 73.465,53.973C73.512,53.952 73.559,53.931 73.606,53.911C73.699,53.869 73.793,53.827 73.888,53.786C74.073,53.694 74.264,53.608 74.449,53.506C75.222,53.101 75.951,52.621 76.627,52.073C76.973,51.792 77.306,51.487 77.63,51.17L77.866,50.925C77.905,50.884 77.947,50.843 77.984,50.802L78.094,50.68L78.205,50.557C78.241,50.517 78.277,50.478 78.317,50.428L78.551,50.146L78.581,50.111L78.631,50.119L78.671,50.139L78.675,50.135L78.688,50.047L78.775,49.898C78.845,49.808 78.908,49.712 78.973,49.618L79.169,49.337C79.232,49.242 79.293,49.145 79.357,49.05C79.607,48.67 79.836,48.277 80.044,47.873L80.122,47.722L80.195,47.569C80.244,47.468 80.293,47.367 80.34,47.264C80.429,47.058 80.522,46.855 80.6,46.646C80.684,46.441 80.754,46.231 80.829,46.023C80.863,45.918 80.895,45.814 80.928,45.709C80.944,45.657 80.961,45.605 80.977,45.553C80.992,45.5 81.006,45.448 81.02,45.396C81.142,44.979 81.23,44.56 81.307,44.148C81.342,43.941 81.378,43.736 81.402,43.532C81.431,43.329 81.448,43.126 81.468,42.926C81.53,42.172 81.529,41.413 81.466,40.658C81.412,40.016 81.312,39.377 81.165,38.749C81.051,38.261 80.911,37.78 80.745,37.308C80.674,37.112 80.612,36.935 80.55,36.787C80.489,36.637 80.44,36.51 80.391,36.405C80.367,36.351 80.346,36.303 80.328,36.262C80.309,36.221 80.306,36.174 80.317,36.13C80.329,36.086 80.356,36.048 80.392,36.02C80.403,36.013 80.414,36.006 80.425,36L80.441,35.993C80.488,35.97 80.543,35.965 80.593,35.981C80.644,35.997 80.686,36.031 80.712,36.076C80.734,36.115 80.76,36.16 80.789,36.212C80.846,36.31 80.912,36.439 80.989,36.59C81.071,36.74 81.151,36.916 81.245,37.112C81.464,37.587 81.658,38.073 81.825,38.568C82.042,39.214 82.212,39.875 82.334,40.545C82.479,41.343 82.557,42.152 82.568,42.963C82.568,43.179 82.571,43.399 82.56,43.622C82.555,43.844 82.538,44.07 82.522,44.297C82.482,44.752 82.429,45.217 82.34,45.686C82.33,45.745 82.32,45.804 82.309,45.863C82.297,45.921 82.285,45.98 82.272,46.039C82.247,46.156 82.223,46.275 82.196,46.393C82.137,46.629 82.082,46.868 82.01,47.104C81.945,47.342 81.866,47.577 81.788,47.815C81.748,47.934 81.703,48.051 81.66,48.17L81.595,48.346L81.524,48.522C81.334,48.996 81.119,49.46 80.88,49.912C80.819,50.026 80.757,50.139 80.696,50.253L80.501,50.588C80.437,50.7 80.366,50.809 80.297,50.918L80.193,51.083L80.141,51.165L80.079,51.255L79.873,51.558C79.841,51.606 79.8,51.662 79.76,51.716L79.64,51.878L79.52,52.04C79.48,52.094 79.439,52.142 79.398,52.194C79.317,52.296 79.236,52.398 79.154,52.5C78.819,52.899 78.468,53.285 78.098,53.649C77.369,54.365 76.57,55.007 75.711,55.565C75.503,55.705 75.287,55.829 75.077,55.958C74.97,56.018 74.864,56.079 74.757,56.139C74.704,56.168 74.65,56.198 74.597,56.227C74.544,56.256 74.489,56.283 74.436,56.311C74.009,56.54 73.575,56.732 73.149,56.915C72.34,57.246 71.506,57.513 70.654,57.713C69.366,58.013 68.045,58.153 66.721,58.13C66.48,58.125 66.265,58.121 66.079,58.107C65.892,58.096 65.732,58.088 65.603,58.074C65.345,58.05 64.284,57.905 64.284,57.905Z" fill="url(#pf_0_i_23_738;16_388)"/>
<g opacity="0.3" style="mix-blend-mode:multiply">
<path d="M65.641,55.244C65.604,55.22 65.568,55.193 65.536,55.163L65.726,54.747C65.726,54.747 65.833,54.767 66.034,54.805C66.134,54.826 66.259,54.844 66.405,54.866C66.552,54.892 66.722,54.91 66.912,54.933C67.974,55.051 69.046,55.037 70.103,54.892C70.817,54.794 71.521,54.639 72.209,54.43C72.575,54.312 72.951,54.187 73.324,54.029C73.371,54.011 73.418,53.991 73.466,53.973C73.512,53.952 73.559,53.931 73.606,53.911C73.699,53.869 73.793,53.827 73.888,53.786C74.073,53.694 74.264,53.608 74.449,53.506C75.222,53.101 75.951,52.621 76.627,52.073C76.973,51.792 77.306,51.487 77.63,51.17L77.866,50.925C77.905,50.884 77.947,50.843 77.984,50.802L78.094,50.68L78.205,50.557C78.241,50.516 78.277,50.478 78.317,50.428L78.551,50.146L78.581,50.111L78.631,50.118L78.671,50.139L78.675,50.135L78.688,50.047L78.775,49.898C78.845,49.808 78.908,49.712 78.973,49.618L79.169,49.337C79.232,49.242 79.293,49.145 79.357,49.05C79.607,48.67 79.836,48.277 80.044,47.873L80.122,47.722L80.195,47.569C80.244,47.468 80.293,47.367 80.34,47.264C80.429,47.058 80.522,46.855 80.6,46.646C80.684,46.44 80.754,46.231 80.829,46.023C80.863,45.918 80.895,45.814 80.928,45.709C80.944,45.657 80.961,45.605 80.977,45.553C80.992,45.5 81.006,45.448 81.02,45.396C81.142,44.979 81.23,44.56 81.307,44.148C81.342,43.941 81.378,43.736 81.402,43.532C81.431,43.329 81.448,43.126 81.468,42.926C81.53,42.172 81.529,41.413 81.466,40.658C81.412,40.016 81.312,39.377 81.165,38.749C81.051,38.261 80.911,37.78 80.745,37.308C80.674,37.112 80.612,36.935 80.55,36.787C80.489,36.637 80.44,36.51 80.391,36.405C80.367,36.351 80.346,36.303 80.328,36.262C80.309,36.221 80.306,36.174 80.317,36.13C80.329,36.086 80.356,36.048 80.392,36.02C80.986,37.4 83.33,43.584 80.098,48.792C76.437,54.691 68.856,57.319 65.641,55.244Z" fill="url(#pf_0_i_23_738;16_389)" style="mix-blend-mode:multiply"/>
</g>
<path d="M63.564,58.907L59.613,53.423L68.123,53.569L63.564,58.907Z" fill="url(#pf_0_i_23_738;16_390)"/>
<g opacity="0.3" style="mix-blend-mode:multiply">
<path d="M63.564,58.907L59.613,53.423L68.123,53.569L63.564,58.907Z" fill="url(#pf_0_i_23_738;16_391)" style="mix-blend-mode:multiply"/>
</g>
<path d="M63.312,59.254L59.586,53.461L67.843,53.897L63.312,59.254Z" fill="url(#pf_0_i_23_738;16_392)"/>
<defs>
<linearGradient id="pf_0_i_23_738;16_346" x1="18.434" y1="47.234" x2="66.427" y2="47.234" gradientUnits="userSpaceOnUse">
<stop stop-color="#AA80F9"/>
<stop offset="0.996" stop-color="#6165D7"/>
</linearGradient>
<linearGradient id="pf_0_i_23_738;16_347" x1="0.616" y1="47.234" x2="41.35" y2="47.234" gradientUnits="userSpaceOnUse">
<stop stop-color="#AA80F9"/>
<stop offset="0.996" stop-color="#6165D7"/>
</linearGradient>
<linearGradient id="pf_0_i_23_738;16_348" x1="22.548" y1="47.19" x2="65.548" y2="47.19" gradientUnits="userSpaceOnUse">
<stop stop-color="#AA80F9"/>
<stop offset="0.996" stop-color="#6165D7"/>
</linearGradient>
<linearGradient id="pf_0_i_23_738;16_349" x1="34.852" y1="30.058" x2="-5.681" y2="92.365" gradientUnits="userSpaceOnUse">
<stop stop-color="#FF9085"/>
<stop offset="1" stop-color="#FB6FBB"/>
</linearGradient>
<linearGradient id="pf_0_i_23_738;16_350" x1="85.116" y1="37.461" x2="51.884" y2="44.1" gradientUnits="userSpaceOnUse">
<stop stop-color="#FF9085"/>
<stop offset="1" stop-color="#FB6FBB"/>
</linearGradient>
<linearGradient id="pf_0_i_23_738;16_351" x1="28.589" y1="68.537" x2="68.695" y2="32.58" gradientUnits="userSpaceOnUse">
<stop stop-color="#AA80F9"/>
<stop offset="0.996" stop-color="#6165D7"/>
</linearGradient>
<linearGradient id="pf_0_i_23_738;16_357" x1="68.874" y1="-19.965" x2="70.666" y2="49.11" gradientUnits="userSpaceOnUse">
<stop stop-color="#FFC444"/>
<stop offset="0.996" stop-color="#F36F56"/>
</linearGradient>
<linearGradient id="pf_0_i_23_738;16_358" x1="65.376" y1="-19.849" x2="67.167" y2="49.222" gradientUnits="userSpaceOnUse">
<stop stop-color="#FFC444"/>
<stop offset="0.996" stop-color="#F36F56"/>
</linearGradient>
<linearGradient id="pf_0_i_23_738;16_360" x1="55.917" y1="24.595" x2="82.403" y2="24.595" gradientUnits="userSpaceOnUse">
<stop stop-color="#FFC444"/>
<stop offset="0.996" stop-color="#F36F56"/>
</linearGradient>
<linearGradient id="pf_0_i_23_738;16_361" x1="46.917" y1="34.387" x2="41.879" y2="85.2" gradientUnits="userSpaceOnUse">
<stop offset="0.004" stop-color="#E38DDD"/>
<stop offset="1" stop-color="#9571F6"/>
</linearGradient>
<linearGradient id="pf_0_i_23_738;16_362" x1="51.442" y1="33.439" x2="46.422" y2="84.058" gradientUnits="userSpaceOnUse">
<stop offset="0.004" stop-color="#E38DDD"/>
<stop offset="1" stop-color="#9571F6"/>
</linearGradient>
<linearGradient id="pf_0_i_23_738;16_367" x1="32.155" y1="44.521" x2="58.995" y2="44.521" gradientUnits="userSpaceOnUse">
<stop offset="0.004" stop-color="#E38DDD"/>
<stop offset="1" stop-color="#9571F6"/>
</linearGradient>
<linearGradient id="pf_0_i_23_738;16_368" x1="47.405" y1="33.977" x2="34.063" y2="49.704" gradientUnits="userSpaceOnUse">
<stop stop-color="#311944"/>
<stop offset="1" stop-color="#A03976"/>
</linearGradient>
<linearGradient id="pf_0_i_23_738;16_369" x1="36.322" y1="45.285" x2="29.615" y2="51.307" gradientUnits="userSpaceOnUse">
<stop stop-color="#FFC444"/>
<stop offset="0.996" stop-color="#F36F56"/>
</linearGradient>
<linearGradient id="pf_0_i_23_738;16_370" x1="3.683" y1="71.179" x2="5.27" y2="60.765" gradientUnits="userSpaceOnUse">
<stop stop-color="#FFC444"/>
<stop offset="0.996" stop-color="#F36F56"/>
</linearGradient>
<linearGradient id="pf_0_i_23_738;16_371" x1="12.328" y1="89.38" x2="11.03" y2="81.871" gradientUnits="userSpaceOnUse">
<stop stop-color="#AA80F9"/>
<stop offset="0.996" stop-color="#6165D7"/>
</linearGradient>
<linearGradient id="pf_0_i_23_738;16_372" x1="11.561" y1="86.465" x2="11.994" y2="82.026" gradientUnits="userSpaceOnUse">
<stop stop-color="#FFC444"/>
<stop offset="0.996" stop-color="#F36F56"/>
</linearGradient>
<linearGradient id="pf_0_i_23_738;16_373" x1="19.413" y1="88.198" x2="18.115" y2="80.689" gradientUnits="userSpaceOnUse">
<stop stop-color="#AA80F9"/>
<stop offset="0.996" stop-color="#6165D7"/>
</linearGradient>
<linearGradient id="pf_0_i_23_738;16_374" x1="18.448" y1="87.112" x2="18.881" y2="82.673" gradientUnits="userSpaceOnUse">
<stop stop-color="#FFC444"/>
<stop offset="0.996" stop-color="#F36F56"/>
</linearGradient>
<linearGradient id="pf_0_i_23_738;16_375" x1="12.858" y1="85.885" x2="19.589" y2="61.044" gradientUnits="userSpaceOnUse">
<stop stop-color="#444B8C"/>
<stop offset="0.996" stop-color="#26264F"/>
</linearGradient>
<linearGradient id="pf_0_i_23_738;16_376" x1="10.642" y1="85.306" x2="17.373" y2="60.465" gradientUnits="userSpaceOnUse">
<stop stop-color="#444B8C"/>
<stop offset="0.996" stop-color="#26264F"/>
</linearGradient>
<linearGradient id="pf_0_i_23_738;16_377" x1="3.831" y1="57.361" x2="34.183" y2="57.361" gradientUnits="userSpaceOnUse">
<stop stop-color="#FFC444"/>
<stop offset="0.996" stop-color="#F36F56"/>
</linearGradient>
<linearGradient id="pf_0_i_23_738;16_378" x1="8.57" y1="60.373" x2="15.986" y2="60.373" gradientUnits="userSpaceOnUse">
<stop stop-color="#FFC444"/>
<stop offset="0.996" stop-color="#F36F56"/>
</linearGradient>
<linearGradient id="pf_0_i_23_738;16_379" x1="16.942" y1="50.795" x2="14.6" y2="47.412" gradientUnits="userSpaceOnUse">
<stop stop-color="#FFC444"/>
<stop offset="0.996" stop-color="#F36F56"/>
</linearGradient>
<linearGradient id="pf_0_i_23_738;16_380" x1="15.461" y1="49.255" x2="16.482" y2="45.705" gradientUnits="userSpaceOnUse">
<stop stop-color="#444B8C"/>
<stop offset="0.996" stop-color="#3E4177"/>
</linearGradient>
<linearGradient id="pf_0_i_23_738;16_381" x1="18.702" y1="48.194" x2="14.962" y2="46.194" gradientUnits="userSpaceOnUse">
<stop stop-color="#FFC444"/>
<stop offset="0.996" stop-color="#F36F56"/>
</linearGradient>
<linearGradient id="pf_0_i_23_738;16_382" x1="18.415" y1="48.58" x2="16.021" y2="46.976" gradientUnits="userSpaceOnUse">
<stop stop-color="#444B8C"/>
<stop offset="0.996" stop-color="#3E4177"/>
</linearGradient>
<linearGradient id="pf_0_i_23_738;16_383" x1="34.926" y1="4.386" x2="56.846" y2="27.426" gradientUnits="userSpaceOnUse">
<stop stop-color="#FFC444"/>
<stop offset="0.996" stop-color="#F36F56"/>
</linearGradient>
<linearGradient id="pf_0_i_23_738;16_384" x1="35.207" y1="7.091" x2="53.69" y2="26.519" gradientUnits="userSpaceOnUse">
<stop stop-color="#FFC444"/>
<stop offset="0.996" stop-color="#F36F56"/>
</linearGradient>
<linearGradient id="pf_0_i_23_738;16_385" x1="45.059" y1="-4.943" x2="67.125" y2="18.251" gradientUnits="userSpaceOnUse">
<stop stop-color="#FFC444"/>
<stop offset="0.996" stop-color="#F36F56"/>
</linearGradient>
<linearGradient id="pf_0_i_23_738;16_386" x1="45.059" y1="-4.943" x2="67.125" y2="18.251" gradientUnits="userSpaceOnUse">
<stop stop-color="#FFC444"/>
<stop offset="0.996" stop-color="#F36F56"/>
</linearGradient>
<linearGradient id="pf_0_i_23_738;16_387" x1="45.455" y1="-5.281" x2="67.496" y2="17.887" gradientUnits="userSpaceOnUse">
<stop stop-color="#FFC444"/>
<stop offset="0.996" stop-color="#F36F56"/>
</linearGradient>
<linearGradient id="pf_0_i_23_738;16_388" x1="80.727" y1="53.625" x2="60.179" y2="37.034" gradientUnits="userSpaceOnUse">
<stop offset="0.004" stop-color="#E38DDD"/>
<stop offset="1" stop-color="#9571F6"/>
</linearGradient>
<linearGradient id="pf_0_i_23_738;16_389" x1="80.197" y1="51.433" x2="62.872" y2="37.444" gradientUnits="userSpaceOnUse">
<stop offset="0.004" stop-color="#E38DDD"/>
<stop offset="1" stop-color="#9571F6"/>
</linearGradient>
<linearGradient id="pf_0_i_23_738;16_390" x1="73.433" y1="62.367" x2="52.749" y2="45.665" gradientUnits="userSpaceOnUse">
<stop offset="0.004" stop-color="#E38DDD"/>
<stop offset="1" stop-color="#9571F6"/>
</linearGradient>
<linearGradient id="pf_0_i_23_738;16_391" x1="73.433" y1="62.367" x2="52.749" y2="45.665" gradientUnits="userSpaceOnUse">
<stop offset="0.004" stop-color="#E38DDD"/>
<stop offset="1" stop-color="#9571F6"/>
</linearGradient>
<linearGradient id="pf_0_i_23_738;16_392" x1="73.146" y1="62.686" x2="52.484" y2="46.004" gradientUnits="userSpaceOnUse">
<stop offset="0.004" stop-color="#E38DDD"/>
<stop offset="1" stop-color="#9571F6"/>
</linearGradient>
</defs>
</svg>
