<svg width="36" height="24" viewBox="0 0 36 24" fill="none" xmlns="http://www.w3.org/2000/svg" xmlns:xlink="http://www.w3.org/1999/xlink">
<path d="M32.417,0.672L30.333,0.672C29.183,0.672 28.25,1.567 28.25,2.672L28.25,20.005C28.25,21.11 29.183,22.005 30.333,22.005L32.417,22.005C33.567,22.005 34.5,21.11 34.5,20.005L34.5,2.672C34.5,1.567 33.567,0.672 32.417,0.672ZM20.611,5.339L22.695,5.339C23.845,5.339 24.778,6.234 24.778,7.339L24.778,20.005C24.778,21.11 23.845,22.005 22.695,22.005L20.611,22.005C19.461,22.005 18.528,21.11 18.528,20.005L18.528,7.339C18.528,6.234 19.461,5.339 20.611,5.339ZM12.972,10.005L10.889,10.005C9.738,10.005 8.806,10.901 8.806,12.005L8.806,20.005C8.806,21.11 9.738,22.005 10.889,22.005L12.972,22.005C14.123,22.005 15.056,21.11 15.056,20.005L15.056,12.005C15.056,10.901 14.123,10.005 12.972,10.005ZM3.25,14.005L1.167,14.005C0.016,14.005 -0.917,14.901 -0.917,16.005L-0.917,20.005C-0.917,21.11 0.016,22.005 1.167,22.005L3.25,22.005C4.401,22.005 5.333,21.11 5.333,20.005L5.333,16.005C5.333,14.901 4.401,14.005 3.25,14.005Z" clip-rule="evenodd" fill-rule="evenodd" fill="#FFFFFF"/>
</svg>
