<svg width="220" height="220" viewBox="0 0 220 220" fill="none" xmlns="http://www.w3.org/2000/svg" xmlns:xlink="http://www.w3.org/1999/xlink">
<g opacity="0.7">
<path d="M109.39,218.78C169.805,218.78 218.78,169.805 218.78,109.39C218.78,48.976 169.805,0 109.39,0C48.976,0 0,48.976 0,109.39C0,169.805 48.976,218.78 109.39,218.78Z" transform="rotate(0 109.39 109.39)" fill="#FFFFFF" stroke="#E7EFFF" stroke-width="2" stroke-miterlimit="10" stroke-linecap="square"/>
<path d="M148.702,46.149L148.702,109.39L111.1,109.39L111.1,67.99L148.702,46.149Z" transform="rotate(0 129.901 77.77)" fill="#FFBA08"/>
<path d="M107.681,68.004L107.681,109.39L68.369,109.39L68.369,46.149L107.681,68.004Z" transform="rotate(0 88.025 77.77)" fill="#F35325"/>
<path d="M148.702,112.809L148.702,133.981C148.703,144.187 144.749,153.979 137.704,161.22C130.66,168.461 121.096,172.563 111.099,172.632L111.099,112.809L148.702,112.809Z" transform="rotate(0 129.901 142.72)" fill="#81BC06"/>
<path d="M107.681,135.029L107.681,172.631C97.235,172.577 87.236,168.591 79.87,161.545C72.504,154.499 68.369,144.966 68.369,135.029L107.681,135.029Z" transform="rotate(0 88.025 153.83)" fill="#05A6F0"/>
</g>
</svg>
