<svg width="106" height="88" viewBox="0 0 106 88" fill="none" xmlns="http://www.w3.org/2000/svg" xmlns:xlink="http://www.w3.org/1999/xlink">
<path d="M93.638,10.331C88.762,6.485 82.021,5.287 76.143,4.012C61.734,0.888 47.566,0.251 32.923,0.01C21.613,-0.176 8.823,2.182 4.799,14.549C1.115,25.867 0.105,37.936 0.001,49.793C-0.078,58.944 3.338,64.385 12.619,66.731C27.11,70.374 41.872,72.8 56.754,73.986C57.066,76.618 57.406,79.247 57.773,81.873C58.085,84.082 58.503,86.458 60.09,88C62.849,85.469 64.884,82.245 66.886,79.063C67.795,77.618 68.704,76.173 69.613,74.728C72.167,74.818 74.721,74.875 77.277,74.898C83.688,74.953 91.907,72.508 95.106,66.227C96.278,63.74 97.114,61.104 97.593,58.389C98.349,54.629 98.771,50.679 99.325,47.365C101.199,36.167 103.897,18.422 93.638,10.331Z" fill="#F4DBD6"/>
<path d="M95.106,66.228C96.278,63.74 97.114,61.104 97.593,58.389C98.075,55.991 98.421,53.516 98.753,51.177C96.9,50.79 95.024,50.544 93.098,49.988C92.888,49.927 92.565,49.724 92.359,49.799C92.265,49.833 92.153,50 92.047,50.185C91.895,50.125 91.745,50.064 91.603,49.999C91.296,49.858 90.991,49.69 90.685,49.514C88.86,47.793 87.111,45.87 85.526,44.048C85.251,42.003 85.251,39.929 85.525,37.883C85.85,35.946 86.766,34.159 87.069,32.257C87.419,30.054 87.607,27.668 87.067,25.532C86.818,24.546 85.891,23.383 85.232,22.617C84.918,22.219 84.502,21.916 84.031,21.74C83.559,21.564 83.049,21.522 82.556,21.619C81.194,17.617 75.04,18.403 71.855,18.221C71.041,18.232 70.234,18.068 69.487,17.739C69.033,17.499 68.65,17.139 68.202,16.889C67.988,16.747 67.742,16.66 67.487,16.638C67.231,16.615 66.974,16.657 66.739,16.759C66.291,17.01 66.135,17.753 66.555,18.049C65.351,18.623 63.765,17.531 62.656,18.277C61.76,18.88 61.77,20.327 60.898,20.964C60.36,21.357 59.637,21.33 59.008,21.542C58.38,21.754 57.792,22.5 58.166,23.054C58.642,23.759 59.78,23.103 60.559,23.425C59.985,23.916 59.374,24.469 59.247,25.22C59.12,25.971 59.817,26.862 60.518,26.593C60.404,26.921 60.389,27.275 60.472,27.612C60.556,27.949 60.735,28.254 60.988,28.488C61.358,28.845 61.812,29.101 62.306,29.23C62.801,29.36 63.319,29.359 63.813,29.227C63.582,31.007 63.723,32.816 64.227,34.536C64.677,36.143 64.797,38.214 62.743,38.792C62.508,38.822 62.288,38.923 62.111,39.083C62.051,39.178 62.01,39.284 61.991,39.395C61.973,39.506 61.977,39.62 62.003,39.73C62.266,41.546 63.628,41.722 64.951,42.443C66.081,43.058 65.888,43.994 66.126,45.117C66.965,44.873 70.988,43.242 71.022,43.138C70.718,43.813 70.344,44.452 69.906,45.045C69.551,45.508 68.283,47.208 68.283,47.208C69.08,48.026 70.809,49.554 71.57,49.347C72.3,49.169 74.48,48.007 76.392,46.798C76.5,46.98 76.61,47.167 76.721,47.354L77.856,49.348C77.861,49.341 77.865,49.334 77.87,49.327C78.311,50.1 78.719,50.846 79.045,51.503C78.809,51.674 78.573,51.843 78.335,52.011C78.242,51.826 78.161,51.635 78.093,51.439C77.672,51.53 77.26,51.825 76.732,51.957C74.527,52.507 69.855,53.363 68.45,55.468C68.204,55.886 68.045,56.35 67.983,56.832C67.331,60.401 67.689,64.084 69.014,67.455C69.872,69.795 70.36,72.258 70.46,74.753C72.732,74.826 75.004,74.879 77.277,74.898C83.688,74.953 91.907,72.508 95.106,66.228ZM80.724,38.414C80.721,38.447 80.719,38.481 80.717,38.515C80.689,38.486 80.659,38.453 80.632,38.424C80.663,38.417 80.694,38.41 80.725,38.403L80.724,38.414ZM84.619,42.997C84.944,43.297 85.234,43.633 85.485,44C85.19,43.661 84.901,43.326 84.619,42.997Z" fill="#B75858"/>
<path d="M65.876,80.655C65.591,77.476 65.16,74.297 64.97,71.118C64.823,67.38 64.676,57.96 59.966,56.913L59.931,56.999C59.468,56.783 58.986,56.613 58.491,56.492C56.347,55.897 48.541,54.237 46.68,53.951C46.404,53.883 46.114,53.892 45.843,53.979C45.272,53.286 44.545,52.743 43.724,52.394C42.904,52.044 42.013,51.9 41.126,51.972C41.195,52.246 41.234,52.527 41.243,52.81C40.365,52.261 39.722,51.397 39.442,50.389L39.449,50.386C39.146,49.302 38.912,48.2 38.748,47.086C38.98,46.997 39.21,46.901 39.435,46.796C41.919,45.636 43.06,43.03 42.813,40.32C42.755,39.781 42.669,39.245 42.554,38.716C42.37,37.791 42.18,36.868 41.999,35.942C41.714,34.482 41.452,33.017 41.274,31.539C41.227,31.153 41.186,30.765 41.141,30.378C41.172,30.32 41.207,30.265 41.247,30.213C41.638,29.699 42.129,29.396 42.251,28.702C42.307,28.1 42.182,27.495 41.893,26.967C41.414,25.909 42.824,24.975 43.054,23.966C43.225,23.214 43.708,22.634 43.748,21.822C43.792,21.496 43.74,21.165 43.599,20.869C43.459,20.574 43.235,20.327 42.957,20.159C43.239,19.54 43.409,19.023 43.048,18.44C42.73,17.925 42.289,17.502 41.765,17.208C41.243,16.908 40.666,16.719 40.069,16.654C39.472,16.589 38.869,16.65 38.296,16.832C37.376,17.15 36.689,17.955 35.785,18.316C34.225,18.94 32.63,18.434 31.038,18.498C30.143,18.558 29.261,18.741 28.414,19.04C26.607,19.623 24.558,20.453 23.984,22.484C23.975,22.719 23.877,22.941 23.71,23.104C23.543,23.267 23.32,23.358 23.089,23.357C21.887,23.689 20.863,24.492 20.242,25.589C19.632,26.681 19.256,27.89 19.137,29.14C18.983,30.135 19.008,31.15 19.21,32.137C19.674,34.108 21.118,35.653 22.421,37.19C21.977,37.398 21.585,37.705 21.273,38.086C20.961,38.468 20.737,38.916 20.617,39.396C20.484,40.008 20.498,40.644 20.659,41.249C20.82,41.854 21.122,42.411 21.541,42.872C21.959,43.332 22.481,43.683 23.062,43.894C23.643,44.105 24.266,44.171 24.877,44.085C25.305,44.018 25.724,43.897 26.123,43.724C26.234,43.808 26.345,43.892 26.462,43.966C26.725,44.131 27.008,44.261 27.303,44.354C27.944,46.828 28.716,50.225 29.037,52.367C28.31,52.348 27.587,52.482 26.913,52.759C26.239,53.037 25.628,53.452 25.119,53.98C24.989,54.132 24.843,54.269 24.683,54.389C24.416,54.537 24.122,54.629 23.818,54.658C21.263,55.1 18.942,56.222 16.42,56.743C14.763,57.085 13.612,56.923 12.362,57.69L12.36,57.686C10.385,58.469 9.019,62.299 8.595,65.344C9.894,65.925 11.24,66.389 12.619,66.731C27.11,70.374 41.872,72.8 56.754,73.985C57.066,76.618 57.406,79.247 57.773,81.873C58.085,84.082 58.503,86.458 60.09,88C62.388,85.891 64.183,83.301 65.876,80.655Z" fill="#EB724D"/>
<path d="M50.006,36.857L50.246,36.772C50.267,36.765 50.287,36.753 50.304,36.738C50.32,36.723 50.334,36.705 50.344,36.684C50.354,36.664 50.359,36.642 50.361,36.619C50.362,36.596 50.359,36.574 50.351,36.552C50.344,36.531 50.333,36.511 50.318,36.494C50.303,36.477 50.285,36.463 50.265,36.454C50.245,36.444 50.223,36.438 50.2,36.437C50.178,36.436 50.156,36.439 50.135,36.447L49.894,36.532C49.873,36.539 49.854,36.55 49.837,36.565C49.82,36.58 49.807,36.599 49.797,36.619C49.787,36.64 49.781,36.662 49.78,36.684C49.779,36.707 49.782,36.73 49.789,36.751C49.796,36.773 49.808,36.792 49.823,36.809C49.838,36.826 49.856,36.84 49.876,36.85C49.896,36.86 49.918,36.865 49.94,36.867C49.962,36.868 49.985,36.865 50.006,36.857Z" fill="#FFFFFF"/>
<path d="M51.608,36.29L51.848,36.205C51.869,36.198 51.889,36.187 51.905,36.171C51.922,36.156 51.936,36.138 51.946,36.118C51.955,36.097 51.961,36.075 51.962,36.053C51.964,36.03 51.96,36.007 51.953,35.986C51.946,35.965 51.934,35.945 51.92,35.928C51.905,35.911 51.887,35.897 51.867,35.887C51.846,35.878 51.825,35.872 51.802,35.871C51.78,35.869 51.758,35.872 51.737,35.88L51.496,35.965C51.454,35.98 51.419,36.012 51.399,36.053C51.38,36.094 51.377,36.141 51.392,36.184C51.407,36.227 51.438,36.263 51.478,36.283C51.519,36.303 51.565,36.305 51.608,36.29Z" fill="#FFFFFF"/>
<path d="M50.807,36.574L51.047,36.489C51.068,36.481 51.088,36.47 51.105,36.455C51.121,36.44 51.135,36.422 51.145,36.401C51.155,36.381 51.16,36.359 51.162,36.336C51.163,36.313 51.16,36.291 51.152,36.269C51.145,36.248 51.134,36.228 51.119,36.211C51.104,36.194 51.086,36.18 51.066,36.17C51.046,36.161 51.024,36.155 51.001,36.154C50.979,36.152 50.957,36.156 50.936,36.163L50.695,36.248C50.653,36.263 50.618,36.295 50.598,36.336C50.579,36.377 50.576,36.424 50.591,36.468C50.606,36.511 50.637,36.546 50.677,36.566C50.718,36.586 50.764,36.589 50.807,36.574Z" fill="#FFFFFF"/>
<path d="M48.404,37.424L48.644,37.339C48.665,37.331 48.685,37.32 48.701,37.305C48.718,37.29 48.732,37.271 48.741,37.251C48.751,37.231 48.757,37.208 48.758,37.186C48.76,37.163 48.756,37.14 48.749,37.119C48.742,37.098 48.73,37.078 48.715,37.061C48.701,37.044 48.683,37.03 48.662,37.02C48.642,37.011 48.621,37.005 48.598,37.004C48.576,37.002 48.554,37.006 48.533,37.013L48.292,37.098C48.271,37.106 48.252,37.117 48.235,37.132C48.219,37.147 48.205,37.165 48.195,37.186C48.186,37.206 48.18,37.228 48.179,37.251C48.177,37.273 48.181,37.296 48.188,37.317C48.195,37.339 48.207,37.359 48.221,37.375C48.236,37.392 48.254,37.406 48.274,37.416C48.294,37.426 48.316,37.432 48.338,37.433C48.36,37.434 48.383,37.431 48.404,37.424Z" fill="#FFFFFF"/>
<path d="M47.603,37.707L47.843,37.622C47.886,37.607 47.92,37.575 47.94,37.534C47.96,37.493 47.962,37.446 47.948,37.403C47.933,37.359 47.902,37.324 47.861,37.304C47.821,37.284 47.774,37.281 47.732,37.296L47.491,37.381C47.47,37.389 47.451,37.4 47.434,37.416C47.418,37.431 47.404,37.449 47.394,37.469C47.385,37.49 47.379,37.512 47.378,37.534C47.376,37.557 47.38,37.579 47.387,37.601C47.394,37.622 47.406,37.642 47.42,37.659C47.435,37.676 47.453,37.689 47.473,37.699C47.493,37.709 47.515,37.715 47.537,37.716C47.559,37.718 47.582,37.714 47.603,37.707Z" fill="#FFFFFF"/>
<path d="M49.205,37.14L49.445,37.055C49.466,37.048 49.486,37.036 49.503,37.021C49.519,37.006 49.533,36.988 49.543,36.968C49.553,36.947 49.558,36.925 49.56,36.902C49.561,36.88 49.558,36.857 49.55,36.836C49.543,36.814 49.532,36.794 49.517,36.778C49.502,36.761 49.484,36.747 49.464,36.737C49.444,36.727 49.422,36.721 49.399,36.72C49.377,36.719 49.355,36.722 49.334,36.73L49.093,36.815C49.072,36.822 49.053,36.834 49.036,36.849C49.019,36.864 49.006,36.882 48.996,36.902C48.986,36.923 48.98,36.945 48.979,36.968C48.978,36.99 48.981,37.013 48.988,37.035C48.995,37.056 49.007,37.076 49.022,37.093C49.037,37.11 49.055,37.123 49.075,37.133C49.095,37.143 49.117,37.149 49.139,37.15C49.161,37.151 49.184,37.148 49.205,37.14Z" fill="#FFFFFF"/>
<path d="M46.802,37.99L47.042,37.905C47.063,37.898 47.083,37.886 47.1,37.871C47.116,37.856 47.13,37.838 47.14,37.818C47.15,37.797 47.155,37.775 47.157,37.752C47.158,37.73 47.155,37.707 47.147,37.686C47.14,37.664 47.129,37.644 47.114,37.627C47.099,37.61 47.081,37.597 47.061,37.587C47.041,37.577 47.019,37.571 46.996,37.57C46.974,37.569 46.952,37.572 46.931,37.58L46.69,37.665C46.669,37.672 46.65,37.684 46.633,37.699C46.616,37.714 46.603,37.732 46.593,37.752C46.583,37.773 46.577,37.795 46.576,37.818C46.575,37.84 46.578,37.863 46.585,37.884C46.592,37.906 46.604,37.926 46.619,37.942C46.634,37.959 46.652,37.973 46.672,37.983C46.692,37.993 46.714,37.999 46.736,38C46.758,38.001 46.781,37.998 46.802,37.99Z" fill="#FFFFFF"/>
<path d="M52.409,36.007L52.649,35.922C52.692,35.907 52.726,35.875 52.746,35.834C52.765,35.793 52.768,35.746 52.753,35.703C52.738,35.66 52.707,35.625 52.667,35.605C52.627,35.585 52.58,35.582 52.538,35.597L52.297,35.682C52.276,35.689 52.257,35.701 52.24,35.716C52.223,35.731 52.21,35.749 52.2,35.769C52.19,35.79 52.184,35.812 52.183,35.835C52.182,35.857 52.185,35.88 52.192,35.901C52.199,35.923 52.211,35.943 52.226,35.959C52.241,35.976 52.259,35.99 52.279,36C52.299,36.01 52.321,36.016 52.343,36.017C52.365,36.018 52.388,36.015 52.409,36.007Z" fill="#FFFFFF"/>
<path d="M53.571,40.784C53.561,40.783 53.551,40.782 53.541,40.782L53.287,40.79C53.242,40.792 53.199,40.811 53.169,40.844C53.138,40.878 53.121,40.922 53.123,40.967C53.124,41.013 53.143,41.056 53.176,41.087C53.208,41.119 53.252,41.136 53.296,41.135L53.551,41.127C53.593,41.126 53.633,41.108 53.664,41.078C53.694,41.048 53.712,41.008 53.715,40.965C53.717,40.922 53.704,40.88 53.677,40.846C53.651,40.813 53.613,40.791 53.571,40.784Z" fill="#FFFFFF"/>
<path d="M46.96,41.238C46.959,41.216 46.952,41.194 46.942,41.174C46.932,41.153 46.918,41.135 46.902,41.121C46.885,41.106 46.865,41.095 46.844,41.088C46.823,41.081 46.8,41.078 46.778,41.079L46.525,41.099C46.481,41.102 46.439,41.124 46.41,41.159C46.381,41.193 46.366,41.238 46.37,41.284C46.373,41.329 46.394,41.371 46.428,41.401C46.462,41.431 46.506,41.446 46.551,41.443L46.804,41.423C46.849,41.42 46.89,41.398 46.92,41.364C46.949,41.329 46.964,41.284 46.96,41.238Z" fill="#FFFFFF"/>
<path d="M47.802,41.172C47.799,41.133 47.784,41.097 47.758,41.068C47.731,41.04 47.697,41.021 47.659,41.015C47.646,41.013 47.633,41.013 47.62,41.014L47.368,41.033C47.345,41.035 47.323,41.041 47.303,41.051C47.283,41.061 47.265,41.075 47.25,41.092C47.235,41.11 47.224,41.13 47.217,41.151C47.21,41.173 47.207,41.196 47.209,41.219C47.211,41.242 47.217,41.264 47.227,41.284C47.238,41.305 47.252,41.323 47.269,41.337C47.286,41.352 47.306,41.363 47.328,41.37C47.349,41.377 47.372,41.379 47.394,41.377L47.646,41.357C47.669,41.356 47.69,41.349 47.71,41.339C47.73,41.329 47.748,41.315 47.762,41.298C47.777,41.28 47.788,41.26 47.795,41.239C47.802,41.217 47.804,41.195 47.802,41.172Z" fill="#FFFFFF"/>
<path d="M52.724,40.81C52.714,40.808 52.704,40.808 52.694,40.808L52.44,40.815C52.418,40.816 52.396,40.821 52.376,40.83C52.355,40.84 52.337,40.853 52.322,40.869C52.306,40.886 52.294,40.905 52.287,40.926C52.279,40.947 52.275,40.97 52.275,40.993C52.276,41.015 52.281,41.038 52.29,41.058C52.299,41.079 52.312,41.097 52.329,41.113C52.345,41.129 52.364,41.141 52.385,41.149C52.405,41.157 52.428,41.161 52.45,41.16L52.704,41.152C52.746,41.151 52.787,41.134 52.817,41.104C52.848,41.074 52.866,41.034 52.868,40.991C52.871,40.948 52.858,40.905 52.831,40.872C52.804,40.838 52.766,40.816 52.724,40.81Z" fill="#FFFFFF"/>
<path d="M49.323,41.256C49.365,41.255 49.405,41.237 49.435,41.207C49.466,41.177 49.484,41.137 49.486,41.094C49.488,41.051 49.475,41.009 49.448,40.975C49.422,40.942 49.384,40.92 49.342,40.914C49.332,40.912 49.321,40.911 49.31,40.912C49.22,40.915 49.136,40.918 49.057,40.922C49.012,40.924 48.971,40.945 48.941,40.978C48.911,41.012 48.895,41.056 48.897,41.101C48.899,41.146 48.918,41.189 48.951,41.22C48.983,41.251 49.026,41.267 49.071,41.266C49.149,41.263 49.233,41.26 49.323,41.256Z" fill="#FFFFFF"/>
<path d="M48.644,41.113C48.641,41.074 48.626,41.037 48.6,41.008C48.573,40.979 48.538,40.959 48.5,40.954C48.488,40.952 48.476,40.951 48.464,40.952C48.38,40.957 48.297,40.963 48.21,40.969C48.166,40.972 48.124,40.993 48.094,41.028C48.065,41.062 48.05,41.107 48.053,41.153C48.056,41.198 48.077,41.241 48.111,41.271C48.145,41.301 48.189,41.316 48.234,41.313C48.319,41.307 48.402,41.301 48.485,41.296C48.507,41.295 48.529,41.289 48.549,41.279C48.569,41.269 48.587,41.255 48.602,41.238C48.616,41.221 48.628,41.201 48.635,41.18C48.642,41.159 48.645,41.136 48.644,41.113Z" fill="#FFFFFF"/>
<path d="M51.878,40.835C51.868,40.833 51.858,40.833 51.848,40.833L51.594,40.841C51.572,40.841 51.55,40.846 51.529,40.856C51.509,40.865 51.491,40.878 51.475,40.894C51.46,40.911 51.448,40.93 51.44,40.951C51.432,40.973 51.429,40.995 51.429,41.018C51.43,41.04 51.435,41.063 51.444,41.083C51.453,41.104 51.466,41.123 51.482,41.138C51.498,41.154 51.517,41.166 51.538,41.174C51.559,41.182 51.581,41.186 51.604,41.185L51.858,41.178C51.9,41.176 51.94,41.159 51.971,41.129C52.001,41.099 52.019,41.059 52.022,41.016C52.024,40.973 52.011,40.93 51.985,40.897C51.958,40.863 51.92,40.841 51.878,40.835Z" fill="#FFFFFF"/>
<path d="M50.186,40.885C50.176,40.884 50.166,40.883 50.156,40.884L49.902,40.891L49.915,41.236L50.166,41.228C50.209,41.227 50.249,41.209 50.279,41.179C50.31,41.149 50.328,41.109 50.33,41.066C50.333,41.023 50.32,40.981 50.293,40.947C50.266,40.914 50.228,40.892 50.186,40.885Z" fill="#FFFFFF"/>
<path d="M51.008,41.203L51.007,41.03L50.998,40.858L50.748,40.866C50.703,40.867 50.661,40.886 50.63,40.92C50.599,40.953 50.583,40.997 50.584,41.043C50.585,41.088 50.604,41.131 50.637,41.163C50.669,41.194 50.713,41.211 50.758,41.21L51.008,41.203Z" fill="#FFFFFF"/>
<path d="M50.298,46.021L50.061,45.939C50.052,45.936 50.042,45.933 50.032,45.932C49.99,45.926 49.947,45.936 49.912,45.96C49.877,45.984 49.852,46.02 49.842,46.062C49.832,46.104 49.838,46.148 49.859,46.186C49.879,46.223 49.913,46.252 49.953,46.266L50.193,46.348C50.214,46.356 50.236,46.358 50.258,46.357C50.281,46.355 50.302,46.349 50.322,46.339C50.342,46.329 50.359,46.315 50.374,46.298C50.388,46.281 50.399,46.261 50.406,46.24C50.42,46.196 50.417,46.149 50.397,46.108C50.376,46.066 50.341,46.035 50.298,46.021Z" fill="#FFFFFF"/>
<path d="M46.342,44.56L46.106,44.466C46.064,44.45 46.018,44.452 45.977,44.47C45.936,44.489 45.904,44.523 45.888,44.565C45.872,44.607 45.873,44.654 45.89,44.696C45.908,44.737 45.941,44.77 45.982,44.787L46.218,44.881C46.26,44.897 46.306,44.895 46.347,44.877C46.388,44.858 46.419,44.824 46.436,44.782C46.452,44.74 46.451,44.693 46.434,44.652C46.416,44.61 46.383,44.577 46.342,44.56Z" fill="#FFFFFF"/>
<path d="M51.906,46.573L51.665,46.49C51.644,46.483 51.621,46.48 51.599,46.482C51.577,46.483 51.555,46.489 51.535,46.499C51.495,46.519 51.464,46.555 51.45,46.598C51.435,46.642 51.439,46.689 51.459,46.73C51.478,46.771 51.514,46.802 51.556,46.817L51.797,46.9C51.839,46.913 51.885,46.91 51.925,46.889C51.965,46.869 51.995,46.834 52.009,46.791C52.024,46.748 52.021,46.701 52.001,46.66C51.982,46.62 51.948,46.588 51.906,46.573Z" fill="#FFFFFF"/>
<path d="M52.708,46.849L52.467,46.766C52.446,46.759 52.423,46.755 52.401,46.757C52.378,46.758 52.357,46.764 52.336,46.774C52.316,46.784 52.298,46.798 52.283,46.815C52.268,46.832 52.257,46.852 52.25,46.874C52.243,46.895 52.24,46.918 52.241,46.941C52.243,46.964 52.249,46.986 52.259,47.006C52.269,47.027 52.283,47.045 52.3,47.06C52.317,47.074 52.337,47.086 52.358,47.093L52.599,47.176C52.642,47.19 52.688,47.187 52.728,47.166C52.768,47.146 52.799,47.111 52.813,47.067C52.828,47.024 52.825,46.977 52.805,46.936C52.785,46.895 52.75,46.864 52.708,46.849Z" fill="#FFFFFF"/>
<path d="M47.913,45.181C47.835,45.152 47.758,45.122 47.678,45.091C47.666,45.086 47.654,45.083 47.642,45.081C47.6,45.075 47.558,45.084 47.523,45.108C47.489,45.131 47.463,45.167 47.453,45.208C47.442,45.249 47.447,45.292 47.466,45.33C47.485,45.368 47.517,45.397 47.556,45.412C47.637,45.444 47.715,45.474 47.794,45.504C47.836,45.52 47.883,45.518 47.924,45.499C47.964,45.48 47.996,45.446 48.012,45.403C48.028,45.36 48.026,45.313 48.008,45.271C47.989,45.23 47.955,45.197 47.913,45.181Z" fill="#FFFFFF"/>
<path d="M48.703,45.469C48.617,45.439 48.539,45.411 48.464,45.384C48.454,45.38 48.444,45.378 48.433,45.376C48.391,45.37 48.349,45.38 48.314,45.403C48.279,45.427 48.254,45.464 48.243,45.505C48.233,45.547 48.239,45.591 48.259,45.628C48.279,45.666 48.312,45.695 48.352,45.709C48.426,45.736 48.506,45.764 48.591,45.794C48.612,45.802 48.635,45.805 48.657,45.803C48.679,45.802 48.701,45.796 48.721,45.786C48.741,45.777 48.759,45.763 48.774,45.746C48.789,45.729 48.8,45.709 48.807,45.688C48.814,45.666 48.818,45.644 48.816,45.621C48.815,45.599 48.809,45.577 48.8,45.556C48.79,45.536 48.776,45.518 48.76,45.503C48.743,45.488 48.724,45.476 48.703,45.469Z" fill="#FFFFFF"/>
<path d="M51.104,46.297L50.863,46.215C50.842,46.207 50.819,46.204 50.797,46.206C50.775,46.207 50.753,46.213 50.733,46.223C50.713,46.233 50.695,46.247 50.681,46.264C50.666,46.281 50.655,46.301 50.647,46.323C50.64,46.344 50.637,46.367 50.639,46.389C50.64,46.412 50.646,46.434 50.656,46.454C50.666,46.475 50.68,46.493 50.697,46.508C50.714,46.523 50.733,46.534 50.754,46.541L50.995,46.624C51.037,46.638 51.083,46.634 51.123,46.614C51.163,46.593 51.193,46.558 51.207,46.515C51.222,46.472 51.219,46.425 51.199,46.385C51.18,46.344 51.146,46.312 51.104,46.297Z" fill="#FFFFFF"/>
<path d="M49.501,45.746L49.261,45.663C49.24,45.656 49.217,45.653 49.195,45.654C49.173,45.656 49.151,45.662 49.131,45.672C49.112,45.682 49.094,45.696 49.079,45.713C49.065,45.73 49.053,45.75 49.046,45.771C49.032,45.815 49.035,45.862 49.055,45.903C49.075,45.944 49.111,45.975 49.153,45.99L49.392,46.073C49.413,46.08 49.435,46.083 49.457,46.081C49.48,46.08 49.501,46.074 49.521,46.064C49.541,46.054 49.559,46.04 49.574,46.023C49.588,46.006 49.6,45.986 49.607,45.965C49.614,45.943 49.617,45.921 49.616,45.898C49.614,45.876 49.608,45.853 49.598,45.833C49.589,45.813 49.575,45.795 49.558,45.78C49.541,45.765 49.522,45.753 49.501,45.746Z" fill="#FFFFFF"/>
<path d="M47.129,44.873L46.893,44.779C46.881,44.775 46.869,44.771 46.856,44.769C46.815,44.763 46.773,44.773 46.738,44.796C46.703,44.819 46.678,44.854 46.667,44.895C46.656,44.936 46.661,44.98 46.68,45.017C46.698,45.055 46.73,45.085 46.769,45.1L47.005,45.194C47.025,45.203 47.048,45.207 47.07,45.206C47.092,45.206 47.114,45.201 47.134,45.192C47.155,45.183 47.173,45.17 47.189,45.153C47.204,45.137 47.216,45.118 47.224,45.097C47.233,45.076 47.237,45.053 47.236,45.031C47.236,45.008 47.231,44.986 47.222,44.965C47.213,44.944 47.2,44.925 47.184,44.91C47.168,44.894 47.149,44.882 47.129,44.873Z" fill="#FFFFFF"/>
<path d="M96.871,51.51C96.851,51.504 96.831,51.499 96.811,51.496C96.679,51.473 96.544,51.5 96.431,51.571C96.318,51.643 96.235,51.754 96.197,51.884L94.458,57.906C94.417,58.047 94.433,58.198 94.502,58.326C94.571,58.455 94.688,58.55 94.826,58.591C94.964,58.633 95.113,58.616 95.239,58.546C95.366,58.476 95.46,58.358 95.5,58.217L97.24,52.195C97.26,52.125 97.266,52.052 97.258,51.98C97.251,51.908 97.229,51.838 97.195,51.775C97.161,51.711 97.115,51.655 97.059,51.61C97.003,51.564 96.94,51.53 96.871,51.51Z" fill="#C6AEAB"/>
<path d="M8.874,61.452C10.722,62.494 12.766,63.127 14.871,63.309C15.015,63.321 15.157,63.274 15.267,63.18C15.377,63.085 15.445,62.95 15.457,62.805C15.469,62.659 15.424,62.514 15.331,62.403C15.238,62.291 15.105,62.221 14.962,62.209C13.01,62.04 11.115,61.454 9.403,60.488C9.34,60.453 9.272,60.43 9.201,60.422C9.13,60.413 9.058,60.419 8.989,60.439C8.92,60.459 8.856,60.492 8.8,60.537C8.744,60.582 8.697,60.638 8.663,60.701C8.628,60.765 8.606,60.834 8.598,60.906C8.589,60.978 8.595,61.051 8.615,61.121C8.635,61.191 8.668,61.256 8.712,61.313C8.756,61.37 8.811,61.417 8.874,61.452Z" fill="#C6AEAB"/>
<path d="M17.5,64.358L31.728,67.333C31.798,67.348 31.87,67.349 31.94,67.335C32.01,67.321 32.077,67.294 32.137,67.254C32.196,67.214 32.248,67.163 32.288,67.103C32.328,67.043 32.356,66.975 32.37,66.904C32.384,66.833 32.385,66.76 32.371,66.689C32.358,66.618 32.331,66.55 32.292,66.489C32.252,66.429 32.202,66.377 32.143,66.336C32.083,66.295 32.017,66.267 31.947,66.252L17.719,63.277C17.649,63.263 17.577,63.262 17.507,63.276C17.437,63.289 17.37,63.317 17.31,63.357C17.251,63.397 17.199,63.448 17.159,63.508C17.119,63.568 17.091,63.636 17.077,63.707C17.062,63.778 17.062,63.851 17.075,63.922C17.089,63.993 17.116,64.061 17.155,64.122C17.195,64.182 17.245,64.234 17.304,64.275C17.363,64.315 17.43,64.344 17.5,64.358Z" fill="#C6AEAB"/>
<path d="M94.184,60.37C94.063,60.291 93.915,60.265 93.775,60.297C93.634,60.328 93.512,60.416 93.434,60.539C91.452,63.651 88.781,66.249 85.635,68.126C82.489,70.003 78.955,71.108 75.314,71.352C75.17,71.36 75.036,71.427 74.94,71.536C74.844,71.645 74.795,71.789 74.803,71.935C74.804,71.947 74.805,71.959 74.807,71.971C74.824,72.11 74.892,72.237 74.998,72.327C75.104,72.416 75.24,72.462 75.377,72.454C79.189,72.198 82.89,71.042 86.184,69.076C89.478,67.11 92.275,64.39 94.351,61.132C94.428,61.008 94.454,60.858 94.423,60.716C94.391,60.573 94.306,60.448 94.184,60.37Z" fill="#C6AEAB"/>
<path d="M15.285,9.947C21.892,5.97 29.552,4.178 37.206,4.817C37.352,4.83 37.496,4.783 37.608,4.687C37.72,4.591 37.79,4.454 37.802,4.306C37.815,4.158 37.769,4.011 37.674,3.897C37.58,3.783 37.445,3.712 37.299,3.699C29.416,3.041 21.526,4.887 14.72,8.983C14.658,9.021 14.603,9.07 14.56,9.13C14.517,9.189 14.485,9.256 14.467,9.327C14.45,9.398 14.446,9.473 14.456,9.546C14.467,9.619 14.491,9.689 14.528,9.752C14.565,9.815 14.614,9.87 14.673,9.914C14.731,9.958 14.797,9.99 14.867,10.009C14.937,10.027 15.01,10.03 15.082,10.02C15.154,10.009 15.223,9.984 15.285,9.947Z" fill="#C6AEAB"/>
<path d="M99.884,15.266C96.399,15.167 93.47,18.85 93.374,22.391C93.277,25.932 96.048,27.99 99.533,28.089C103.019,28.187 105.898,26.288 105.995,22.747C106.13,17.822 103.37,15.364 99.884,15.266Z" fill="#567995"/>
<path d="M92.7,28.361C92.192,28.26 91.666,28.366 91.235,28.658C90.805,28.95 90.505,29.403 90.403,29.918C90.192,30.989 91.003,31.602 92.057,31.816C93.11,32.03 94.008,31.763 94.218,30.692C94.511,29.204 93.754,28.575 92.7,28.361Z" fill="#567995"/>
</svg>
