<svg width="44" height="44" viewBox="0 0 44 44" fill="none" xmlns="http://www.w3.org/2000/svg" xmlns:xlink="http://www.w3.org/1999/xlink">
<path d="M18,0C8.059,0 0,8.059 0,18C0,27.941 8.059,36 18,36C27.941,36 36,27.941 36,18C36,8.059 27.941,0 18,0ZM14.67,7.605C15.488,7.475 16.047,6.707 15.917,5.888C15.788,5.07 15.019,4.512 14.201,4.642C9.28,5.421 5.421,9.28 4.642,14.201C4.512,15.019 5.07,15.788 5.888,15.917C6.707,16.047 7.475,15.489 7.605,14.67C8.181,11.033 11.033,8.181 14.67,7.605Z" clip-rule="evenodd" fill-rule="evenodd" fill="#FFFFFF"/>
<path d="M35.061,32.94C34.475,32.354 33.525,32.354 32.939,32.94C32.354,33.525 32.354,34.475 32.939,35.061L40.939,43.061C41.525,43.647 42.475,43.647 43.06,43.061C43.646,42.475 43.646,41.525 43.06,40.939L35.061,32.94Z" clip-rule="evenodd" fill-rule="evenodd" fill="#FFFFFF"/>
</svg>
