<svg width="34" height="32" viewBox="0 0 34 32" fill="none" xmlns="http://www.w3.org/2000/svg" xmlns:xlink="http://www.w3.org/1999/xlink">
<path d="M14.976,0.576C15.749,-0.738 17.65,-0.738 18.423,0.576L22.033,6.709C22.316,7.191 22.79,7.532 23.337,7.65L30.313,9.145C31.819,9.467 32.41,11.298 31.379,12.441L26.645,17.683C26.266,18.103 26.082,18.664 26.14,19.227L26.858,26.242C27.013,27.765 25.471,28.891 24.069,28.279L17.499,25.414C16.989,25.192 16.41,25.192 15.9,25.414L9.33,28.279C7.928,28.891 6.385,27.765 6.541,26.242L7.259,19.227C7.317,18.664 7.133,18.103 6.754,17.683L2.02,12.441C0.989,11.298 1.58,9.467 3.085,9.145L10.062,7.65C10.609,7.532 11.082,7.191 11.366,6.709L14.976,0.576Z" stroke="#9DEAC0" stroke-width="0.5" stroke-miterlimit="3.999327"/>
<path d="M9.328,28.279L15.497,25.589C16.226,25.271 16.698,24.551 16.698,23.756L16.698,1.318C16.698,0.299 15.352,-0.067 14.836,0.811L11.364,6.709C11.081,7.191 10.607,7.532 10.06,7.65L3.084,9.145C1.578,9.467 0.987,11.298 2.018,12.441L6.752,17.683C7.131,18.103 7.315,18.664 7.257,19.227L6.539,26.242C6.384,27.765 7.926,28.891 9.328,28.279Z" fill="#9DEAC0"/>
</svg>
