<svg width="22" height="14" viewBox="0 0 22 14" fill="none" xmlns="http://www.w3.org/2000/svg" xmlns:xlink="http://www.w3.org/1999/xlink">
<path d="M20.394,2.394C20.98,1.808 20.98,0.858 20.394,0.273C19.808,-0.313 18.858,-0.313 18.273,0.273L20.394,2.394ZM10,10.667L8.939,11.727C9.525,12.313 10.475,12.313 11.061,11.727L10,10.667ZM1.727,0.273C1.142,-0.313 0.192,-0.313 -0.394,0.273C-0.98,0.858 -0.98,1.808 -0.394,2.394L1.727,0.273ZM18.273,0.273L8.939,9.606L11.061,11.727L20.394,2.394L18.273,0.273ZM11.061,9.606L1.727,0.273L-0.394,2.394L8.939,11.727L11.061,9.606Z" transform="rotate(-180 10 6)" fill="#222E54"/>
</svg>
