<svg width="42" height="42" viewBox="0 0 42 42" fill="none" xmlns="http://www.w3.org/2000/svg" xmlns:xlink="http://www.w3.org/1999/xlink">
<path d="M8.587,5.931C3.254,9.806 0.587,11.744 -0.461,14.606C-0.545,14.835 -0.62,15.068 -0.687,15.303C-1.522,18.234 -0.503,21.369 1.534,27.639C3.571,33.909 4.59,37.044 6.988,38.925C7.18,39.076 7.378,39.22 7.581,39.356C8.435,39.929 9.375,40.309 10.5,40.561L10.5,33.639C10.5,28.393 14.753,24.139 20,24.139C25.247,24.139 29.5,28.393 29.5,33.639L29.5,40.561C30.625,40.309 31.566,39.929 32.419,39.356C32.622,39.22 32.82,39.076 33.012,38.925C35.41,37.044 36.429,33.909 38.466,27.639C40.503,21.369 41.522,18.234 40.687,15.303C40.62,15.068 40.545,14.835 40.461,14.606C39.413,11.744 36.746,9.806 31.413,5.931C26.079,2.056 23.412,0.118 20.367,0.007C20.122,-0.002 19.878,-0.002 19.634,0.007C16.588,0.118 13.921,2.056 8.587,5.931Z" fill="#FFFFFF"/>
<path d="M26.5,40.946L26.5,33.639C26.5,30.049 23.59,27.139 20,27.139C16.41,27.139 13.5,30.049 13.5,33.639L13.5,40.946C15.246,41.056 17.358,41.056 20,41.056C22.642,41.056 24.754,41.056 26.5,40.946Z" fill="#FFFFFF"/>
</svg>
