<svg width="36" height="24" viewBox="0 0 36 24" fill="none" xmlns="http://www.w3.org/2000/svg" xmlns:xlink="http://www.w3.org/1999/xlink">
<path d="M11.056,3.065C11.644,2.482 11.649,1.532 11.065,0.944C10.482,0.356 9.532,0.351 8.944,0.935L5.355,4.492C4.003,5.832 2.898,6.927 2.114,7.903C1.299,8.918 0.709,9.947 0.552,11.184C0.483,11.726 0.483,12.274 0.552,12.816C0.709,14.053 1.299,15.082 2.114,16.097C2.898,17.073 4.003,18.168 5.355,19.508L8.944,23.065C9.532,23.649 10.482,23.644 11.065,23.056C11.649,22.468 11.644,21.518 11.056,20.935L7.53,17.44C6.099,16.022 5.117,15.046 4.453,14.219C4.237,13.95 4.069,13.713 3.938,13.5L34,13.5C34.828,13.5 35.5,12.828 35.5,12C35.5,11.172 34.828,10.5 34,10.5L3.938,10.5C4.069,10.287 4.237,10.05 4.453,9.781C5.117,8.954 6.099,7.978 7.53,6.56L11.056,3.065Z" fill="#FFFFFF"/>
</svg>
