<svg width="148" height="234" viewBox="0 0 148 234" fill="none" xmlns="http://www.w3.org/2000/svg" xmlns:xlink="http://www.w3.org/1999/xlink">
<path d="M147.353,116.842C82.879,122.99 77.971,129.823 74.183,232.654C74.18,232.744 74.142,232.83 74.077,232.892C74.012,232.954 73.925,232.99 73.835,232.99C73.744,232.99 73.657,232.954 73.592,232.892C73.527,232.83 73.489,232.744 73.486,232.654C69.698,129.823 64.791,122.99 0.316,116.842C0.23,116.834 0.149,116.794 0.091,116.73C0.032,116.666 0,116.582 0,116.495C0,116.408 0.032,116.324 0.091,116.26C0.149,116.196 0.23,116.156 0.316,116.148C64.791,110 69.698,103.167 73.486,0.336C73.489,0.246 73.527,0.161 73.592,0.098C73.657,0.035 73.744,0 73.835,0C73.925,0 74.012,0.035 74.077,0.098C74.142,0.161 74.18,0.246 74.183,0.336C77.971,103.167 82.879,110 147.353,116.148C147.439,116.156 147.52,116.196 147.578,116.26C147.637,116.324 147.669,116.408 147.669,116.495C147.669,116.582 147.637,116.666 147.578,116.73C147.52,116.794 147.439,116.834 147.353,116.842Z" fill="#FFFFFF"/>
</svg>
