<svg width="238" height="376" viewBox="0 0 238 376" fill="none" xmlns="http://www.w3.org/2000/svg" xmlns:xlink="http://www.w3.org/1999/xlink">
<path d="M237.49,188.561C133.577,198.482 125.667,209.508 119.562,375.458C119.557,375.602 119.495,375.74 119.39,375.842C119.286,375.944 119.146,376 119,376C118.854,376 118.714,375.944 118.61,375.842C118.505,375.74 118.443,375.602 118.438,375.458C112.333,209.508 104.424,198.482 0.51,188.561C0.37,188.548 0.241,188.483 0.147,188.379C0.052,188.275 0,188.14 0,188C0,187.86 0.052,187.725 0.147,187.621C0.241,187.517 0.37,187.452 0.51,187.439C104.424,177.518 112.333,166.491 118.438,0.543C118.443,0.397 118.505,0.259 118.61,0.158C118.714,0.057 118.854,0 119,0C119.146,0 119.286,0.057 119.39,0.158C119.495,0.259 119.557,0.397 119.562,0.543C125.667,166.491 133.577,177.518 237.49,187.439C237.63,187.452 237.76,187.517 237.854,187.621C237.948,187.725 238,187.86 238,188C238,188.14 237.948,188.275 237.854,188.379C237.76,188.483 237.63,188.548 237.49,188.561Z" fill="#FFFFFF"/>
</svg>
