<svg width="40" height="40" viewBox="0 0 40 40" fill="none" xmlns="http://www.w3.org/2000/svg" xmlns:xlink="http://www.w3.org/1999/xlink">
<path d="M38.91,5.46C40,7.599 40,10.399 40,16L40,18.368C40,21.747 40,23.436 39.596,24.814C38.638,28.082 36.082,30.638 32.814,31.596C31.436,32 29.747,32 26.368,32L25.271,32L25.141,32C23.1,32.013 21.112,32.65 19.444,33.826L19.338,33.901L14.117,37.631C12.327,38.909 9.975,37.063 10.792,35.021C11.37,33.574 10.305,32 8.747,32L7.543,32C3.377,32 0,28.623 0,24.457L0,16C0,10.399 0,7.599 1.09,5.46C2.049,3.578 3.578,2.049 5.46,1.09C7.599,0 10.399,0 16,0L24,0C29.601,0 32.401,0 34.54,1.09C36.422,2.049 37.951,3.578 38.91,5.46ZM14,16C14,17.105 13.105,18 12,18C10.895,18 10,17.105 10,16C10,14.895 10.895,14 12,14C13.105,14 14,14.895 14,16ZM22,16C22,17.105 21.105,18 20,18C18.895,18 18,17.105 18,16C18,14.895 18.895,14 20,14C21.105,14 22,14.895 22,16ZM28,18C29.105,18 30,17.105 30,16C30,14.895 29.105,14 28,14C26.895,14 26,14.895 26,16C26,17.105 26.895,18 28,18Z" clip-rule="evenodd" fill-rule="evenodd" fill="#7D8BB7"/>
</svg>
