<svg width="242" height="242" viewBox="0 0 242 242" fill="none" xmlns="http://www.w3.org/2000/svg" xmlns:xlink="http://www.w3.org/1999/xlink">
<path d="M160.862,137.157C177.851,128.544 203.09,124.867 241.822,120.911C202.622,116.907 177.244,113.189 160.25,104.349C165.777,86.001 180.81,65.236 205.334,34.353C175.447,59.328 155.191,74.817 137.157,80.96C128.544,63.971 124.867,38.732 120.911,0C116.907,39.201 113.189,64.578 104.349,81.572C86.001,76.046 65.236,61.012 34.353,36.489C59.328,66.376 74.817,86.631 80.96,104.665C63.971,113.279 38.732,116.955 0,120.911C39.2,124.915 64.578,128.634 81.572,137.473C76.045,155.821 61.012,176.587 36.488,207.47C66.376,182.494 86.631,167.006 104.665,160.862C113.278,177.852 116.955,203.09 120.911,241.822C124.915,202.622 128.633,177.244 137.473,160.251C155.821,165.777 176.586,180.81 207.47,205.334C182.494,175.447 167.006,155.191 160.862,137.157Z" fill="#FFFFFF"/>
</svg>
