<svg width="32" height="28" viewBox="0 0 32 28" fill="none" xmlns="http://www.w3.org/2000/svg" xmlns:xlink="http://www.w3.org/1999/xlink">
<path d="M18,0.5C17.172,0.5 16.5,1.172 16.5,2C16.5,2.828 17.172,3.5 18,3.5L30,3.5C30.828,3.5 31.5,2.828 31.5,2C31.5,1.172 30.828,0.5 30,0.5L18,0.5Z" transform="rotate(360 16 14)" fill="#FFFFFF"/>
<path d="M2,12.5C1.172,12.5 0.5,13.172 0.5,14C0.5,14.828 1.172,15.5 2,15.5L30,15.5C30.828,15.5 31.5,14.828 31.5,14C31.5,13.172 30.828,12.5 30,12.5L2,12.5Z" transform="rotate(360 16 14)" fill="#FFFFFF"/>
<path d="M10,24.5C9.172,24.5 8.5,25.172 8.5,26C8.5,26.828 9.172,27.5 10,27.5L30,27.5C30.828,27.5 31.5,26.828 31.5,26C31.5,25.172 30.828,24.5 30,24.5L10,24.5Z" transform="rotate(360 16 14)" fill="#FFFFFF"/>
</svg>
