<svg width="270" height="270" viewBox="0 0 270 270" fill="none" xmlns="http://www.w3.org/2000/svg" xmlns:xlink="http://www.w3.org/1999/xlink">
<path d="M171.194,156.854C189.908,143.989 219.514,139.372 268.698,134.349C218.852,129.258 189.111,124.587 170.442,111.321C175.625,100.435 184.347,88.076 196.618,72.3C196.808,72.055 196.902,71.749 196.88,71.439C196.859,71.13 196.724,70.839 196.502,70.623C196.28,70.406 195.986,70.279 195.677,70.265C195.367,70.252 195.063,70.353 194.823,70.549C179.546,83.057 167.511,92.029 156.854,97.503C143.988,78.79 139.372,49.183 134.349,0C129.258,49.845 124.587,79.586 111.321,98.256C100.435,93.072 88.075,84.351 72.3,72.079C72.055,71.889 71.749,71.796 71.439,71.817C71.13,71.838 70.839,71.973 70.623,72.195C70.406,72.417 70.279,72.711 70.265,73.021C70.252,73.33 70.352,73.634 70.549,73.875C83.057,89.152 92.029,101.186 97.503,111.843C78.79,124.709 49.183,129.325 0,134.349C49.845,139.44 79.586,144.111 98.256,157.376C93.072,168.263 84.351,180.622 72.079,196.398C71.889,196.643 71.796,196.949 71.817,197.258C71.839,197.568 71.973,197.858 72.195,198.075C72.417,198.291 72.711,198.418 73.021,198.432C73.33,198.446 73.634,198.345 73.875,198.149C89.152,185.64 101.186,176.668 111.843,171.194C124.709,189.908 129.325,219.514 134.349,268.698C139.44,218.852 144.111,189.112 157.376,170.442C168.263,175.626 180.622,184.347 196.397,196.619C196.642,196.809 196.949,196.902 197.258,196.88C197.568,196.859 197.858,196.725 198.075,196.503C198.291,196.281 198.418,195.987 198.432,195.677C198.446,195.367 198.345,195.063 198.149,194.823C185.64,179.546 176.668,167.511 171.194,156.854Z" fill="#FFFFFF"/>
</svg>
