<svg width="36" height="42" viewBox="0 0 36 42" fill="none" xmlns="http://www.w3.org/2000/svg" xmlns:xlink="http://www.w3.org/1999/xlink">
<path d="M9,6.265C6.917,6.512 5.389,6.989 4.122,7.91C3.273,8.527 2.527,9.273 1.91,10.122C0,12.751 0,16.501 0,24C0,31.499 0,35.249 1.91,37.878C2.527,38.727 3.273,39.473 4.122,40.09C6.751,42 10.501,42 18,42C19.678,42 21.168,42 22.5,41.979L22.5,41.838C22.5,40.134 22.5,39.096 22.642,38.201C23.421,33.28 27.28,29.421 32.201,28.642C33.096,28.5 34.134,28.5 35.838,28.5L35.979,28.5C36,27.168 36,25.678 36,24.001C36,16.501 36,12.751 34.09,10.122C33.473,9.273 32.727,8.527 31.878,7.91C30.611,6.989 29.083,6.512 27,6.265L27,8C27,9.657 25.657,11 24,11C22.343,11 21,9.657 21,8L21,6.006C20.072,6 19.074,6 18,6C16.926,6 15.928,6 15,6.006L15,8C15,9.657 13.657,11 12,11C10.343,11 9,9.657 9,8L9,6.265ZM8,18C9.105,18 10,17.105 10,16C10,14.895 9.105,14 8,14C6.895,14 6,14.895 6,16C6,17.105 6.895,18 8,18ZM10,24C10,25.105 9.105,26 8,26C6.895,26 6,25.105 6,24C6,22.895 6.895,22 8,22C9.105,22 10,22.895 10,24ZM18,18C19.105,18 20,17.105 20,16C20,14.895 19.105,14 18,14C16.895,14 16,14.895 16,16C16,17.105 16.895,18 18,18ZM20,24C20,25.105 19.105,26 18,26C16.895,26 16,25.105 16,24C16,22.895 16.895,22 18,22C19.105,22 20,22.895 20,24ZM18,34C19.105,34 20,33.105 20,32C20,30.895 19.105,30 18,30C16.895,30 16,30.895 16,32C16,33.105 16.895,34 18,34ZM30,16C30,17.105 29.105,18 28,18C26.895,18 26,17.105 26,16C26,14.895 26.895,14 28,14C29.105,14 30,14.895 30,16ZM28,26C29.105,26 30,25.105 30,24C30,22.895 29.105,22 28,22C26.895,22 26,22.895 26,24C26,25.105 26.895,26 28,26ZM10,32C10,33.105 9.105,34 8,34C6.895,34 6,33.105 6,32C6,30.895 6.895,30 8,30C9.105,30 10,30.895 10,32Z" clip-rule="evenodd" fill-rule="evenodd" fill="#FFFFFF"/>
<path d="M35.869,31.5C34.049,31.5 33.287,31.507 32.67,31.605C29.033,32.181 26.181,35.033 25.605,38.67C25.507,39.287 25.5,40.049 25.5,41.869C28.379,41.681 30.324,41.219 31.878,40.09C32.727,39.473 33.473,38.727 34.09,37.878C35.219,36.324 35.681,34.379 35.869,31.5Z" fill="#FFFFFF"/>
<path d="M13.5,2C13.5,1.172 12.828,0.5 12,0.5C11.172,0.5 10.5,1.172 10.5,2L10.5,8C10.5,8.828 11.172,9.5 12,9.5C12.828,9.5 13.5,8.828 13.5,8L13.5,2Z" fill="#FFFFFF"/>
<path d="M25.5,2C25.5,1.172 24.828,0.5 24,0.5C23.172,0.5 22.5,1.172 22.5,2L22.5,8C22.5,8.828 23.172,9.5 24,9.5C24.828,9.5 25.5,8.828 25.5,8L25.5,2Z" fill="#FFFFFF"/>
</svg>
