<svg width="58" height="56" viewBox="0 0 58 56" fill="none" xmlns="http://www.w3.org/2000/svg" xmlns:xlink="http://www.w3.org/1999/xlink">
<path d="M29.148,-0.686C29.148,13.908 31.41,22.859 33.954,18.336C31.41,22.859 39.818,19.047 51.822,10.234C39.818,19.047 34.23,26.396 39.948,25.851C34.23,26.396 42.454,30.593 57.423,34.77C42.454,30.593 33.223,30.806 37.809,35.223C33.223,30.806 35.069,39.853 41.731,54.446C35.069,39.853 29.148,32.769 29.148,39.394C29.148,32.769 23.226,39.853 16.564,54.446C23.226,39.853 25.072,30.806 20.487,35.223C25.072,30.806 15.842,30.593 0.873,34.77C15.842,30.593 24.065,26.396 18.348,25.851C24.065,26.396 18.477,19.047 6.473,10.234C18.477,19.047 26.886,22.859 24.341,18.336C26.886,22.859 29.148,13.908 29.148,-0.686Z" fill="#FFFFFF"/>
</svg>
