<svg width="34" height="22" viewBox="0 0 34 22" fill="none" xmlns="http://www.w3.org/2000/svg" xmlns:xlink="http://www.w3.org/1999/xlink">
<path d="M16.883,4.555C21.5,4.555 25.94,6.258 29.285,9.311C29.537,9.547 29.94,9.544 30.188,9.305L32.596,6.971C32.722,6.85 32.792,6.685 32.791,6.514C32.79,6.343 32.718,6.179 32.591,6.059C23.809,-2.02 9.956,-2.02 1.174,6.059C1.047,6.179 0.975,6.343 0.974,6.514C0.972,6.685 1.042,6.85 1.168,6.971L3.577,9.305C3.825,9.544 4.228,9.547 4.48,9.311C7.826,6.258 12.266,4.555 16.883,4.555ZM16.883,12.146C19.42,12.146 21.866,13.051 23.746,14.685C24,14.917 24.401,14.912 24.648,14.674L27.054,12.341C27.181,12.218 27.251,12.052 27.249,11.88C27.247,11.707 27.174,11.543 27.044,11.423C21.319,6.31 12.452,6.31 6.727,11.423C6.598,11.543 6.524,11.707 6.522,11.88C6.52,12.052 6.591,12.218 6.718,12.341L9.123,14.674C9.371,14.912 9.771,14.917 10.026,14.685C11.904,13.052 14.348,12.147 16.883,12.146ZM21.702,17.254C21.706,17.427 21.635,17.593 21.506,17.715L17.345,21.746C17.223,21.864 17.057,21.931 16.883,21.931C16.71,21.931 16.543,21.864 16.421,21.746L12.26,17.715C12.131,17.593 12.06,17.427 12.064,17.253C12.068,17.08 12.146,16.917 12.28,16.801C14.937,14.643 18.829,14.643 21.487,16.801C21.62,16.917 21.698,17.081 21.702,17.254Z" clip-rule="evenodd" fill-rule="evenodd" fill="#263257"/>
</svg>
